ISO-10303-21;
HEADER;
FILE_DESCRIPTION(('Zenith CAD Generated STEP File'),'2;1');
FILE_NAME('ZENITH_OPEN_BOX.stp','2026-08-18T10:00:00',('Zenith CAD'),('Zenith CAD Kernel'),'Zenith CAD Kernel 0.1.0','Zenith CAD','');
FILE_SCHEMA(('AUTOMOTIVE_DESIGN { 1 0 10303 214 1 1 1 1 }'));
ENDSEC;
DATA;
#1 = APPLICATION_CONTEXT('core data for automotive mechanical design processes');
#2 = APPLICATION_PROTOCOL_DEFINITION('international standard','automotive_design',2000,#1);
#3 = PRODUCT_CONTEXT('',#1,'mechanical');
#4 = PRODUCT('ZENITH_OPEN_BOX','ZENITH_OPEN_BOX','',(#3));
#5 = PRODUCT_DEFINITION_FORMATION('','',#4);
#6 = PRODUCT_DEFINITION_CONTEXT('part definition',#1,'design');
#7 = PRODUCT_DEFINITION('design','',#5,#6);
#8 = PRODUCT_DEFINITION_SHAPE('','',#7);
#9 = ( LENGTH_UNIT() NAMED_UNIT(*) SI_UNIT(.MILLI.,.METRE.) );
#10 = ( NAMED_UNIT(*) PLANE_ANGLE_UNIT() SI_UNIT($,.RADIAN.) );
#11 = ( NAMED_UNIT(*) SI_UNIT($,.STERADIAN.) SOLID_ANGLE_UNIT() );
#12 = UNCERTAINTY_MEASURE_WITH_UNIT(LENGTH_MEASURE(1.E-05),#9,'distance_accuracy_value','confusion accuracy');
#13 = ( GEOMETRIC_REPRESENTATION_CONTEXT(3) GLOBAL_UNCERTAINTY_ASSIGNED_CONTEXT((#12)) GLOBAL_UNIT_ASSIGNED_CONTEXT((#9,#10,#11)) REPRESENTATION_CONTEXT('Context #1','3D Context with UNIT and UNCERTAINTY') );
#14 = CARTESIAN_POINT('',(0.000000000000,0.000000000000,0.000000000000));
#15 = DIRECTION('',(0.0,0.0,1.0));
#16 = DIRECTION('',(1.0,0.0,0.0));
#17 = AXIS2_PLACEMENT_3D('',#14,#15,#16);
#18 = CARTESIAN_POINT('',(0.000000000000,0.000000000000,0.000000000000));
#19 = DIRECTION('',(0.000000000000,0.000000000000,-1.000000000000));
#20 = DIRECTION('',(0.000000000000,1.000000000000,0.000000000000));
#21 = AXIS2_PLACEMENT_3D('',#18,#19,#20);
#22 = PLANE('',#21);
#23 = CARTESIAN_POINT('',(2.000000000000,2.000000000000,2.000000000000));
#24 = DIRECTION('',(0.000000000000,0.000000000000,1.000000000000));
#25 = DIRECTION('',(1.000000000000,0.000000000000,0.000000000000));
#26 = AXIS2_PLACEMENT_3D('',#23,#24,#25);
#27 = PLANE('',#26);
#28 = CARTESIAN_POINT('',(0.000000000000,0.000000000000,0.000000000000));
#29 = DIRECTION('',(0.000000000000,-1.000000000000,0.000000000000));
#30 = DIRECTION('',(1.000000000000,0.000000000000,0.000000000000));
#31 = AXIS2_PLACEMENT_3D('',#28,#29,#30);
#32 = PLANE('',#31);
#33 = CARTESIAN_POINT('',(40.000000000000,0.000000000000,0.000000000000));
#34 = DIRECTION('',(1.000000000000,0.000000000000,0.000000000000));
#35 = DIRECTION('',(0.000000000000,1.000000000000,0.000000000000));
#36 = AXIS2_PLACEMENT_3D('',#33,#34,#35);
#37 = PLANE('',#36);
#38 = CARTESIAN_POINT('',(0.000000000000,30.000000000000,0.000000000000));
#39 = DIRECTION('',(0.000000000000,1.000000000000,0.000000000000));
#40 = DIRECTION('',(0.000000000000,0.000000000000,1.000000000000));
#41 = AXIS2_PLACEMENT_3D('',#38,#39,#40);
#42 = PLANE('',#41);
#43 = CARTESIAN_POINT('',(0.000000000000,0.000000000000,0.000000000000));
#44 = DIRECTION('',(-1.000000000000,0.000000000000,0.000000000000));
#45 = DIRECTION('',(0.000000000000,0.000000000000,1.000000000000));
#46 = AXIS2_PLACEMENT_3D('',#43,#44,#45);
#47 = PLANE('',#46);
#48 = CARTESIAN_POINT('',(2.000000000000,2.000000000000,2.000000000000));
#49 = DIRECTION('',(0.000000000000,1.000000000000,0.000000000000));
#50 = DIRECTION('',(0.000000000000,0.000000000000,1.000000000000));
#51 = AXIS2_PLACEMENT_3D('',#48,#49,#50);
#52 = PLANE('',#51);
#53 = CARTESIAN_POINT('',(38.000000000000,2.000000000000,2.000000000000));
#54 = DIRECTION('',(-1.000000000000,0.000000000000,0.000000000000));
#55 = DIRECTION('',(0.000000000000,0.000000000000,1.000000000000));
#56 = AXIS2_PLACEMENT_3D('',#53,#54,#55);
#57 = PLANE('',#56);
#58 = CARTESIAN_POINT('',(2.000000000000,28.000000000000,2.000000000000));
#59 = DIRECTION('',(0.000000000000,-1.000000000000,0.000000000000));
#60 = DIRECTION('',(1.000000000000,0.000000000000,0.000000000000));
#61 = AXIS2_PLACEMENT_3D('',#58,#59,#60);
#62 = PLANE('',#61);
#63 = CARTESIAN_POINT('',(2.000000000000,2.000000000000,2.000000000000));
#64 = DIRECTION('',(1.000000000000,0.000000000000,0.000000000000));
#65 = DIRECTION('',(0.000000000000,1.000000000000,0.000000000000));
#66 = AXIS2_PLACEMENT_3D('',#63,#64,#65);
#67 = PLANE('',#66);
#68 = CARTESIAN_POINT('',(0.000000000000,0.000000000000,20.000000000000));
#69 = DIRECTION('',(0.000000000000,0.000000000000,1.000000000000));
#70 = DIRECTION('',(1.000000000000,0.000000000000,0.000000000000));
#71 = AXIS2_PLACEMENT_3D('',#68,#69,#70);
#72 = PLANE('',#71);
#73 = CARTESIAN_POINT('',(0.000000000000,30.000000000000,0.000000000000));
#74 = VERTEX_POINT('',#73);
#75 = CARTESIAN_POINT('',(0.000000000000,0.000000000000,0.000000000000));
#76 = VERTEX_POINT('',#75);
#77 = CARTESIAN_POINT('',(0.000000000000,30.000000000000,0.000000000000));
#78 = DIRECTION('',(0.000000000000,-1.000000000000,0.000000000000));
#79 = VECTOR('',#78,1.0);
#80 = LINE('',#77,#79);
#81 = CARTESIAN_POINT('',(0.000000000000,0.000000000000));
#82 = CARTESIAN_POINT('',(30.000000000000,0.000000000000));
#83 = B_SPLINE_CURVE_WITH_KNOTS('',1,(#81,#82),.UNSPECIFIED.,.F.,.F.,(2,2),(0.000000000000,1.000000000000),.UNSPECIFIED.);
#84 = ( GEOMETRIC_REPRESENTATION_CONTEXT(2) PARAMETRIC_REPRESENTATION_CONTEXT() REPRESENTATION_CONTEXT('2D Space','') );
#85 = DEFINITIONAL_REPRESENTATION('',(#83),#84);
#86 = PCURVE('',#22,#85);
#87 = CARTESIAN_POINT('',(0.000000000000,30.000000000000));
#88 = CARTESIAN_POINT('',(0.000000000000,0.000000000000));
#89 = B_SPLINE_CURVE_WITH_KNOTS('',1,(#87,#88),.UNSPECIFIED.,.F.,.F.,(2,2),(0.000000000000,1.000000000000),.UNSPECIFIED.);
#90 = DEFINITIONAL_REPRESENTATION('',(#89),#84);
#91 = PCURVE('',#47,#90);
#92 = SURFACE_CURVE('',#80,(#86,#91),.PCURVE_S1.);
#93 = EDGE_CURVE('',#74,#76,#92,.T.);
#94 = ORIENTED_EDGE('',*,*,#93,.F.);
#95 = CARTESIAN_POINT('',(40.000000000000,30.000000000000,0.000000000000));
#96 = VERTEX_POINT('',#95);
#97 = CARTESIAN_POINT('',(40.000000000000,30.000000000000,0.000000000000));
#98 = DIRECTION('',(-1.000000000000,0.000000000000,0.000000000000));
#99 = VECTOR('',#98,1.0);
#100 = LINE('',#97,#99);
#101 = CARTESIAN_POINT('',(30.000000000000,0.000000000000));
#102 = CARTESIAN_POINT('',(30.000000000000,40.000000000000));
#103 = B_SPLINE_CURVE_WITH_KNOTS('',1,(#101,#102),.UNSPECIFIED.,.F.,.F.,(2,2),(0.000000000000,1.000000000000),.UNSPECIFIED.);
#104 = DEFINITIONAL_REPRESENTATION('',(#103),#84);
#105 = PCURVE('',#22,#104);
#106 = CARTESIAN_POINT('',(0.000000000000,40.000000000000));
#107 = CARTESIAN_POINT('',(0.000000000000,0.000000000000));
#108 = B_SPLINE_CURVE_WITH_KNOTS('',1,(#106,#107),.UNSPECIFIED.,.F.,.F.,(2,2),(0.000000000000,1.000000000000),.UNSPECIFIED.);
#109 = DEFINITIONAL_REPRESENTATION('',(#108),#84);
#110 = PCURVE('',#42,#109);
#111 = SURFACE_CURVE('',#100,(#105,#110),.PCURVE_S1.);
#112 = EDGE_CURVE('',#96,#74,#111,.T.);
#113 = ORIENTED_EDGE('',*,*,#112,.F.);
#114 = CARTESIAN_POINT('',(40.000000000000,0.000000000000,0.000000000000));
#115 = VERTEX_POINT('',#114);
#116 = CARTESIAN_POINT('',(40.000000000000,0.000000000000,0.000000000000));
#117 = DIRECTION('',(0.000000000000,1.000000000000,0.000000000000));
#118 = VECTOR('',#117,1.0);
#119 = LINE('',#116,#118);
#120 = CARTESIAN_POINT('',(30.000000000000,40.000000000000));
#121 = CARTESIAN_POINT('',(0.000000000000,40.000000000000));
#122 = B_SPLINE_CURVE_WITH_KNOTS('',1,(#120,#121),.UNSPECIFIED.,.F.,.F.,(2,2),(0.000000000000,1.000000000000),.UNSPECIFIED.);
#123 = DEFINITIONAL_REPRESENTATION('',(#122),#84);
#124 = PCURVE('',#22,#123);
#125 = CARTESIAN_POINT('',(0.000000000000,0.000000000000));
#126 = CARTESIAN_POINT('',(30.000000000000,0.000000000000));
#127 = B_SPLINE_CURVE_WITH_KNOTS('',1,(#125,#126),.UNSPECIFIED.,.F.,.F.,(2,2),(0.000000000000,1.000000000000),.UNSPECIFIED.);
#128 = DEFINITIONAL_REPRESENTATION('',(#127),#84);
#129 = PCURVE('',#37,#128);
#130 = SURFACE_CURVE('',#119,(#124,#129),.PCURVE_S1.);
#131 = EDGE_CURVE('',#115,#96,#130,.T.);
#132 = ORIENTED_EDGE('',*,*,#131,.F.);
#133 = CARTESIAN_POINT('',(0.000000000000,0.000000000000,0.000000000000));
#134 = DIRECTION('',(1.000000000000,0.000000000000,0.000000000000));
#135 = VECTOR('',#134,1.0);
#136 = LINE('',#133,#135);
#137 = CARTESIAN_POINT('',(0.000000000000,40.000000000000));
#138 = CARTESIAN_POINT('',(0.000000000000,0.000000000000));
#139 = B_SPLINE_CURVE_WITH_KNOTS('',1,(#137,#138),.UNSPECIFIED.,.F.,.F.,(2,2),(0.000000000000,1.000000000000),.UNSPECIFIED.);
#140 = DEFINITIONAL_REPRESENTATION('',(#139),#84);
#141 = PCURVE('',#22,#140);
#142 = CARTESIAN_POINT('',(0.000000000000,0.000000000000));
#143 = CARTESIAN_POINT('',(40.000000000000,0.000000000000));
#144 = B_SPLINE_CURVE_WITH_KNOTS('',1,(#142,#143),.UNSPECIFIED.,.F.,.F.,(2,2),(0.000000000000,1.000000000000),.UNSPECIFIED.);
#145 = DEFINITIONAL_REPRESENTATION('',(#144),#84);
#146 = PCURVE('',#32,#145);
#147 = SURFACE_CURVE('',#136,(#141,#146),.PCURVE_S1.);
#148 = EDGE_CURVE('',#76,#115,#147,.T.);
#149 = ORIENTED_EDGE('',*,*,#148,.F.);
#150 = EDGE_LOOP('',(#94,#113,#132,#149));
#151 = FACE_OUTER_BOUND('',#150,.T.);
#152 = ADVANCED_FACE('',(#151) ,#22,.T.);
#153 = CARTESIAN_POINT('',(2.000000000000,2.000000000000,2.000000000000));
#154 = VERTEX_POINT('',#153);
#155 = CARTESIAN_POINT('',(38.000000000000,2.000000000000,2.000000000000));
#156 = VERTEX_POINT('',#155);
#157 = CARTESIAN_POINT('',(2.000000000000,2.000000000000,2.000000000000));
#158 = DIRECTION('',(1.000000000000,0.000000000000,0.000000000000));
#159 = VECTOR('',#158,1.0);
#160 = LINE('',#157,#159);
#161 = CARTESIAN_POINT('',(0.000000000000,0.000000000000));
#162 = CARTESIAN_POINT('',(36.000000000000,0.000000000000));
#163 = B_SPLINE_CURVE_WITH_KNOTS('',1,(#161,#162),.UNSPECIFIED.,.F.,.F.,(2,2),(0.000000000000,1.000000000000),.UNSPECIFIED.);
#164 = DEFINITIONAL_REPRESENTATION('',(#163),#84);
#165 = PCURVE('',#27,#164);
#166 = CARTESIAN_POINT('',(0.000000000000,36.000000000000));
#167 = CARTESIAN_POINT('',(0.000000000000,0.000000000000));
#168 = B_SPLINE_CURVE_WITH_KNOTS('',1,(#166,#167),.UNSPECIFIED.,.F.,.F.,(2,2),(0.000000000000,1.000000000000),.UNSPECIFIED.);
#169 = DEFINITIONAL_REPRESENTATION('',(#168),#84);
#170 = PCURVE('',#52,#169);
#171 = SURFACE_CURVE('',#160,(#165,#170),.PCURVE_S1.);
#172 = EDGE_CURVE('',#154,#156,#171,.T.);
#173 = ORIENTED_EDGE('',*,*,#172,.T.);
#174 = CARTESIAN_POINT('',(38.000000000000,28.000000000000,2.000000000000));
#175 = VERTEX_POINT('',#174);
#176 = CARTESIAN_POINT('',(38.000000000000,2.000000000000,2.000000000000));
#177 = DIRECTION('',(0.000000000000,1.000000000000,0.000000000000));
#178 = VECTOR('',#177,1.0);
#179 = LINE('',#176,#178);
#180 = CARTESIAN_POINT('',(36.000000000000,0.000000000000));
#181 = CARTESIAN_POINT('',(36.000000000000,26.000000000000));
#182 = B_SPLINE_CURVE_WITH_KNOTS('',1,(#180,#181),.UNSPECIFIED.,.F.,.F.,(2,2),(0.000000000000,1.000000000000),.UNSPECIFIED.);
#183 = DEFINITIONAL_REPRESENTATION('',(#182),#84);
#184 = PCURVE('',#27,#183);
#185 = CARTESIAN_POINT('',(0.000000000000,26.000000000000));
#186 = CARTESIAN_POINT('',(0.000000000000,0.000000000000));
#187 = B_SPLINE_CURVE_WITH_KNOTS('',1,(#185,#186),.UNSPECIFIED.,.F.,.F.,(2,2),(0.000000000000,1.000000000000),.UNSPECIFIED.);
#188 = DEFINITIONAL_REPRESENTATION('',(#187),#84);
#189 = PCURVE('',#57,#188);
#190 = SURFACE_CURVE('',#179,(#184,#189),.PCURVE_S1.);
#191 = EDGE_CURVE('',#156,#175,#190,.T.);
#192 = ORIENTED_EDGE('',*,*,#191,.T.);
#193 = CARTESIAN_POINT('',(2.000000000000,28.000000000000,2.000000000000));
#194 = VERTEX_POINT('',#193);
#195 = CARTESIAN_POINT('',(38.000000000000,28.000000000000,2.000000000000));
#196 = DIRECTION('',(-1.000000000000,0.000000000000,0.000000000000));
#197 = VECTOR('',#196,1.0);
#198 = LINE('',#195,#197);
#199 = CARTESIAN_POINT('',(36.000000000000,26.000000000000));
#200 = CARTESIAN_POINT('',(0.000000000000,26.000000000000));
#201 = B_SPLINE_CURVE_WITH_KNOTS('',1,(#199,#200),.UNSPECIFIED.,.F.,.F.,(2,2),(0.000000000000,1.000000000000),.UNSPECIFIED.);
#202 = DEFINITIONAL_REPRESENTATION('',(#201),#84);
#203 = PCURVE('',#27,#202);
#204 = CARTESIAN_POINT('',(0.000000000000,0.000000000000));
#205 = CARTESIAN_POINT('',(36.000000000000,0.000000000000));
#206 = B_SPLINE_CURVE_WITH_KNOTS('',1,(#204,#205),.UNSPECIFIED.,.F.,.F.,(2,2),(0.000000000000,1.000000000000),.UNSPECIFIED.);
#207 = DEFINITIONAL_REPRESENTATION('',(#206),#84);
#208 = PCURVE('',#62,#207);
#209 = SURFACE_CURVE('',#198,(#203,#208),.PCURVE_S1.);
#210 = EDGE_CURVE('',#175,#194,#209,.T.);
#211 = ORIENTED_EDGE('',*,*,#210,.T.);
#212 = CARTESIAN_POINT('',(2.000000000000,28.000000000000,2.000000000000));
#213 = DIRECTION('',(0.000000000000,-1.000000000000,0.000000000000));
#214 = VECTOR('',#213,1.0);
#215 = LINE('',#212,#214);
#216 = CARTESIAN_POINT('',(0.000000000000,26.000000000000));
#217 = CARTESIAN_POINT('',(0.000000000000,0.000000000000));
#218 = B_SPLINE_CURVE_WITH_KNOTS('',1,(#216,#217),.UNSPECIFIED.,.F.,.F.,(2,2),(0.000000000000,1.000000000000),.UNSPECIFIED.);
#219 = DEFINITIONAL_REPRESENTATION('',(#218),#84);
#220 = PCURVE('',#27,#219);
#221 = CARTESIAN_POINT('',(0.000000000000,0.000000000000));
#222 = CARTESIAN_POINT('',(26.000000000000,0.000000000000));
#223 = B_SPLINE_CURVE_WITH_KNOTS('',1,(#221,#222),.UNSPECIFIED.,.F.,.F.,(2,2),(0.000000000000,1.000000000000),.UNSPECIFIED.);
#224 = DEFINITIONAL_REPRESENTATION('',(#223),#84);
#225 = PCURVE('',#67,#224);
#226 = SURFACE_CURVE('',#215,(#220,#225),.PCURVE_S1.);
#227 = EDGE_CURVE('',#194,#154,#226,.T.);
#228 = ORIENTED_EDGE('',*,*,#227,.T.);
#229 = EDGE_LOOP('',(#173,#192,#211,#228));
#230 = FACE_OUTER_BOUND('',#229,.T.);
#231 = ADVANCED_FACE('',(#230) ,#27,.T.);
#232 = ORIENTED_EDGE('',*,*,#148,.T.);
#233 = CARTESIAN_POINT('',(40.000000000000,0.000000000000,20.000000000000));
#234 = VERTEX_POINT('',#233);
#235 = CARTESIAN_POINT('',(40.000000000000,0.000000000000,0.000000000000));
#236 = DIRECTION('',(0.000000000000,0.000000000000,1.000000000000));
#237 = VECTOR('',#236,1.0);
#238 = LINE('',#235,#237);
#239 = CARTESIAN_POINT('',(40.000000000000,0.000000000000));
#240 = CARTESIAN_POINT('',(40.000000000000,20.000000000000));
#241 = B_SPLINE_CURVE_WITH_KNOTS('',1,(#239,#240),.UNSPECIFIED.,.F.,.F.,(2,2),(0.000000000000,1.000000000000),.UNSPECIFIED.);
#242 = DEFINITIONAL_REPRESENTATION('',(#241),#84);
#243 = PCURVE('',#32,#242);
#244 = CARTESIAN_POINT('',(0.000000000000,20.000000000000));
#245 = CARTESIAN_POINT('',(0.000000000000,0.000000000000));
#246 = B_SPLINE_CURVE_WITH_KNOTS('',1,(#244,#245),.UNSPECIFIED.,.F.,.F.,(2,2),(0.000000000000,1.000000000000),.UNSPECIFIED.);
#247 = DEFINITIONAL_REPRESENTATION('',(#246),#84);
#248 = PCURVE('',#37,#247);
#249 = SURFACE_CURVE('',#238,(#243,#248),.PCURVE_S1.);
#250 = EDGE_CURVE('',#115,#234,#249,.T.);
#251 = ORIENTED_EDGE('',*,*,#250,.T.);
#252 = CARTESIAN_POINT('',(0.000000000000,0.000000000000,20.000000000000));
#253 = VERTEX_POINT('',#252);
#254 = CARTESIAN_POINT('',(0.000000000000,0.000000000000,20.000000000000));
#255 = DIRECTION('',(1.000000000000,0.000000000000,0.000000000000));
#256 = VECTOR('',#255,1.0);
#257 = LINE('',#254,#256);
#258 = CARTESIAN_POINT('',(40.000000000000,20.000000000000));
#259 = CARTESIAN_POINT('',(0.000000000000,20.000000000000));
#260 = B_SPLINE_CURVE_WITH_KNOTS('',1,(#258,#259),.UNSPECIFIED.,.F.,.F.,(2,2),(0.000000000000,1.000000000000),.UNSPECIFIED.);
#261 = DEFINITIONAL_REPRESENTATION('',(#260),#84);
#262 = PCURVE('',#32,#261);
#263 = CARTESIAN_POINT('',(0.000000000000,0.000000000000));
#264 = CARTESIAN_POINT('',(40.000000000000,0.000000000000));
#265 = B_SPLINE_CURVE_WITH_KNOTS('',1,(#263,#264),.UNSPECIFIED.,.F.,.F.,(2,2),(0.000000000000,1.000000000000),.UNSPECIFIED.);
#266 = DEFINITIONAL_REPRESENTATION('',(#265),#84);
#267 = PCURVE('',#72,#266);
#268 = SURFACE_CURVE('',#257,(#262,#267),.PCURVE_S1.);
#269 = EDGE_CURVE('',#253,#234,#268,.T.);
#270 = ORIENTED_EDGE('',*,*,#269,.F.);
#271 = CARTESIAN_POINT('',(0.000000000000,0.000000000000,0.000000000000));
#272 = DIRECTION('',(0.000000000000,0.000000000000,1.000000000000));
#273 = VECTOR('',#272,1.0);
#274 = LINE('',#271,#273);
#275 = CARTESIAN_POINT('',(0.000000000000,20.000000000000));
#276 = CARTESIAN_POINT('',(0.000000000000,0.000000000000));
#277 = B_SPLINE_CURVE_WITH_KNOTS('',1,(#275,#276),.UNSPECIFIED.,.F.,.F.,(2,2),(0.000000000000,1.000000000000),.UNSPECIFIED.);
#278 = DEFINITIONAL_REPRESENTATION('',(#277),#84);
#279 = PCURVE('',#32,#278);
#280 = CARTESIAN_POINT('',(0.000000000000,0.000000000000));
#281 = CARTESIAN_POINT('',(20.000000000000,0.000000000000));
#282 = B_SPLINE_CURVE_WITH_KNOTS('',1,(#280,#281),.UNSPECIFIED.,.F.,.F.,(2,2),(0.000000000000,1.000000000000),.UNSPECIFIED.);
#283 = DEFINITIONAL_REPRESENTATION('',(#282),#84);
#284 = PCURVE('',#47,#283);
#285 = SURFACE_CURVE('',#274,(#279,#284),.PCURVE_S1.);
#286 = EDGE_CURVE('',#76,#253,#285,.T.);
#287 = ORIENTED_EDGE('',*,*,#286,.F.);
#288 = EDGE_LOOP('',(#232,#251,#270,#287));
#289 = FACE_OUTER_BOUND('',#288,.T.);
#290 = ADVANCED_FACE('',(#289) ,#32,.T.);
#291 = ORIENTED_EDGE('',*,*,#131,.T.);
#292 = CARTESIAN_POINT('',(40.000000000000,30.000000000000,20.000000000000));
#293 = VERTEX_POINT('',#292);
#294 = CARTESIAN_POINT('',(40.000000000000,30.000000000000,0.000000000000));
#295 = DIRECTION('',(0.000000000000,0.000000000000,1.000000000000));
#296 = VECTOR('',#295,1.0);
#297 = LINE('',#294,#296);
#298 = CARTESIAN_POINT('',(30.000000000000,0.000000000000));
#299 = CARTESIAN_POINT('',(30.000000000000,20.000000000000));
#300 = B_SPLINE_CURVE_WITH_KNOTS('',1,(#298,#299),.UNSPECIFIED.,.F.,.F.,(2,2),(0.000000000000,1.000000000000),.UNSPECIFIED.);
#301 = DEFINITIONAL_REPRESENTATION('',(#300),#84);
#302 = PCURVE('',#37,#301);
#303 = CARTESIAN_POINT('',(20.000000000000,40.000000000000));
#304 = CARTESIAN_POINT('',(0.000000000000,40.000000000000));
#305 = B_SPLINE_CURVE_WITH_KNOTS('',1,(#303,#304),.UNSPECIFIED.,.F.,.F.,(2,2),(0.000000000000,1.000000000000),.UNSPECIFIED.);
#306 = DEFINITIONAL_REPRESENTATION('',(#305),#84);
#307 = PCURVE('',#42,#306);
#308 = SURFACE_CURVE('',#297,(#302,#307),.PCURVE_S1.);
#309 = EDGE_CURVE('',#96,#293,#308,.T.);
#310 = ORIENTED_EDGE('',*,*,#309,.T.);
#311 = CARTESIAN_POINT('',(40.000000000000,0.000000000000,20.000000000000));
#312 = DIRECTION('',(0.000000000000,1.000000000000,0.000000000000));
#313 = VECTOR('',#312,1.0);
#314 = LINE('',#311,#313);
#315 = CARTESIAN_POINT('',(30.000000000000,20.000000000000));
#316 = CARTESIAN_POINT('',(0.000000000000,20.000000000000));
#317 = B_SPLINE_CURVE_WITH_KNOTS('',1,(#315,#316),.UNSPECIFIED.,.F.,.F.,(2,2),(0.000000000000,1.000000000000),.UNSPECIFIED.);
#318 = DEFINITIONAL_REPRESENTATION('',(#317),#84);
#319 = PCURVE('',#37,#318);
#320 = CARTESIAN_POINT('',(40.000000000000,0.000000000000));
#321 = CARTESIAN_POINT('',(40.000000000000,30.000000000000));
#322 = B_SPLINE_CURVE_WITH_KNOTS('',1,(#320,#321),.UNSPECIFIED.,.F.,.F.,(2,2),(0.000000000000,1.000000000000),.UNSPECIFIED.);
#323 = DEFINITIONAL_REPRESENTATION('',(#322),#84);
#324 = PCURVE('',#72,#323);
#325 = SURFACE_CURVE('',#314,(#319,#324),.PCURVE_S1.);
#326 = EDGE_CURVE('',#234,#293,#325,.T.);
#327 = ORIENTED_EDGE('',*,*,#326,.F.);
#328 = ORIENTED_EDGE('',*,*,#250,.F.);
#329 = EDGE_LOOP('',(#291,#310,#327,#328));
#330 = FACE_OUTER_BOUND('',#329,.T.);
#331 = ADVANCED_FACE('',(#330) ,#37,.T.);
#332 = ORIENTED_EDGE('',*,*,#112,.T.);
#333 = CARTESIAN_POINT('',(0.000000000000,30.000000000000,20.000000000000));
#334 = VERTEX_POINT('',#333);
#335 = CARTESIAN_POINT('',(0.000000000000,30.000000000000,0.000000000000));
#336 = DIRECTION('',(0.000000000000,0.000000000000,1.000000000000));
#337 = VECTOR('',#336,1.0);
#338 = LINE('',#335,#337);
#339 = CARTESIAN_POINT('',(0.000000000000,0.000000000000));
#340 = CARTESIAN_POINT('',(20.000000000000,0.000000000000));
#341 = B_SPLINE_CURVE_WITH_KNOTS('',1,(#339,#340),.UNSPECIFIED.,.F.,.F.,(2,2),(0.000000000000,1.000000000000),.UNSPECIFIED.);
#342 = DEFINITIONAL_REPRESENTATION('',(#341),#84);
#343 = PCURVE('',#42,#342);
#344 = CARTESIAN_POINT('',(20.000000000000,30.000000000000));
#345 = CARTESIAN_POINT('',(0.000000000000,30.000000000000));
#346 = B_SPLINE_CURVE_WITH_KNOTS('',1,(#344,#345),.UNSPECIFIED.,.F.,.F.,(2,2),(0.000000000000,1.000000000000),.UNSPECIFIED.);
#347 = DEFINITIONAL_REPRESENTATION('',(#346),#84);
#348 = PCURVE('',#47,#347);
#349 = SURFACE_CURVE('',#338,(#343,#348),.PCURVE_S1.);
#350 = EDGE_CURVE('',#74,#334,#349,.T.);
#351 = ORIENTED_EDGE('',*,*,#350,.T.);
#352 = CARTESIAN_POINT('',(40.000000000000,30.000000000000,20.000000000000));
#353 = DIRECTION('',(-1.000000000000,0.000000000000,0.000000000000));
#354 = VECTOR('',#353,1.0);
#355 = LINE('',#352,#354);
#356 = CARTESIAN_POINT('',(20.000000000000,0.000000000000));
#357 = CARTESIAN_POINT('',(20.000000000000,40.000000000000));
#358 = B_SPLINE_CURVE_WITH_KNOTS('',1,(#356,#357),.UNSPECIFIED.,.F.,.F.,(2,2),(0.000000000000,1.000000000000),.UNSPECIFIED.);
#359 = DEFINITIONAL_REPRESENTATION('',(#358),#84);
#360 = PCURVE('',#42,#359);
#361 = CARTESIAN_POINT('',(40.000000000000,30.000000000000));
#362 = CARTESIAN_POINT('',(0.000000000000,30.000000000000));
#363 = B_SPLINE_CURVE_WITH_KNOTS('',1,(#361,#362),.UNSPECIFIED.,.F.,.F.,(2,2),(0.000000000000,1.000000000000),.UNSPECIFIED.);
#364 = DEFINITIONAL_REPRESENTATION('',(#363),#84);
#365 = PCURVE('',#72,#364);
#366 = SURFACE_CURVE('',#355,(#360,#365),.PCURVE_S1.);
#367 = EDGE_CURVE('',#293,#334,#366,.T.);
#368 = ORIENTED_EDGE('',*,*,#367,.F.);
#369 = ORIENTED_EDGE('',*,*,#309,.F.);
#370 = EDGE_LOOP('',(#332,#351,#368,#369));
#371 = FACE_OUTER_BOUND('',#370,.T.);
#372 = ADVANCED_FACE('',(#371) ,#42,.T.);
#373 = ORIENTED_EDGE('',*,*,#93,.T.);
#374 = ORIENTED_EDGE('',*,*,#286,.T.);
#375 = CARTESIAN_POINT('',(0.000000000000,30.000000000000,20.000000000000));
#376 = DIRECTION('',(0.000000000000,-1.000000000000,0.000000000000));
#377 = VECTOR('',#376,1.0);
#378 = LINE('',#375,#377);
#379 = CARTESIAN_POINT('',(20.000000000000,0.000000000000));
#380 = CARTESIAN_POINT('',(20.000000000000,30.000000000000));
#381 = B_SPLINE_CURVE_WITH_KNOTS('',1,(#379,#380),.UNSPECIFIED.,.F.,.F.,(2,2),(0.000000000000,1.000000000000),.UNSPECIFIED.);
#382 = DEFINITIONAL_REPRESENTATION('',(#381),#84);
#383 = PCURVE('',#47,#382);
#384 = CARTESIAN_POINT('',(0.000000000000,30.000000000000));
#385 = CARTESIAN_POINT('',(0.000000000000,0.000000000000));
#386 = B_SPLINE_CURVE_WITH_KNOTS('',1,(#384,#385),.UNSPECIFIED.,.F.,.F.,(2,2),(0.000000000000,1.000000000000),.UNSPECIFIED.);
#387 = DEFINITIONAL_REPRESENTATION('',(#386),#84);
#388 = PCURVE('',#72,#387);
#389 = SURFACE_CURVE('',#378,(#383,#388),.PCURVE_S1.);
#390 = EDGE_CURVE('',#334,#253,#389,.T.);
#391 = ORIENTED_EDGE('',*,*,#390,.F.);
#392 = ORIENTED_EDGE('',*,*,#350,.F.);
#393 = EDGE_LOOP('',(#373,#374,#391,#392));
#394 = FACE_OUTER_BOUND('',#393,.T.);
#395 = ADVANCED_FACE('',(#394) ,#47,.T.);
#396 = CARTESIAN_POINT('',(2.000000000000,2.000000000000,20.000000000000));
#397 = VERTEX_POINT('',#396);
#398 = CARTESIAN_POINT('',(2.000000000000,2.000000000000,2.000000000000));
#399 = DIRECTION('',(0.000000000000,0.000000000000,1.000000000000));
#400 = VECTOR('',#399,1.0);
#401 = LINE('',#398,#400);
#402 = CARTESIAN_POINT('',(0.000000000000,0.000000000000));
#403 = CARTESIAN_POINT('',(18.000000000000,0.000000000000));
#404 = B_SPLINE_CURVE_WITH_KNOTS('',1,(#402,#403),.UNSPECIFIED.,.F.,.F.,(2,2),(0.000000000000,1.000000000000),.UNSPECIFIED.);
#405 = DEFINITIONAL_REPRESENTATION('',(#404),#84);
#406 = PCURVE('',#52,#405);
#407 = CARTESIAN_POINT('',(0.000000000000,18.000000000000));
#408 = CARTESIAN_POINT('',(0.000000000000,0.000000000000));
#409 = B_SPLINE_CURVE_WITH_KNOTS('',1,(#407,#408),.UNSPECIFIED.,.F.,.F.,(2,2),(0.000000000000,1.000000000000),.UNSPECIFIED.);
#410 = DEFINITIONAL_REPRESENTATION('',(#409),#84);
#411 = PCURVE('',#67,#410);
#412 = SURFACE_CURVE('',#401,(#406,#411),.PCURVE_S1.);
#413 = EDGE_CURVE('',#154,#397,#412,.T.);
#414 = ORIENTED_EDGE('',*,*,#413,.T.);
#415 = CARTESIAN_POINT('',(38.000000000000,2.000000000000,20.000000000000));
#416 = VERTEX_POINT('',#415);
#417 = CARTESIAN_POINT('',(2.000000000000,2.000000000000,20.000000000000));
#418 = DIRECTION('',(1.000000000000,0.000000000000,0.000000000000));
#419 = VECTOR('',#418,1.0);
#420 = LINE('',#417,#419);
#421 = CARTESIAN_POINT('',(18.000000000000,0.000000000000));
#422 = CARTESIAN_POINT('',(18.000000000000,36.000000000000));
#423 = B_SPLINE_CURVE_WITH_KNOTS('',1,(#421,#422),.UNSPECIFIED.,.F.,.F.,(2,2),(0.000000000000,1.000000000000),.UNSPECIFIED.);
#424 = DEFINITIONAL_REPRESENTATION('',(#423),#84);
#425 = PCURVE('',#52,#424);
#426 = CARTESIAN_POINT('',(38.000000000000,2.000000000000));
#427 = CARTESIAN_POINT('',(2.000000000000,2.000000000000));
#428 = B_SPLINE_CURVE_WITH_KNOTS('',1,(#426,#427),.UNSPECIFIED.,.F.,.F.,(2,2),(0.000000000000,1.000000000000),.UNSPECIFIED.);
#429 = DEFINITIONAL_REPRESENTATION('',(#428),#84);
#430 = PCURVE('',#72,#429);
#431 = SURFACE_CURVE('',#420,(#425,#430),.PCURVE_S1.);
#432 = EDGE_CURVE('',#397,#416,#431,.T.);
#433 = ORIENTED_EDGE('',*,*,#432,.T.);
#434 = CARTESIAN_POINT('',(38.000000000000,2.000000000000,2.000000000000));
#435 = DIRECTION('',(0.000000000000,0.000000000000,1.000000000000));
#436 = VECTOR('',#435,1.0);
#437 = LINE('',#434,#436);
#438 = CARTESIAN_POINT('',(18.000000000000,36.000000000000));
#439 = CARTESIAN_POINT('',(0.000000000000,36.000000000000));
#440 = B_SPLINE_CURVE_WITH_KNOTS('',1,(#438,#439),.UNSPECIFIED.,.F.,.F.,(2,2),(0.000000000000,1.000000000000),.UNSPECIFIED.);
#441 = DEFINITIONAL_REPRESENTATION('',(#440),#84);
#442 = PCURVE('',#52,#441);
#443 = CARTESIAN_POINT('',(0.000000000000,0.000000000000));
#444 = CARTESIAN_POINT('',(18.000000000000,0.000000000000));
#445 = B_SPLINE_CURVE_WITH_KNOTS('',1,(#443,#444),.UNSPECIFIED.,.F.,.F.,(2,2),(0.000000000000,1.000000000000),.UNSPECIFIED.);
#446 = DEFINITIONAL_REPRESENTATION('',(#445),#84);
#447 = PCURVE('',#57,#446);
#448 = SURFACE_CURVE('',#437,(#442,#447),.PCURVE_S1.);
#449 = EDGE_CURVE('',#156,#416,#448,.T.);
#450 = ORIENTED_EDGE('',*,*,#449,.F.);
#451 = ORIENTED_EDGE('',*,*,#172,.F.);
#452 = EDGE_LOOP('',(#414,#433,#450,#451));
#453 = FACE_OUTER_BOUND('',#452,.T.);
#454 = ADVANCED_FACE('',(#453) ,#52,.T.);
#455 = ORIENTED_EDGE('',*,*,#449,.T.);
#456 = CARTESIAN_POINT('',(38.000000000000,28.000000000000,20.000000000000));
#457 = VERTEX_POINT('',#456);
#458 = CARTESIAN_POINT('',(38.000000000000,2.000000000000,20.000000000000));
#459 = DIRECTION('',(0.000000000000,1.000000000000,0.000000000000));
#460 = VECTOR('',#459,1.0);
#461 = LINE('',#458,#460);
#462 = CARTESIAN_POINT('',(18.000000000000,0.000000000000));
#463 = CARTESIAN_POINT('',(18.000000000000,26.000000000000));
#464 = B_SPLINE_CURVE_WITH_KNOTS('',1,(#462,#463),.UNSPECIFIED.,.F.,.F.,(2,2),(0.000000000000,1.000000000000),.UNSPECIFIED.);
#465 = DEFINITIONAL_REPRESENTATION('',(#464),#84);
#466 = PCURVE('',#57,#465);
#467 = CARTESIAN_POINT('',(38.000000000000,28.000000000000));
#468 = CARTESIAN_POINT('',(38.000000000000,2.000000000000));
#469 = B_SPLINE_CURVE_WITH_KNOTS('',1,(#467,#468),.UNSPECIFIED.,.F.,.F.,(2,2),(0.000000000000,1.000000000000),.UNSPECIFIED.);
#470 = DEFINITIONAL_REPRESENTATION('',(#469),#84);
#471 = PCURVE('',#72,#470);
#472 = SURFACE_CURVE('',#461,(#466,#471),.PCURVE_S1.);
#473 = EDGE_CURVE('',#416,#457,#472,.T.);
#474 = ORIENTED_EDGE('',*,*,#473,.T.);
#475 = CARTESIAN_POINT('',(38.000000000000,28.000000000000,2.000000000000));
#476 = DIRECTION('',(0.000000000000,0.000000000000,1.000000000000));
#477 = VECTOR('',#476,1.0);
#478 = LINE('',#475,#477);
#479 = CARTESIAN_POINT('',(18.000000000000,26.000000000000));
#480 = CARTESIAN_POINT('',(0.000000000000,26.000000000000));
#481 = B_SPLINE_CURVE_WITH_KNOTS('',1,(#479,#480),.UNSPECIFIED.,.F.,.F.,(2,2),(0.000000000000,1.000000000000),.UNSPECIFIED.);
#482 = DEFINITIONAL_REPRESENTATION('',(#481),#84);
#483 = PCURVE('',#57,#482);
#484 = CARTESIAN_POINT('',(36.000000000000,0.000000000000));
#485 = CARTESIAN_POINT('',(36.000000000000,18.000000000000));
#486 = B_SPLINE_CURVE_WITH_KNOTS('',1,(#484,#485),.UNSPECIFIED.,.F.,.F.,(2,2),(0.000000000000,1.000000000000),.UNSPECIFIED.);
#487 = DEFINITIONAL_REPRESENTATION('',(#486),#84);
#488 = PCURVE('',#62,#487);
#489 = SURFACE_CURVE('',#478,(#483,#488),.PCURVE_S1.);
#490 = EDGE_CURVE('',#175,#457,#489,.T.);
#491 = ORIENTED_EDGE('',*,*,#490,.F.);
#492 = ORIENTED_EDGE('',*,*,#191,.F.);
#493 = EDGE_LOOP('',(#455,#474,#491,#492));
#494 = FACE_OUTER_BOUND('',#493,.T.);
#495 = ADVANCED_FACE('',(#494) ,#57,.T.);
#496 = ORIENTED_EDGE('',*,*,#490,.T.);
#497 = CARTESIAN_POINT('',(2.000000000000,28.000000000000,20.000000000000));
#498 = VERTEX_POINT('',#497);
#499 = CARTESIAN_POINT('',(38.000000000000,28.000000000000,20.000000000000));
#500 = DIRECTION('',(-1.000000000000,0.000000000000,0.000000000000));
#501 = VECTOR('',#500,1.0);
#502 = LINE('',#499,#501);
#503 = CARTESIAN_POINT('',(36.000000000000,18.000000000000));
#504 = CARTESIAN_POINT('',(0.000000000000,18.000000000000));
#505 = B_SPLINE_CURVE_WITH_KNOTS('',1,(#503,#504),.UNSPECIFIED.,.F.,.F.,(2,2),(0.000000000000,1.000000000000),.UNSPECIFIED.);
#506 = DEFINITIONAL_REPRESENTATION('',(#505),#84);
#507 = PCURVE('',#62,#506);
#508 = CARTESIAN_POINT('',(2.000000000000,28.000000000000));
#509 = CARTESIAN_POINT('',(38.000000000000,28.000000000000));
#510 = B_SPLINE_CURVE_WITH_KNOTS('',1,(#508,#509),.UNSPECIFIED.,.F.,.F.,(2,2),(0.000000000000,1.000000000000),.UNSPECIFIED.);
#511 = DEFINITIONAL_REPRESENTATION('',(#510),#84);
#512 = PCURVE('',#72,#511);
#513 = SURFACE_CURVE('',#502,(#507,#512),.PCURVE_S1.);
#514 = EDGE_CURVE('',#457,#498,#513,.T.);
#515 = ORIENTED_EDGE('',*,*,#514,.T.);
#516 = CARTESIAN_POINT('',(2.000000000000,28.000000000000,2.000000000000));
#517 = DIRECTION('',(0.000000000000,0.000000000000,1.000000000000));
#518 = VECTOR('',#517,1.0);
#519 = LINE('',#516,#518);
#520 = CARTESIAN_POINT('',(0.000000000000,18.000000000000));
#521 = CARTESIAN_POINT('',(0.000000000000,0.000000000000));
#522 = B_SPLINE_CURVE_WITH_KNOTS('',1,(#520,#521),.UNSPECIFIED.,.F.,.F.,(2,2),(0.000000000000,1.000000000000),.UNSPECIFIED.);
#523 = DEFINITIONAL_REPRESENTATION('',(#522),#84);
#524 = PCURVE('',#62,#523);
#525 = CARTESIAN_POINT('',(26.000000000000,0.000000000000));
#526 = CARTESIAN_POINT('',(26.000000000000,18.000000000000));
#527 = B_SPLINE_CURVE_WITH_KNOTS('',1,(#525,#526),.UNSPECIFIED.,.F.,.F.,(2,2),(0.000000000000,1.000000000000),.UNSPECIFIED.);
#528 = DEFINITIONAL_REPRESENTATION('',(#527),#84);
#529 = PCURVE('',#67,#528);
#530 = SURFACE_CURVE('',#519,(#524,#529),.PCURVE_S1.);
#531 = EDGE_CURVE('',#194,#498,#530,.T.);
#532 = ORIENTED_EDGE('',*,*,#531,.F.);
#533 = ORIENTED_EDGE('',*,*,#210,.F.);
#534 = EDGE_LOOP('',(#496,#515,#532,#533));
#535 = FACE_OUTER_BOUND('',#534,.T.);
#536 = ADVANCED_FACE('',(#535) ,#62,.T.);
#537 = ORIENTED_EDGE('',*,*,#531,.T.);
#538 = CARTESIAN_POINT('',(2.000000000000,28.000000000000,20.000000000000));
#539 = DIRECTION('',(0.000000000000,-1.000000000000,0.000000000000));
#540 = VECTOR('',#539,1.0);
#541 = LINE('',#538,#540);
#542 = CARTESIAN_POINT('',(26.000000000000,18.000000000000));
#543 = CARTESIAN_POINT('',(0.000000000000,18.000000000000));
#544 = B_SPLINE_CURVE_WITH_KNOTS('',1,(#542,#543),.UNSPECIFIED.,.F.,.F.,(2,2),(0.000000000000,1.000000000000),.UNSPECIFIED.);
#545 = DEFINITIONAL_REPRESENTATION('',(#544),#84);
#546 = PCURVE('',#67,#545);
#547 = CARTESIAN_POINT('',(2.000000000000,2.000000000000));
#548 = CARTESIAN_POINT('',(2.000000000000,28.000000000000));
#549 = B_SPLINE_CURVE_WITH_KNOTS('',1,(#547,#548),.UNSPECIFIED.,.F.,.F.,(2,2),(0.000000000000,1.000000000000),.UNSPECIFIED.);
#550 = DEFINITIONAL_REPRESENTATION('',(#549),#84);
#551 = PCURVE('',#72,#550);
#552 = SURFACE_CURVE('',#541,(#546,#551),.PCURVE_S1.);
#553 = EDGE_CURVE('',#498,#397,#552,.T.);
#554 = ORIENTED_EDGE('',*,*,#553,.T.);
#555 = ORIENTED_EDGE('',*,*,#413,.F.);
#556 = ORIENTED_EDGE('',*,*,#227,.F.);
#557 = EDGE_LOOP('',(#537,#554,#555,#556));
#558 = FACE_OUTER_BOUND('',#557,.T.);
#559 = ADVANCED_FACE('',(#558) ,#67,.T.);
#560 = ORIENTED_EDGE('',*,*,#269,.T.);
#561 = ORIENTED_EDGE('',*,*,#326,.T.);
#562 = ORIENTED_EDGE('',*,*,#367,.T.);
#563 = ORIENTED_EDGE('',*,*,#390,.T.);
#564 = EDGE_LOOP('',(#560,#561,#562,#563));
#565 = FACE_OUTER_BOUND('',#564,.T.);
#566 = ORIENTED_EDGE('',*,*,#553,.F.);
#567 = ORIENTED_EDGE('',*,*,#514,.F.);
#568 = ORIENTED_EDGE('',*,*,#473,.F.);
#569 = ORIENTED_EDGE('',*,*,#432,.F.);
#570 = EDGE_LOOP('',(#566,#567,#568,#569));
#571 = FACE_BOUND('',#570,.T.);
#572 = ADVANCED_FACE('',(#565,#571) ,#72,.T.);
#573 = CLOSED_SHELL('',(#152,#231,#290,#331,#372,#395,#454,#495,#536,#559,#572));
#574 = MANIFOLD_SOLID_BREP('ZENITH_OPEN_BOX',#573);
#575 = ADVANCED_BREP_SHAPE_REPRESENTATION('ZENITH_OPEN_BOX',(#574,#17),#13);
#576 = SHAPE_DEFINITION_REPRESENTATION(#8,#575);
ENDSEC;
END-ISO-10303-21;
