ISO-10303-21;
HEADER;
FILE_DESCRIPTION(('Zenith CAD Generated STEP File'),'2;1');
FILE_NAME('ZENITH_POLYLINE_SWEEP.stp','2026-08-18T10:00:00',('Zenith CAD'),('Zenith CAD Kernel'),'Zenith CAD Kernel 0.1.0','Zenith CAD','');
FILE_SCHEMA(('AUTOMOTIVE_DESIGN { 1 0 10303 214 1 1 1 1 }'));
ENDSEC;
DATA;
#1 = APPLICATION_CONTEXT('core data for automotive mechanical design processes');
#2 = APPLICATION_PROTOCOL_DEFINITION('international standard','automotive_design',2000,#1);
#3 = PRODUCT_CONTEXT('',#1,'mechanical');
#4 = PRODUCT('ZENITH_POLYLINE_SWEEP','ZENITH_POLYLINE_SWEEP','',(#3));
#5 = PRODUCT_DEFINITION_FORMATION('','',#4);
#6 = PRODUCT_DEFINITION_CONTEXT('part definition',#1,'design');
#7 = PRODUCT_DEFINITION('design','',#5,#6);
#8 = PRODUCT_DEFINITION_SHAPE('','',#7);
#9 = ( LENGTH_UNIT() NAMED_UNIT(*) SI_UNIT(.MILLI.,.METRE.) );
#10 = ( NAMED_UNIT(*) PLANE_ANGLE_UNIT() SI_UNIT($,.RADIAN.) );
#11 = ( NAMED_UNIT(*) SI_UNIT($,.STERADIAN.) SOLID_ANGLE_UNIT() );
#12 = UNCERTAINTY_MEASURE_WITH_UNIT(LENGTH_MEASURE(1.E-07),#9,'distance_accuracy_value','confusion accuracy');
#13 = GEOMETRIC_REPRESENTATION_CONTEXT(3) GLOBAL_UNCERTAINTY_ASSIGNED_CONTEXT((#12)) GLOBAL_UNIT_ASSIGNED_CONTEXT((#9,#10,#11)) REPRESENTATION_CONTEXT('Context #1','3D Context with UNIT and UNCERTAINTY');
#14 = GEOMETRIC_REPRESENTATION_CONTEXT(2) REPRESENTATION_CONTEXT('Parametric Context','2D p-curve Context');
#15 = CARTESIAN_POINT('',(0.000000000000,0.000000000000,0.000000000000));
#16 = DIRECTION('',(0.0,0.0,1.0));
#17 = DIRECTION('',(1.0,0.0,0.0));
#18 = AXIS2_PLACEMENT_3D('',#15,#16,#17);
#19 = CARTESIAN_POINT('',(3.000000000000,0.000000000000,5.000000000000));
#20 = CARTESIAN_POINT('',(3.000000000000,4.800000000000,5.000000000000));
#21 = CARTESIAN_POINT('',(3.000000000000,9.600000000000,5.000000000000));
#22 = CARTESIAN_POINT('',(3.000000000000,14.400000000000,5.000000000000));
#23 = CARTESIAN_POINT('',(3.000000000000,19.200000000000,5.000000000000));
#24 = CARTESIAN_POINT('',(3.000000000000,24.000000000000,5.000000000000));
#25 = CARTESIAN_POINT('',(3.000000000000,28.800000000000,5.000000000000));
#26 = CARTESIAN_POINT('',(3.000000000000,33.600000000000,5.000000000000));
#27 = CARTESIAN_POINT('',(3.000000000000,38.400000000000,5.000000000000));
#28 = CARTESIAN_POINT('',(3.000000000000,43.200000000000,5.000000000000));
#29 = CARTESIAN_POINT('',(2.992141524473,47.674434451400,4.994106143354));
#30 = CARTESIAN_POINT('',(2.997184403922,48.458459141748,4.997888302942));
#31 = CARTESIAN_POINT('',(3.082051582537,49.272309820188,5.061538686903));
#32 = CARTESIAN_POINT('',(3.255214617602,50.097661694978,5.191410963202));
#33 = CARTESIAN_POINT('',(3.521550115117,50.912477018859,5.391162586338));
#34 = CARTESIAN_POINT('',(3.881189947372,51.692437028367,5.660892460529));
#35 = CARTESIAN_POINT('',(4.328840509545,52.412993409648,5.996630382159));
#36 = CARTESIAN_POINT('',(4.853803246828,53.051737857247,6.390352435121));
#37 = CARTESIAN_POINT('',(5.440779762268,53.590647144480,6.830584821701));
#38 = CARTESIAN_POINT('',(6.071344329576,54.017750064702,7.303508247182));
#39 = CARTESIAN_POINT('',(6.725791964848,54.327901541463,7.794343973636));
#40 = CARTESIAN_POINT('',(7.384991763113,54.522586117919,8.288743822335));
#41 = CARTESIAN_POINT('',(8.280000000000,54.600000000000,8.960000000000));
#42 = CARTESIAN_POINT('',(11.746666666667,54.600000000000,11.560000000000));
#43 = CARTESIAN_POINT('',(15.213333333333,54.600000000000,14.160000000000));
#44 = CARTESIAN_POINT('',(18.680000000000,54.600000000000,16.760000000000));
#45 = CARTESIAN_POINT('',(22.146666666667,54.600000000000,19.360000000000));
#46 = CARTESIAN_POINT('',(25.613333333333,54.600000000000,21.960000000000));
#47 = CARTESIAN_POINT('',(28.819547561120,54.609823094409,24.364660670840));
#48 = CARTESIAN_POINT('',(29.446767313398,54.603519495097,24.835075485049));
#49 = CARTESIAN_POINT('',(30.097847856150,54.497435521829,25.323385892113));
#50 = CARTESIAN_POINT('',(30.758129355982,54.280981727997,25.818597016987));
#51 = CARTESIAN_POINT('',(31.409981615087,53.948062356104,26.307486211315));
#52 = CARTESIAN_POINT('',(32.033949622694,53.498512565785,26.775462217020));
#53 = CARTESIAN_POINT('',(32.610394727718,52.938949363069,27.207796045789));
#54 = CARTESIAN_POINT('',(33.121390285798,52.282745941465,27.591042714348));
#55 = CARTESIAN_POINT('',(33.552517715584,51.549025297166,27.914388286688));
#56 = CARTESIAN_POINT('',(33.894200051762,50.760819588030,28.170650038821));
#57 = CARTESIAN_POINT('',(34.142321233171,49.942760043940,28.356740924878));
#58 = CARTESIAN_POINT('',(34.298068894335,49.118760296108,28.473551670751));
#59 = CARTESIAN_POINT('',(34.360000000000,48.000000000000,28.520000000000));
#60 = CARTESIAN_POINT('',(34.360000000000,43.200000000000,28.520000000000));
#61 = CARTESIAN_POINT('',(34.360000000000,38.400000000000,28.520000000000));
#62 = CARTESIAN_POINT('',(34.360000000000,33.600000000000,28.520000000000));
#63 = CARTESIAN_POINT('',(34.360000000000,28.800000000000,28.520000000000));
#64 = CARTESIAN_POINT('',(34.360000000000,24.000000000000,28.520000000000));
#65 = CARTESIAN_POINT('',(34.360000000000,19.200000000000,28.520000000000));
#66 = CARTESIAN_POINT('',(34.360000000000,14.400000000000,28.520000000000));
#67 = CARTESIAN_POINT('',(34.360000000000,9.600000000000,28.520000000000));
#68 = CARTESIAN_POINT('',(34.360000000000,4.800000000000,28.520000000000));
#69 = CARTESIAN_POINT('',(34.360000000000,0.000000000000,28.520000000000));
#70 = CARTESIAN_POINT('',(3.000000000000,0.000000000000,-5.000000000000));
#71 = CARTESIAN_POINT('',(3.000000000000,4.800000000000,-5.000000000000));
#72 = CARTESIAN_POINT('',(3.000000000000,9.600000000000,-5.000000000000));
#73 = CARTESIAN_POINT('',(3.000000000000,14.400000000000,-5.000000000000));
#74 = CARTESIAN_POINT('',(3.000000000000,19.200000000000,-5.000000000000));
#75 = CARTESIAN_POINT('',(3.000000000000,24.000000000000,-5.000000000000));
#76 = CARTESIAN_POINT('',(3.000000000000,28.800000000000,-5.000000000000));
#77 = CARTESIAN_POINT('',(3.000000000000,33.600000000000,-5.000000000000));
#78 = CARTESIAN_POINT('',(3.000000000000,38.400000000000,-5.000000000000));
#79 = CARTESIAN_POINT('',(3.000000000000,43.200000000000,-5.000000000000));
#80 = CARTESIAN_POINT('',(3.000873163947,48.036173949844,-4.999345127039));
#81 = CARTESIAN_POINT('',(3.077856823111,49.553866589482,-4.941607382667));
#82 = CARTESIAN_POINT('',(3.313420873162,51.112661960980,-4.764934345129));
#83 = CARTESIAN_POINT('',(3.720567608934,52.674855939161,-4.459574293300));
#84 = CARTESIAN_POINT('',(4.304605516780,54.196947127827,-4.021545862415));
#85 = CARTESIAN_POINT('',(5.061378423291,55.632805929667,-3.453966182532));
#86 = CARTESIAN_POINT('',(5.976545388505,56.937757814749,-2.767590958621));
#87 = CARTESIAN_POINT('',(7.026227159653,58.072918605168,-1.980329630260));
#88 = CARTESIAN_POINT('',(8.179024366921,59.008955905316,-1.115731724809));
#89 = CARTESIAN_POINT('',(9.399062616943,59.728538451421,-0.200703037293));
#90 = CARTESIAN_POINT('',(10.649466006661,60.227061017477,0.737099504996));
#91 = CARTESIAN_POINT('',(11.895600164358,60.511671568576,1.671700123268));
#92 = CARTESIAN_POINT('',(13.080000000000,60.600000000000,2.560000000000));
#93 = CARTESIAN_POINT('',(16.546666666667,60.600000000000,5.160000000000));
#94 = CARTESIAN_POINT('',(20.013333333333,60.600000000000,7.760000000000));
#95 = CARTESIAN_POINT('',(23.480000000000,60.600000000000,10.360000000000));
#96 = CARTESIAN_POINT('',(26.946666666667,60.600000000000,12.960000000000));
#97 = CARTESIAN_POINT('',(30.413333333333,60.600000000000,15.560000000000));
#98 = CARTESIAN_POINT('',(33.908939159876,60.598908545066,18.181704369907));
#99 = CARTESIAN_POINT('',(35.123093271586,60.502678971111,19.092319953689));
#100 = CARTESIAN_POINT('',(36.370129568784,60.208223908548,20.027597176588));
#101 = CARTESIAN_POINT('',(37.619884751329,59.699290488833,20.964913563496));
#102 = CARTESIAN_POINT('',(38.837557702262,58.969243104025,21.878168276696));
#103 = CARTESIAN_POINT('',(39.986244743733,58.023276970886,22.739683557800));
#104 = CARTESIAN_POINT('',(41.030206251799,56.879318264369,23.522654688849));
#105 = CARTESIAN_POINT('',(41.938334884134,55.567216050434,24.203751163101));
#106 = CARTESIAN_POINT('',(42.687164724253,54.126219541349,24.765373543190));
#107 = CARTESIAN_POINT('',(43.262830761137,52.601171728822,25.197123070853));
#108 = CARTESIAN_POINT('',(43.661648813982,51.038167491674,25.496236610486));
#109 = CARTESIAN_POINT('',(43.889337254861,49.480499794553,25.667002941145));
#110 = CARTESIAN_POINT('',(43.960000000000,48.000000000000,25.720000000000));
#111 = CARTESIAN_POINT('',(43.960000000000,43.200000000000,25.720000000000));
#112 = CARTESIAN_POINT('',(43.960000000000,38.400000000000,25.720000000000));
#113 = CARTESIAN_POINT('',(43.960000000000,33.600000000000,25.720000000000));
#114 = CARTESIAN_POINT('',(43.960000000000,28.800000000000,25.720000000000));
#115 = CARTESIAN_POINT('',(43.960000000000,24.000000000000,25.720000000000));
#116 = CARTESIAN_POINT('',(43.960000000000,19.200000000000,25.720000000000));
#117 = CARTESIAN_POINT('',(43.960000000000,14.400000000000,25.720000000000));
#118 = CARTESIAN_POINT('',(43.960000000000,9.600000000000,25.720000000000));
#119 = CARTESIAN_POINT('',(43.960000000000,4.800000000000,25.720000000000));
#120 = CARTESIAN_POINT('',(43.960000000000,0.000000000000,25.720000000000));
#121 = B_SPLINE_SURFACE_WITH_KNOTS('',1,1,((#19,#20,#21,#22,#23,#24,#25,#26,#27,#28,#29,#30,#31,#32,#33,#34,#35,#36,#37,#38,#39,#40,#41,#42,#43,#44,#45,#46,#47,#48,#49,#50,#51,#52,#53,#54,#55,#56,#57,#58,#59,#60,#61,#62,#63,#64,#65,#66,#67,#68,#69),(#70,#71,#72,#73,#74,#75,#76,#77,#78,#79,#80,#81,#82,#83,#84,#85,#86,#87,#88,#89,#90,#91,#92,#93,#94,#95,#96,#97,#98,#99,#100,#101,#102,#103,#104,#105,#106,#107,#108,#109,#110,#111,#112,#113,#114,#115,#116,#117,#118,#119,#120)),.UNSPECIFIED.,.F.,.F.,.F.,(2,2),(2,1,1,1,1,1,1,1,1,1,1,1,1,1,1,1,1,1,1,1,1,1,1,1,1,1,1,1,1,1,1,1,1,1,1,1,1,1,1,1,1,1,1,1,1,1,1,1,1,1,2),(0.000000000000,1.000000000000),(0.000000000000,0.020000000000,0.040000000000,0.060000000000,0.080000000000,0.100000000000,0.120000000000,0.140000000000,0.160000000000,0.180000000000,0.200000000000,0.220000000000,0.240000000000,0.260000000000,0.280000000000,0.300000000000,0.320000000000,0.340000000000,0.360000000000,0.380000000000,0.400000000000,0.420000000000,0.440000000000,0.460000000000,0.480000000000,0.500000000000,0.520000000000,0.540000000000,0.560000000000,0.580000000000,0.600000000000,0.620000000000,0.640000000000,0.660000000000,0.680000000000,0.700000000000,0.720000000000,0.740000000000,0.760000000000,0.780000000000,0.800000000000,0.820000000000,0.840000000000,0.860000000000,0.880000000000,0.900000000000,0.920000000000,0.940000000000,0.960000000000,0.980000000000,1.000000000000),.UNSPECIFIED.);
#122 = CARTESIAN_POINT('',(3.000000000000,0.000000000000,5.000000000000));
#123 = VERTEX_POINT('',#122);
#124 = CARTESIAN_POINT('',(3.000000000000,0.000000000000,-5.000000000000));
#125 = VERTEX_POINT('',#124);
#126 = CARTESIAN_POINT('',(3.000000000000,0.000000000000,5.000000000000));
#127 = DIRECTION('',(0.000000000000,0.000000000000,-1.000000000000));
#128 = VECTOR('',#127,1.0);
#129 = LINE('',#126,#128);
#130 = EDGE_CURVE('',#123,#125,#129,.T.);
#131 = ORIENTED_EDGE('',*,*,#130,.T.);
#132 = CARTESIAN_POINT('',(43.960000000000,0.000000000000,25.720000000000));
#133 = VERTEX_POINT('',#132);
#134 = CARTESIAN_POINT('',(3.000000000000,0.000000000000,-5.000000000000));
#135 = CARTESIAN_POINT('',(3.000000000000,4.800000000000,-5.000000000000));
#136 = CARTESIAN_POINT('',(3.000000000000,9.600000000000,-5.000000000000));
#137 = CARTESIAN_POINT('',(3.000000000000,14.400000000000,-5.000000000000));
#138 = CARTESIAN_POINT('',(3.000000000000,19.200000000000,-5.000000000000));
#139 = CARTESIAN_POINT('',(3.000000000000,24.000000000000,-5.000000000000));
#140 = CARTESIAN_POINT('',(3.000000000000,28.800000000000,-5.000000000000));
#141 = CARTESIAN_POINT('',(3.000000000000,33.600000000000,-5.000000000000));
#142 = CARTESIAN_POINT('',(3.000000000000,38.400000000000,-5.000000000000));
#143 = CARTESIAN_POINT('',(3.000000000000,43.200000000000,-5.000000000000));
#144 = CARTESIAN_POINT('',(3.000873163947,48.036173949844,-4.999345127039));
#145 = CARTESIAN_POINT('',(3.077856823111,49.553866589482,-4.941607382667));
#146 = CARTESIAN_POINT('',(3.313420873162,51.112661960980,-4.764934345129));
#147 = CARTESIAN_POINT('',(3.720567608934,52.674855939161,-4.459574293300));
#148 = CARTESIAN_POINT('',(4.304605516780,54.196947127827,-4.021545862415));
#149 = CARTESIAN_POINT('',(5.061378423291,55.632805929667,-3.453966182532));
#150 = CARTESIAN_POINT('',(5.976545388505,56.937757814749,-2.767590958621));
#151 = CARTESIAN_POINT('',(7.026227159653,58.072918605168,-1.980329630260));
#152 = CARTESIAN_POINT('',(8.179024366921,59.008955905316,-1.115731724809));
#153 = CARTESIAN_POINT('',(9.399062616943,59.728538451421,-0.200703037293));
#154 = CARTESIAN_POINT('',(10.649466006661,60.227061017477,0.737099504996));
#155 = CARTESIAN_POINT('',(11.895600164358,60.511671568576,1.671700123268));
#156 = CARTESIAN_POINT('',(13.080000000000,60.600000000000,2.560000000000));
#157 = CARTESIAN_POINT('',(16.546666666667,60.600000000000,5.160000000000));
#158 = CARTESIAN_POINT('',(20.013333333333,60.600000000000,7.760000000000));
#159 = CARTESIAN_POINT('',(23.480000000000,60.600000000000,10.360000000000));
#160 = CARTESIAN_POINT('',(26.946666666667,60.600000000000,12.960000000000));
#161 = CARTESIAN_POINT('',(30.413333333333,60.600000000000,15.560000000000));
#162 = CARTESIAN_POINT('',(33.908939159876,60.598908545066,18.181704369907));
#163 = CARTESIAN_POINT('',(35.123093271586,60.502678971111,19.092319953689));
#164 = CARTESIAN_POINT('',(36.370129568784,60.208223908548,20.027597176588));
#165 = CARTESIAN_POINT('',(37.619884751329,59.699290488833,20.964913563496));
#166 = CARTESIAN_POINT('',(38.837557702262,58.969243104025,21.878168276696));
#167 = CARTESIAN_POINT('',(39.986244743733,58.023276970886,22.739683557800));
#168 = CARTESIAN_POINT('',(41.030206251799,56.879318264369,23.522654688849));
#169 = CARTESIAN_POINT('',(41.938334884134,55.567216050434,24.203751163101));
#170 = CARTESIAN_POINT('',(42.687164724253,54.126219541349,24.765373543190));
#171 = CARTESIAN_POINT('',(43.262830761137,52.601171728822,25.197123070853));
#172 = CARTESIAN_POINT('',(43.661648813982,51.038167491674,25.496236610486));
#173 = CARTESIAN_POINT('',(43.889337254861,49.480499794553,25.667002941145));
#174 = CARTESIAN_POINT('',(43.960000000000,48.000000000000,25.720000000000));
#175 = CARTESIAN_POINT('',(43.960000000000,43.200000000000,25.720000000000));
#176 = CARTESIAN_POINT('',(43.960000000000,38.400000000000,25.720000000000));
#177 = CARTESIAN_POINT('',(43.960000000000,33.600000000000,25.720000000000));
#178 = CARTESIAN_POINT('',(43.960000000000,28.800000000000,25.720000000000));
#179 = CARTESIAN_POINT('',(43.960000000000,24.000000000000,25.720000000000));
#180 = CARTESIAN_POINT('',(43.960000000000,19.200000000000,25.720000000000));
#181 = CARTESIAN_POINT('',(43.960000000000,14.400000000000,25.720000000000));
#182 = CARTESIAN_POINT('',(43.960000000000,9.600000000000,25.720000000000));
#183 = CARTESIAN_POINT('',(43.960000000000,4.800000000000,25.720000000000));
#184 = CARTESIAN_POINT('',(43.960000000000,0.000000000000,25.720000000000));
#185 = B_SPLINE_CURVE_WITH_KNOTS('',1,(#134,#135,#136,#137,#138,#139,#140,#141,#142,#143,#144,#145,#146,#147,#148,#149,#150,#151,#152,#153,#154,#155,#156,#157,#158,#159,#160,#161,#162,#163,#164,#165,#166,#167,#168,#169,#170,#171,#172,#173,#174,#175,#176,#177,#178,#179,#180,#181,#182,#183,#184),.UNSPECIFIED.,.F.,.F.,(2,1,1,1,1,1,1,1,1,1,1,1,1,1,1,1,1,1,1,1,1,1,1,1,1,1,1,1,1,1,1,1,1,1,1,1,1,1,1,1,1,1,1,1,1,1,1,1,1,1,2),(0.000000000000,0.020000000000,0.040000000000,0.060000000000,0.080000000000,0.100000000000,0.120000000000,0.140000000000,0.160000000000,0.180000000000,0.200000000000,0.220000000000,0.240000000000,0.260000000000,0.280000000000,0.300000000000,0.320000000000,0.340000000000,0.360000000000,0.380000000000,0.400000000000,0.420000000000,0.440000000000,0.460000000000,0.480000000000,0.500000000000,0.520000000000,0.540000000000,0.560000000000,0.580000000000,0.600000000000,0.620000000000,0.640000000000,0.660000000000,0.680000000000,0.700000000000,0.720000000000,0.740000000000,0.760000000000,0.780000000000,0.800000000000,0.820000000000,0.840000000000,0.860000000000,0.880000000000,0.900000000000,0.920000000000,0.940000000000,0.960000000000,0.980000000000,1.000000000000),.UNSPECIFIED.);
#186 = EDGE_CURVE('',#125,#133,#185,.T.);
#187 = ORIENTED_EDGE('',*,*,#186,.T.);
#188 = CARTESIAN_POINT('',(34.360000000000,0.000000000000,28.520000000000));
#189 = VERTEX_POINT('',#188);
#190 = CARTESIAN_POINT('',(34.360000000000,0.000000000000,28.520000000000));
#191 = DIRECTION('',(0.960000000000,0.000000000000,-0.280000000000));
#192 = VECTOR('',#191,1.0);
#193 = LINE('',#190,#192);
#194 = EDGE_CURVE('',#189,#133,#193,.T.);
#195 = ORIENTED_EDGE('',*,*,#194,.F.);
#196 = CARTESIAN_POINT('',(3.000000000000,0.000000000000,5.000000000000));
#197 = CARTESIAN_POINT('',(3.000000000000,4.800000000000,5.000000000000));
#198 = CARTESIAN_POINT('',(3.000000000000,9.600000000000,5.000000000000));
#199 = CARTESIAN_POINT('',(3.000000000000,14.400000000000,5.000000000000));
#200 = CARTESIAN_POINT('',(3.000000000000,19.200000000000,5.000000000000));
#201 = CARTESIAN_POINT('',(3.000000000000,24.000000000000,5.000000000000));
#202 = CARTESIAN_POINT('',(3.000000000000,28.800000000000,5.000000000000));
#203 = CARTESIAN_POINT('',(3.000000000000,33.600000000000,5.000000000000));
#204 = CARTESIAN_POINT('',(3.000000000000,38.400000000000,5.000000000000));
#205 = CARTESIAN_POINT('',(3.000000000000,43.200000000000,5.000000000000));
#206 = CARTESIAN_POINT('',(2.992141524473,47.674434451400,4.994106143354));
#207 = CARTESIAN_POINT('',(2.997184403922,48.458459141748,4.997888302942));
#208 = CARTESIAN_POINT('',(3.082051582537,49.272309820188,5.061538686903));
#209 = CARTESIAN_POINT('',(3.255214617602,50.097661694978,5.191410963202));
#210 = CARTESIAN_POINT('',(3.521550115117,50.912477018859,5.391162586338));
#211 = CARTESIAN_POINT('',(3.881189947372,51.692437028367,5.660892460529));
#212 = CARTESIAN_POINT('',(4.328840509545,52.412993409648,5.996630382159));
#213 = CARTESIAN_POINT('',(4.853803246828,53.051737857247,6.390352435121));
#214 = CARTESIAN_POINT('',(5.440779762268,53.590647144480,6.830584821701));
#215 = CARTESIAN_POINT('',(6.071344329576,54.017750064702,7.303508247182));
#216 = CARTESIAN_POINT('',(6.725791964848,54.327901541463,7.794343973636));
#217 = CARTESIAN_POINT('',(7.384991763113,54.522586117919,8.288743822335));
#218 = CARTESIAN_POINT('',(8.280000000000,54.600000000000,8.960000000000));
#219 = CARTESIAN_POINT('',(11.746666666667,54.600000000000,11.560000000000));
#220 = CARTESIAN_POINT('',(15.213333333333,54.600000000000,14.160000000000));
#221 = CARTESIAN_POINT('',(18.680000000000,54.600000000000,16.760000000000));
#222 = CARTESIAN_POINT('',(22.146666666667,54.600000000000,19.360000000000));
#223 = CARTESIAN_POINT('',(25.613333333333,54.600000000000,21.960000000000));
#224 = CARTESIAN_POINT('',(28.819547561120,54.609823094409,24.364660670840));
#225 = CARTESIAN_POINT('',(29.446767313398,54.603519495097,24.835075485049));
#226 = CARTESIAN_POINT('',(30.097847856150,54.497435521829,25.323385892113));
#227 = CARTESIAN_POINT('',(30.758129355982,54.280981727997,25.818597016987));
#228 = CARTESIAN_POINT('',(31.409981615087,53.948062356104,26.307486211315));
#229 = CARTESIAN_POINT('',(32.033949622694,53.498512565785,26.775462217020));
#230 = CARTESIAN_POINT('',(32.610394727718,52.938949363069,27.207796045789));
#231 = CARTESIAN_POINT('',(33.121390285798,52.282745941465,27.591042714348));
#232 = CARTESIAN_POINT('',(33.552517715584,51.549025297166,27.914388286688));
#233 = CARTESIAN_POINT('',(33.894200051762,50.760819588030,28.170650038821));
#234 = CARTESIAN_POINT('',(34.142321233171,49.942760043940,28.356740924878));
#235 = CARTESIAN_POINT('',(34.298068894335,49.118760296108,28.473551670751));
#236 = CARTESIAN_POINT('',(34.360000000000,48.000000000000,28.520000000000));
#237 = CARTESIAN_POINT('',(34.360000000000,43.200000000000,28.520000000000));
#238 = CARTESIAN_POINT('',(34.360000000000,38.400000000000,28.520000000000));
#239 = CARTESIAN_POINT('',(34.360000000000,33.600000000000,28.520000000000));
#240 = CARTESIAN_POINT('',(34.360000000000,28.800000000000,28.520000000000));
#241 = CARTESIAN_POINT('',(34.360000000000,24.000000000000,28.520000000000));
#242 = CARTESIAN_POINT('',(34.360000000000,19.200000000000,28.520000000000));
#243 = CARTESIAN_POINT('',(34.360000000000,14.400000000000,28.520000000000));
#244 = CARTESIAN_POINT('',(34.360000000000,9.600000000000,28.520000000000));
#245 = CARTESIAN_POINT('',(34.360000000000,4.800000000000,28.520000000000));
#246 = CARTESIAN_POINT('',(34.360000000000,0.000000000000,28.520000000000));
#247 = B_SPLINE_CURVE_WITH_KNOTS('',1,(#196,#197,#198,#199,#200,#201,#202,#203,#204,#205,#206,#207,#208,#209,#210,#211,#212,#213,#214,#215,#216,#217,#218,#219,#220,#221,#222,#223,#224,#225,#226,#227,#228,#229,#230,#231,#232,#233,#234,#235,#236,#237,#238,#239,#240,#241,#242,#243,#244,#245,#246),.UNSPECIFIED.,.F.,.F.,(2,1,1,1,1,1,1,1,1,1,1,1,1,1,1,1,1,1,1,1,1,1,1,1,1,1,1,1,1,1,1,1,1,1,1,1,1,1,1,1,1,1,1,1,1,1,1,1,1,1,2),(0.000000000000,0.020000000000,0.040000000000,0.060000000000,0.080000000000,0.100000000000,0.120000000000,0.140000000000,0.160000000000,0.180000000000,0.200000000000,0.220000000000,0.240000000000,0.260000000000,0.280000000000,0.300000000000,0.320000000000,0.340000000000,0.360000000000,0.380000000000,0.400000000000,0.420000000000,0.440000000000,0.460000000000,0.480000000000,0.500000000000,0.520000000000,0.540000000000,0.560000000000,0.580000000000,0.600000000000,0.620000000000,0.640000000000,0.660000000000,0.680000000000,0.700000000000,0.720000000000,0.740000000000,0.760000000000,0.780000000000,0.800000000000,0.820000000000,0.840000000000,0.860000000000,0.880000000000,0.900000000000,0.920000000000,0.940000000000,0.960000000000,0.980000000000,1.000000000000),.UNSPECIFIED.);
#248 = EDGE_CURVE('',#123,#189,#247,.T.);
#249 = ORIENTED_EDGE('',*,*,#248,.F.);
#250 = EDGE_LOOP('',(#131,#187,#195,#249));
#251 = FACE_OUTER_BOUND('',#250,.T.);
#252 = ADVANCED_FACE('',(#251) ,#121,.T.);
#253 = CARTESIAN_POINT('',(3.000000000000,0.000000000000,-5.000000000000));
#254 = CARTESIAN_POINT('',(3.000000000000,4.800000000000,-5.000000000000));
#255 = CARTESIAN_POINT('',(3.000000000000,9.600000000000,-5.000000000000));
#256 = CARTESIAN_POINT('',(3.000000000000,14.400000000000,-5.000000000000));
#257 = CARTESIAN_POINT('',(3.000000000000,19.200000000000,-5.000000000000));
#258 = CARTESIAN_POINT('',(3.000000000000,24.000000000000,-5.000000000000));
#259 = CARTESIAN_POINT('',(3.000000000000,28.800000000000,-5.000000000000));
#260 = CARTESIAN_POINT('',(3.000000000000,33.600000000000,-5.000000000000));
#261 = CARTESIAN_POINT('',(3.000000000000,38.400000000000,-5.000000000000));
#262 = CARTESIAN_POINT('',(3.000000000000,43.200000000000,-5.000000000000));
#263 = CARTESIAN_POINT('',(3.000873163947,48.036173949844,-4.999345127039));
#264 = CARTESIAN_POINT('',(3.077856823111,49.553866589482,-4.941607382667));
#265 = CARTESIAN_POINT('',(3.313420873162,51.112661960980,-4.764934345129));
#266 = CARTESIAN_POINT('',(3.720567608934,52.674855939161,-4.459574293300));
#267 = CARTESIAN_POINT('',(4.304605516780,54.196947127827,-4.021545862415));
#268 = CARTESIAN_POINT('',(5.061378423291,55.632805929667,-3.453966182532));
#269 = CARTESIAN_POINT('',(5.976545388505,56.937757814749,-2.767590958621));
#270 = CARTESIAN_POINT('',(7.026227159653,58.072918605168,-1.980329630260));
#271 = CARTESIAN_POINT('',(8.179024366921,59.008955905316,-1.115731724809));
#272 = CARTESIAN_POINT('',(9.399062616943,59.728538451421,-0.200703037293));
#273 = CARTESIAN_POINT('',(10.649466006661,60.227061017477,0.737099504996));
#274 = CARTESIAN_POINT('',(11.895600164358,60.511671568576,1.671700123268));
#275 = CARTESIAN_POINT('',(13.080000000000,60.600000000000,2.560000000000));
#276 = CARTESIAN_POINT('',(16.546666666667,60.600000000000,5.160000000000));
#277 = CARTESIAN_POINT('',(20.013333333333,60.600000000000,7.760000000000));
#278 = CARTESIAN_POINT('',(23.480000000000,60.600000000000,10.360000000000));
#279 = CARTESIAN_POINT('',(26.946666666667,60.600000000000,12.960000000000));
#280 = CARTESIAN_POINT('',(30.413333333333,60.600000000000,15.560000000000));
#281 = CARTESIAN_POINT('',(33.908939159876,60.598908545066,18.181704369907));
#282 = CARTESIAN_POINT('',(35.123093271586,60.502678971111,19.092319953689));
#283 = CARTESIAN_POINT('',(36.370129568784,60.208223908548,20.027597176588));
#284 = CARTESIAN_POINT('',(37.619884751329,59.699290488833,20.964913563496));
#285 = CARTESIAN_POINT('',(38.837557702262,58.969243104025,21.878168276696));
#286 = CARTESIAN_POINT('',(39.986244743733,58.023276970886,22.739683557800));
#287 = CARTESIAN_POINT('',(41.030206251799,56.879318264369,23.522654688849));
#288 = CARTESIAN_POINT('',(41.938334884134,55.567216050434,24.203751163101));
#289 = CARTESIAN_POINT('',(42.687164724253,54.126219541349,24.765373543190));
#290 = CARTESIAN_POINT('',(43.262830761137,52.601171728822,25.197123070853));
#291 = CARTESIAN_POINT('',(43.661648813982,51.038167491674,25.496236610486));
#292 = CARTESIAN_POINT('',(43.889337254861,49.480499794553,25.667002941145));
#293 = CARTESIAN_POINT('',(43.960000000000,48.000000000000,25.720000000000));
#294 = CARTESIAN_POINT('',(43.960000000000,43.200000000000,25.720000000000));
#295 = CARTESIAN_POINT('',(43.960000000000,38.400000000000,25.720000000000));
#296 = CARTESIAN_POINT('',(43.960000000000,33.600000000000,25.720000000000));
#297 = CARTESIAN_POINT('',(43.960000000000,28.800000000000,25.720000000000));
#298 = CARTESIAN_POINT('',(43.960000000000,24.000000000000,25.720000000000));
#299 = CARTESIAN_POINT('',(43.960000000000,19.200000000000,25.720000000000));
#300 = CARTESIAN_POINT('',(43.960000000000,14.400000000000,25.720000000000));
#301 = CARTESIAN_POINT('',(43.960000000000,9.600000000000,25.720000000000));
#302 = CARTESIAN_POINT('',(43.960000000000,4.800000000000,25.720000000000));
#303 = CARTESIAN_POINT('',(43.960000000000,0.000000000000,25.720000000000));
#304 = CARTESIAN_POINT('',(-3.000000000000,0.000000000000,-5.000000000000));
#305 = CARTESIAN_POINT('',(-3.000000000000,4.800000000000,-5.000000000000));
#306 = CARTESIAN_POINT('',(-3.000000000000,9.600000000000,-5.000000000000));
#307 = CARTESIAN_POINT('',(-3.000000000000,14.400000000000,-5.000000000000));
#308 = CARTESIAN_POINT('',(-3.000000000000,19.200000000000,-5.000000000000));
#309 = CARTESIAN_POINT('',(-3.000000000000,24.000000000000,-5.000000000000));
#310 = CARTESIAN_POINT('',(-3.000000000000,28.800000000000,-5.000000000000));
#311 = CARTESIAN_POINT('',(-3.000000000000,33.600000000000,-5.000000000000));
#312 = CARTESIAN_POINT('',(-3.000000000000,38.400000000000,-5.000000000000));
#313 = CARTESIAN_POINT('',(-3.000000000000,43.200000000000,-5.000000000000));
#314 = CARTESIAN_POINT('',(-2.992141524473,48.325565548600,-4.994106143354));
#315 = CARTESIAN_POINT('',(-2.857605241538,50.430192547669,-4.893203931154));
#316 = CARTESIAN_POINT('',(-2.501483694338,52.584943673613,-4.626112770754));
#317 = CARTESIAN_POINT('',(-1.907149998001,54.736611334507,-4.180362498501));
#318 = CARTESIAN_POINT('',(-1.068950161889,56.824523215002,-3.551712621417));
#319 = CARTESIAN_POINT('',(0.005529204027,58.785101050707,-2.745853096980));
#320 = CARTESIAN_POINT('',(1.294709291673,60.557569338830,-1.778968031245));
#321 = CARTESIAN_POINT('',(2.764166289913,62.089863203505,-0.676875282565));
#322 = CARTESIAN_POINT('',(4.369620050644,63.343602913985,0.527215037983));
#323 = CARTESIAN_POINT('',(6.061237246836,64.297169160796,1.795927935127));
#324 = CARTESIAN_POINT('',(7.788405240111,64.946388598289,3.091303930083));
#325 = CARTESIAN_POINT('',(9.504086885353,65.302939929101,4.378065164015));
#326 = CARTESIAN_POINT('',(10.920000000000,65.400000000000,5.440000000000));
#327 = CARTESIAN_POINT('',(14.386666666667,65.400000000000,8.040000000000));
#328 = CARTESIAN_POINT('',(17.853333333333,65.400000000000,10.640000000000));
#329 = CARTESIAN_POINT('',(21.320000000000,65.400000000000,13.240000000000));
#330 = CARTESIAN_POINT('',(24.786666666667,65.400000000000,15.840000000000));
#331 = CARTESIAN_POINT('',(28.253333333333,65.400000000000,18.440000000000));
#332 = CARTESIAN_POINT('',(31.980452438880,65.390176905591,21.235339329160));
#333 = CARTESIAN_POINT('',(33.664154038135,65.222006551923,22.498115528602));
#334 = CARTESIAN_POINT('',(35.387954938891,64.776854617923,23.790966204168));
#335 = CARTESIAN_POINT('',(37.109289067606,64.033937497501,25.081966800704));
#336 = CARTESIAN_POINT('',(38.779618572002,62.986187702361,26.334713929001));
#337 = CARTESIAN_POINT('',(40.348080840565,61.643088494967,27.511060630424));
#338 = CARTESIAN_POINT('',(41.766055471064,60.031613385408,28.574541603298));
#339 = CARTESIAN_POINT('',(42.991890562804,58.194792137608,29.493917922103));
#340 = CARTESIAN_POINT('',(43.994882331188,56.187974936695,30.246161748391));
#341 = CARTESIAN_POINT('',(44.757735328637,54.073453441455,30.818301496478));
#342 = CARTESIAN_POINT('',(45.277110878631,51.914493449861,31.207833158973));
#343 = CARTESIAN_POINT('',(45.562351943281,49.769891393309,31.421763957460));
#344 = CARTESIAN_POINT('',(45.640000000000,48.000000000000,31.480000000000));
#345 = CARTESIAN_POINT('',(45.640000000000,43.200000000000,31.480000000000));
#346 = CARTESIAN_POINT('',(45.640000000000,38.400000000000,31.480000000000));
#347 = CARTESIAN_POINT('',(45.640000000000,33.600000000000,31.480000000000));
#348 = CARTESIAN_POINT('',(45.640000000000,28.800000000000,31.480000000000));
#349 = CARTESIAN_POINT('',(45.640000000000,24.000000000000,31.480000000000));
#350 = CARTESIAN_POINT('',(45.640000000000,19.200000000000,31.480000000000));
#351 = CARTESIAN_POINT('',(45.640000000000,14.400000000000,31.480000000000));
#352 = CARTESIAN_POINT('',(45.640000000000,9.600000000000,31.480000000000));
#353 = CARTESIAN_POINT('',(45.640000000000,4.800000000000,31.480000000000));
#354 = CARTESIAN_POINT('',(45.640000000000,0.000000000000,31.480000000000));
#355 = B_SPLINE_SURFACE_WITH_KNOTS('',1,1,((#253,#254,#255,#256,#257,#258,#259,#260,#261,#262,#263,#264,#265,#266,#267,#268,#269,#270,#271,#272,#273,#274,#275,#276,#277,#278,#279,#280,#281,#282,#283,#284,#285,#286,#287,#288,#289,#290,#291,#292,#293,#294,#295,#296,#297,#298,#299,#300,#301,#302,#303),(#304,#305,#306,#307,#308,#309,#310,#311,#312,#313,#314,#315,#316,#317,#318,#319,#320,#321,#322,#323,#324,#325,#326,#327,#328,#329,#330,#331,#332,#333,#334,#335,#336,#337,#338,#339,#340,#341,#342,#343,#344,#345,#346,#347,#348,#349,#350,#351,#352,#353,#354)),.UNSPECIFIED.,.F.,.F.,.F.,(2,2),(2,1,1,1,1,1,1,1,1,1,1,1,1,1,1,1,1,1,1,1,1,1,1,1,1,1,1,1,1,1,1,1,1,1,1,1,1,1,1,1,1,1,1,1,1,1,1,1,1,1,2),(0.000000000000,1.000000000000),(0.000000000000,0.020000000000,0.040000000000,0.060000000000,0.080000000000,0.100000000000,0.120000000000,0.140000000000,0.160000000000,0.180000000000,0.200000000000,0.220000000000,0.240000000000,0.260000000000,0.280000000000,0.300000000000,0.320000000000,0.340000000000,0.360000000000,0.380000000000,0.400000000000,0.420000000000,0.440000000000,0.460000000000,0.480000000000,0.500000000000,0.520000000000,0.540000000000,0.560000000000,0.580000000000,0.600000000000,0.620000000000,0.640000000000,0.660000000000,0.680000000000,0.700000000000,0.720000000000,0.740000000000,0.760000000000,0.780000000000,0.800000000000,0.820000000000,0.840000000000,0.860000000000,0.880000000000,0.900000000000,0.920000000000,0.940000000000,0.960000000000,0.980000000000,1.000000000000),.UNSPECIFIED.);
#356 = CARTESIAN_POINT('',(-3.000000000000,0.000000000000,-5.000000000000));
#357 = VERTEX_POINT('',#356);
#358 = CARTESIAN_POINT('',(3.000000000000,0.000000000000,-5.000000000000));
#359 = DIRECTION('',(-1.000000000000,0.000000000000,0.000000000000));
#360 = VECTOR('',#359,1.0);
#361 = LINE('',#358,#360);
#362 = EDGE_CURVE('',#125,#357,#361,.T.);
#363 = ORIENTED_EDGE('',*,*,#362,.T.);
#364 = CARTESIAN_POINT('',(45.640000000000,0.000000000000,31.480000000000));
#365 = VERTEX_POINT('',#364);
#366 = CARTESIAN_POINT('',(-3.000000000000,0.000000000000,-5.000000000000));
#367 = CARTESIAN_POINT('',(-3.000000000000,4.800000000000,-5.000000000000));
#368 = CARTESIAN_POINT('',(-3.000000000000,9.600000000000,-5.000000000000));
#369 = CARTESIAN_POINT('',(-3.000000000000,14.400000000000,-5.000000000000));
#370 = CARTESIAN_POINT('',(-3.000000000000,19.200000000000,-5.000000000000));
#371 = CARTESIAN_POINT('',(-3.000000000000,24.000000000000,-5.000000000000));
#372 = CARTESIAN_POINT('',(-3.000000000000,28.800000000000,-5.000000000000));
#373 = CARTESIAN_POINT('',(-3.000000000000,33.600000000000,-5.000000000000));
#374 = CARTESIAN_POINT('',(-3.000000000000,38.400000000000,-5.000000000000));
#375 = CARTESIAN_POINT('',(-3.000000000000,43.200000000000,-5.000000000000));
#376 = CARTESIAN_POINT('',(-2.992141524473,48.325565548600,-4.994106143354));
#377 = CARTESIAN_POINT('',(-2.857605241538,50.430192547669,-4.893203931154));
#378 = CARTESIAN_POINT('',(-2.501483694338,52.584943673613,-4.626112770754));
#379 = CARTESIAN_POINT('',(-1.907149998001,54.736611334507,-4.180362498501));
#380 = CARTESIAN_POINT('',(-1.068950161889,56.824523215002,-3.551712621417));
#381 = CARTESIAN_POINT('',(0.005529204027,58.785101050707,-2.745853096980));
#382 = CARTESIAN_POINT('',(1.294709291673,60.557569338830,-1.778968031245));
#383 = CARTESIAN_POINT('',(2.764166289913,62.089863203505,-0.676875282565));
#384 = CARTESIAN_POINT('',(4.369620050644,63.343602913985,0.527215037983));
#385 = CARTESIAN_POINT('',(6.061237246836,64.297169160796,1.795927935127));
#386 = CARTESIAN_POINT('',(7.788405240111,64.946388598289,3.091303930083));
#387 = CARTESIAN_POINT('',(9.504086885353,65.302939929101,4.378065164015));
#388 = CARTESIAN_POINT('',(10.920000000000,65.400000000000,5.440000000000));
#389 = CARTESIAN_POINT('',(14.386666666667,65.400000000000,8.040000000000));
#390 = CARTESIAN_POINT('',(17.853333333333,65.400000000000,10.640000000000));
#391 = CARTESIAN_POINT('',(21.320000000000,65.400000000000,13.240000000000));
#392 = CARTESIAN_POINT('',(24.786666666667,65.400000000000,15.840000000000));
#393 = CARTESIAN_POINT('',(28.253333333333,65.400000000000,18.440000000000));
#394 = CARTESIAN_POINT('',(31.980452438880,65.390176905591,21.235339329160));
#395 = CARTESIAN_POINT('',(33.664154038135,65.222006551923,22.498115528602));
#396 = CARTESIAN_POINT('',(35.387954938891,64.776854617923,23.790966204168));
#397 = CARTESIAN_POINT('',(37.109289067606,64.033937497501,25.081966800704));
#398 = CARTESIAN_POINT('',(38.779618572002,62.986187702361,26.334713929001));
#399 = CARTESIAN_POINT('',(40.348080840565,61.643088494967,27.511060630424));
#400 = CARTESIAN_POINT('',(41.766055471064,60.031613385408,28.574541603298));
#401 = CARTESIAN_POINT('',(42.991890562804,58.194792137608,29.493917922103));
#402 = CARTESIAN_POINT('',(43.994882331188,56.187974936695,30.246161748391));
#403 = CARTESIAN_POINT('',(44.757735328637,54.073453441455,30.818301496478));
#404 = CARTESIAN_POINT('',(45.277110878631,51.914493449861,31.207833158973));
#405 = CARTESIAN_POINT('',(45.562351943281,49.769891393309,31.421763957460));
#406 = CARTESIAN_POINT('',(45.640000000000,48.000000000000,31.480000000000));
#407 = CARTESIAN_POINT('',(45.640000000000,43.200000000000,31.480000000000));
#408 = CARTESIAN_POINT('',(45.640000000000,38.400000000000,31.480000000000));
#409 = CARTESIAN_POINT('',(45.640000000000,33.600000000000,31.480000000000));
#410 = CARTESIAN_POINT('',(45.640000000000,28.800000000000,31.480000000000));
#411 = CARTESIAN_POINT('',(45.640000000000,24.000000000000,31.480000000000));
#412 = CARTESIAN_POINT('',(45.640000000000,19.200000000000,31.480000000000));
#413 = CARTESIAN_POINT('',(45.640000000000,14.400000000000,31.480000000000));
#414 = CARTESIAN_POINT('',(45.640000000000,9.600000000000,31.480000000000));
#415 = CARTESIAN_POINT('',(45.640000000000,4.800000000000,31.480000000000));
#416 = CARTESIAN_POINT('',(45.640000000000,0.000000000000,31.480000000000));
#417 = B_SPLINE_CURVE_WITH_KNOTS('',1,(#366,#367,#368,#369,#370,#371,#372,#373,#374,#375,#376,#377,#378,#379,#380,#381,#382,#383,#384,#385,#386,#387,#388,#389,#390,#391,#392,#393,#394,#395,#396,#397,#398,#399,#400,#401,#402,#403,#404,#405,#406,#407,#408,#409,#410,#411,#412,#413,#414,#415,#416),.UNSPECIFIED.,.F.,.F.,(2,1,1,1,1,1,1,1,1,1,1,1,1,1,1,1,1,1,1,1,1,1,1,1,1,1,1,1,1,1,1,1,1,1,1,1,1,1,1,1,1,1,1,1,1,1,1,1,1,1,2),(0.000000000000,0.020000000000,0.040000000000,0.060000000000,0.080000000000,0.100000000000,0.120000000000,0.140000000000,0.160000000000,0.180000000000,0.200000000000,0.220000000000,0.240000000000,0.260000000000,0.280000000000,0.300000000000,0.320000000000,0.340000000000,0.360000000000,0.380000000000,0.400000000000,0.420000000000,0.440000000000,0.460000000000,0.480000000000,0.500000000000,0.520000000000,0.540000000000,0.560000000000,0.580000000000,0.600000000000,0.620000000000,0.640000000000,0.660000000000,0.680000000000,0.700000000000,0.720000000000,0.740000000000,0.760000000000,0.780000000000,0.800000000000,0.820000000000,0.840000000000,0.860000000000,0.880000000000,0.900000000000,0.920000000000,0.940000000000,0.960000000000,0.980000000000,1.000000000000),.UNSPECIFIED.);
#418 = EDGE_CURVE('',#357,#365,#417,.T.);
#419 = ORIENTED_EDGE('',*,*,#418,.T.);
#420 = CARTESIAN_POINT('',(43.960000000000,0.000000000000,25.720000000000));
#421 = DIRECTION('',(0.280000000000,0.000000000000,0.960000000000));
#422 = VECTOR('',#421,1.0);
#423 = LINE('',#420,#422);
#424 = EDGE_CURVE('',#133,#365,#423,.T.);
#425 = ORIENTED_EDGE('',*,*,#424,.F.);
#426 = ORIENTED_EDGE('',*,*,#186,.F.);
#427 = EDGE_LOOP('',(#363,#419,#425,#426));
#428 = FACE_OUTER_BOUND('',#427,.T.);
#429 = ADVANCED_FACE('',(#428) ,#355,.T.);
#430 = CARTESIAN_POINT('',(-3.000000000000,0.000000000000,-5.000000000000));
#431 = CARTESIAN_POINT('',(-3.000000000000,4.800000000000,-5.000000000000));
#432 = CARTESIAN_POINT('',(-3.000000000000,9.600000000000,-5.000000000000));
#433 = CARTESIAN_POINT('',(-3.000000000000,14.400000000000,-5.000000000000));
#434 = CARTESIAN_POINT('',(-3.000000000000,19.200000000000,-5.000000000000));
#435 = CARTESIAN_POINT('',(-3.000000000000,24.000000000000,-5.000000000000));
#436 = CARTESIAN_POINT('',(-3.000000000000,28.800000000000,-5.000000000000));
#437 = CARTESIAN_POINT('',(-3.000000000000,33.600000000000,-5.000000000000));
#438 = CARTESIAN_POINT('',(-3.000000000000,38.400000000000,-5.000000000000));
#439 = CARTESIAN_POINT('',(-3.000000000000,43.200000000000,-5.000000000000));
#440 = CARTESIAN_POINT('',(-2.992141524473,48.325565548600,-4.994106143354));
#441 = CARTESIAN_POINT('',(-2.857605241538,50.430192547669,-4.893203931154));
#442 = CARTESIAN_POINT('',(-2.501483694338,52.584943673613,-4.626112770754));
#443 = CARTESIAN_POINT('',(-1.907149998001,54.736611334507,-4.180362498501));
#444 = CARTESIAN_POINT('',(-1.068950161889,56.824523215002,-3.551712621417));
#445 = CARTESIAN_POINT('',(0.005529204027,58.785101050707,-2.745853096980));
#446 = CARTESIAN_POINT('',(1.294709291673,60.557569338830,-1.778968031245));
#447 = CARTESIAN_POINT('',(2.764166289913,62.089863203505,-0.676875282565));
#448 = CARTESIAN_POINT('',(4.369620050644,63.343602913985,0.527215037983));
#449 = CARTESIAN_POINT('',(6.061237246836,64.297169160796,1.795927935127));
#450 = CARTESIAN_POINT('',(7.788405240111,64.946388598289,3.091303930083));
#451 = CARTESIAN_POINT('',(9.504086885353,65.302939929101,4.378065164015));
#452 = CARTESIAN_POINT('',(10.920000000000,65.400000000000,5.440000000000));
#453 = CARTESIAN_POINT('',(14.386666666667,65.400000000000,8.040000000000));
#454 = CARTESIAN_POINT('',(17.853333333333,65.400000000000,10.640000000000));
#455 = CARTESIAN_POINT('',(21.320000000000,65.400000000000,13.240000000000));
#456 = CARTESIAN_POINT('',(24.786666666667,65.400000000000,15.840000000000));
#457 = CARTESIAN_POINT('',(28.253333333333,65.400000000000,18.440000000000));
#458 = CARTESIAN_POINT('',(31.980452438880,65.390176905591,21.235339329160));
#459 = CARTESIAN_POINT('',(33.664154038135,65.222006551923,22.498115528602));
#460 = CARTESIAN_POINT('',(35.387954938891,64.776854617923,23.790966204168));
#461 = CARTESIAN_POINT('',(37.109289067606,64.033937497501,25.081966800704));
#462 = CARTESIAN_POINT('',(38.779618572002,62.986187702361,26.334713929001));
#463 = CARTESIAN_POINT('',(40.348080840565,61.643088494967,27.511060630424));
#464 = CARTESIAN_POINT('',(41.766055471064,60.031613385408,28.574541603298));
#465 = CARTESIAN_POINT('',(42.991890562804,58.194792137608,29.493917922103));
#466 = CARTESIAN_POINT('',(43.994882331188,56.187974936695,30.246161748391));
#467 = CARTESIAN_POINT('',(44.757735328637,54.073453441455,30.818301496478));
#468 = CARTESIAN_POINT('',(45.277110878631,51.914493449861,31.207833158973));
#469 = CARTESIAN_POINT('',(45.562351943281,49.769891393309,31.421763957460));
#470 = CARTESIAN_POINT('',(45.640000000000,48.000000000000,31.480000000000));
#471 = CARTESIAN_POINT('',(45.640000000000,43.200000000000,31.480000000000));
#472 = CARTESIAN_POINT('',(45.640000000000,38.400000000000,31.480000000000));
#473 = CARTESIAN_POINT('',(45.640000000000,33.600000000000,31.480000000000));
#474 = CARTESIAN_POINT('',(45.640000000000,28.800000000000,31.480000000000));
#475 = CARTESIAN_POINT('',(45.640000000000,24.000000000000,31.480000000000));
#476 = CARTESIAN_POINT('',(45.640000000000,19.200000000000,31.480000000000));
#477 = CARTESIAN_POINT('',(45.640000000000,14.400000000000,31.480000000000));
#478 = CARTESIAN_POINT('',(45.640000000000,9.600000000000,31.480000000000));
#479 = CARTESIAN_POINT('',(45.640000000000,4.800000000000,31.480000000000));
#480 = CARTESIAN_POINT('',(45.640000000000,0.000000000000,31.480000000000));
#481 = CARTESIAN_POINT('',(-3.000000000000,0.000000000000,5.000000000000));
#482 = CARTESIAN_POINT('',(-3.000000000000,4.800000000000,5.000000000000));
#483 = CARTESIAN_POINT('',(-3.000000000000,9.600000000000,5.000000000000));
#484 = CARTESIAN_POINT('',(-3.000000000000,14.400000000000,5.000000000000));
#485 = CARTESIAN_POINT('',(-3.000000000000,19.200000000000,5.000000000000));
#486 = CARTESIAN_POINT('',(-3.000000000000,24.000000000000,5.000000000000));
#487 = CARTESIAN_POINT('',(-3.000000000000,28.800000000000,5.000000000000));
#488 = CARTESIAN_POINT('',(-3.000000000000,33.600000000000,5.000000000000));
#489 = CARTESIAN_POINT('',(-3.000000000000,38.400000000000,5.000000000000));
#490 = CARTESIAN_POINT('',(-3.000000000000,43.200000000000,5.000000000000));
#491 = CARTESIAN_POINT('',(-3.000873163947,47.963826050156,4.999345127039));
#492 = CARTESIAN_POINT('',(-2.938277660727,49.334785099935,5.046291754455));
#493 = CARTESIAN_POINT('',(-2.732852984963,50.744591532821,5.200360261278));
#494 = CARTESIAN_POINT('',(-2.372502989332,52.159417090324,5.470622758001));
#495 = CARTESIAN_POINT('',(-1.852005563552,53.540053106034,5.860995827336));
#496 = CARTESIAN_POINT('',(-1.174659271893,54.844732149407,6.369005546081));
#497 = CARTESIAN_POINT('',(-0.352995587287,56.032804933728,6.985253309535));
#498 = CARTESIAN_POINT('',(0.591742377088,57.068682455584,7.693806782816));
#499 = CARTESIAN_POINT('',(1.631375445990,57.925294153149,8.473531584493));
#500 = CARTESIAN_POINT('',(2.733518959469,58.586380774077,9.300139219602));
#501 = CARTESIAN_POINT('',(3.864731198298,59.047229122275,10.148548398724));
#502 = CARTESIAN_POINT('',(4.993478484109,59.313854478444,10.995108863082));
#503 = CARTESIAN_POINT('',(6.120000000000,59.400000000000,11.840000000000));
#504 = CARTESIAN_POINT('',(9.586666666667,59.400000000000,14.440000000000));
#505 = CARTESIAN_POINT('',(13.053333333333,59.400000000000,17.040000000000));
#506 = CARTESIAN_POINT('',(16.520000000000,59.400000000000,19.640000000000));
#507 = CARTESIAN_POINT('',(19.986666666667,59.400000000000,22.240000000000));
#508 = CARTESIAN_POINT('',(23.453333333333,59.400000000000,24.840000000000));
#509 = CARTESIAN_POINT('',(26.891060840124,59.401091454934,27.418295630093));
#510 = CARTESIAN_POINT('',(27.987828079948,59.322847075909,28.240871059961));
#511 = CARTESIAN_POINT('',(29.115673226257,59.066066231204,29.086754919693));
#512 = CARTESIAN_POINT('',(30.247533672259,58.615628736666,29.935650254195));
#513 = CARTESIAN_POINT('',(31.352042484827,57.965006954440,30.764031863620));
#514 = CARTESIAN_POINT('',(32.395785719525,57.118324089866,31.546839289644));
#515 = CARTESIAN_POINT('',(33.346243946983,56.091244484109,32.259682960237));
#516 = CARTESIAN_POINT('',(34.174945964467,54.910322028640,32.881209473350));
#517 = CARTESIAN_POINT('',(34.860235322519,53.610780692512,33.395176491889));
#518 = CARTESIAN_POINT('',(35.389104619262,52.233101300663,33.791828464446));
#519 = CARTESIAN_POINT('',(35.757783297820,50.819086002127,34.068337473365));
#520 = CARTESIAN_POINT('',(35.971083582755,49.408151894864,34.228312687067));
#521 = CARTESIAN_POINT('',(36.040000000000,48.000000000000,34.280000000000));
#522 = CARTESIAN_POINT('',(36.040000000000,43.200000000000,34.280000000000));
#523 = CARTESIAN_POINT('',(36.040000000000,38.400000000000,34.280000000000));
#524 = CARTESIAN_POINT('',(36.040000000000,33.600000000000,34.280000000000));
#525 = CARTESIAN_POINT('',(36.040000000000,28.800000000000,34.280000000000));
#526 = CARTESIAN_POINT('',(36.040000000000,24.000000000000,34.280000000000));
#527 = CARTESIAN_POINT('',(36.040000000000,19.200000000000,34.280000000000));
#528 = CARTESIAN_POINT('',(36.040000000000,14.400000000000,34.280000000000));
#529 = CARTESIAN_POINT('',(36.040000000000,9.600000000000,34.280000000000));
#530 = CARTESIAN_POINT('',(36.040000000000,4.800000000000,34.280000000000));
#531 = CARTESIAN_POINT('',(36.040000000000,0.000000000000,34.280000000000));
#532 = B_SPLINE_SURFACE_WITH_KNOTS('',1,1,((#430,#431,#432,#433,#434,#435,#436,#437,#438,#439,#440,#441,#442,#443,#444,#445,#446,#447,#448,#449,#450,#451,#452,#453,#454,#455,#456,#457,#458,#459,#460,#461,#462,#463,#464,#465,#466,#467,#468,#469,#470,#471,#472,#473,#474,#475,#476,#477,#478,#479,#480),(#481,#482,#483,#484,#485,#486,#487,#488,#489,#490,#491,#492,#493,#494,#495,#496,#497,#498,#499,#500,#501,#502,#503,#504,#505,#506,#507,#508,#509,#510,#511,#512,#513,#514,#515,#516,#517,#518,#519,#520,#521,#522,#523,#524,#525,#526,#527,#528,#529,#530,#531)),.UNSPECIFIED.,.F.,.F.,.F.,(2,2),(2,1,1,1,1,1,1,1,1,1,1,1,1,1,1,1,1,1,1,1,1,1,1,1,1,1,1,1,1,1,1,1,1,1,1,1,1,1,1,1,1,1,1,1,1,1,1,1,1,1,2),(0.000000000000,1.000000000000),(0.000000000000,0.020000000000,0.040000000000,0.060000000000,0.080000000000,0.100000000000,0.120000000000,0.140000000000,0.160000000000,0.180000000000,0.200000000000,0.220000000000,0.240000000000,0.260000000000,0.280000000000,0.300000000000,0.320000000000,0.340000000000,0.360000000000,0.380000000000,0.400000000000,0.420000000000,0.440000000000,0.460000000000,0.480000000000,0.500000000000,0.520000000000,0.540000000000,0.560000000000,0.580000000000,0.600000000000,0.620000000000,0.640000000000,0.660000000000,0.680000000000,0.700000000000,0.720000000000,0.740000000000,0.760000000000,0.780000000000,0.800000000000,0.820000000000,0.840000000000,0.860000000000,0.880000000000,0.900000000000,0.920000000000,0.940000000000,0.960000000000,0.980000000000,1.000000000000),.UNSPECIFIED.);
#533 = CARTESIAN_POINT('',(-3.000000000000,0.000000000000,5.000000000000));
#534 = VERTEX_POINT('',#533);
#535 = CARTESIAN_POINT('',(-3.000000000000,0.000000000000,-5.000000000000));
#536 = DIRECTION('',(0.000000000000,0.000000000000,1.000000000000));
#537 = VECTOR('',#536,1.0);
#538 = LINE('',#535,#537);
#539 = EDGE_CURVE('',#357,#534,#538,.T.);
#540 = ORIENTED_EDGE('',*,*,#539,.T.);
#541 = CARTESIAN_POINT('',(36.040000000000,0.000000000000,34.280000000000));
#542 = VERTEX_POINT('',#541);
#543 = CARTESIAN_POINT('',(-3.000000000000,0.000000000000,5.000000000000));
#544 = CARTESIAN_POINT('',(-3.000000000000,4.800000000000,5.000000000000));
#545 = CARTESIAN_POINT('',(-3.000000000000,9.600000000000,5.000000000000));
#546 = CARTESIAN_POINT('',(-3.000000000000,14.400000000000,5.000000000000));
#547 = CARTESIAN_POINT('',(-3.000000000000,19.200000000000,5.000000000000));
#548 = CARTESIAN_POINT('',(-3.000000000000,24.000000000000,5.000000000000));
#549 = CARTESIAN_POINT('',(-3.000000000000,28.800000000000,5.000000000000));
#550 = CARTESIAN_POINT('',(-3.000000000000,33.600000000000,5.000000000000));
#551 = CARTESIAN_POINT('',(-3.000000000000,38.400000000000,5.000000000000));
#552 = CARTESIAN_POINT('',(-3.000000000000,43.200000000000,5.000000000000));
#553 = CARTESIAN_POINT('',(-3.000873163947,47.963826050156,4.999345127039));
#554 = CARTESIAN_POINT('',(-2.938277660727,49.334785099935,5.046291754455));
#555 = CARTESIAN_POINT('',(-2.732852984963,50.744591532821,5.200360261278));
#556 = CARTESIAN_POINT('',(-2.372502989332,52.159417090324,5.470622758001));
#557 = CARTESIAN_POINT('',(-1.852005563552,53.540053106034,5.860995827336));
#558 = CARTESIAN_POINT('',(-1.174659271893,54.844732149407,6.369005546081));
#559 = CARTESIAN_POINT('',(-0.352995587287,56.032804933728,6.985253309535));
#560 = CARTESIAN_POINT('',(0.591742377088,57.068682455584,7.693806782816));
#561 = CARTESIAN_POINT('',(1.631375445990,57.925294153149,8.473531584493));
#562 = CARTESIAN_POINT('',(2.733518959469,58.586380774077,9.300139219602));
#563 = CARTESIAN_POINT('',(3.864731198298,59.047229122275,10.148548398724));
#564 = CARTESIAN_POINT('',(4.993478484109,59.313854478444,10.995108863082));
#565 = CARTESIAN_POINT('',(6.120000000000,59.400000000000,11.840000000000));
#566 = CARTESIAN_POINT('',(9.586666666667,59.400000000000,14.440000000000));
#567 = CARTESIAN_POINT('',(13.053333333333,59.400000000000,17.040000000000));
#568 = CARTESIAN_POINT('',(16.520000000000,59.400000000000,19.640000000000));
#569 = CARTESIAN_POINT('',(19.986666666667,59.400000000000,22.240000000000));
#570 = CARTESIAN_POINT('',(23.453333333333,59.400000000000,24.840000000000));
#571 = CARTESIAN_POINT('',(26.891060840124,59.401091454934,27.418295630093));
#572 = CARTESIAN_POINT('',(27.987828079948,59.322847075909,28.240871059961));
#573 = CARTESIAN_POINT('',(29.115673226257,59.066066231204,29.086754919693));
#574 = CARTESIAN_POINT('',(30.247533672259,58.615628736666,29.935650254195));
#575 = CARTESIAN_POINT('',(31.352042484827,57.965006954440,30.764031863620));
#576 = CARTESIAN_POINT('',(32.395785719525,57.118324089866,31.546839289644));
#577 = CARTESIAN_POINT('',(33.346243946983,56.091244484109,32.259682960237));
#578 = CARTESIAN_POINT('',(34.174945964467,54.910322028640,32.881209473350));
#579 = CARTESIAN_POINT('',(34.860235322519,53.610780692512,33.395176491889));
#580 = CARTESIAN_POINT('',(35.389104619262,52.233101300663,33.791828464446));
#581 = CARTESIAN_POINT('',(35.757783297820,50.819086002127,34.068337473365));
#582 = CARTESIAN_POINT('',(35.971083582755,49.408151894864,34.228312687067));
#583 = CARTESIAN_POINT('',(36.040000000000,48.000000000000,34.280000000000));
#584 = CARTESIAN_POINT('',(36.040000000000,43.200000000000,34.280000000000));
#585 = CARTESIAN_POINT('',(36.040000000000,38.400000000000,34.280000000000));
#586 = CARTESIAN_POINT('',(36.040000000000,33.600000000000,34.280000000000));
#587 = CARTESIAN_POINT('',(36.040000000000,28.800000000000,34.280000000000));
#588 = CARTESIAN_POINT('',(36.040000000000,24.000000000000,34.280000000000));
#589 = CARTESIAN_POINT('',(36.040000000000,19.200000000000,34.280000000000));
#590 = CARTESIAN_POINT('',(36.040000000000,14.400000000000,34.280000000000));
#591 = CARTESIAN_POINT('',(36.040000000000,9.600000000000,34.280000000000));
#592 = CARTESIAN_POINT('',(36.040000000000,4.800000000000,34.280000000000));
#593 = CARTESIAN_POINT('',(36.040000000000,0.000000000000,34.280000000000));
#594 = B_SPLINE_CURVE_WITH_KNOTS('',1,(#543,#544,#545,#546,#547,#548,#549,#550,#551,#552,#553,#554,#555,#556,#557,#558,#559,#560,#561,#562,#563,#564,#565,#566,#567,#568,#569,#570,#571,#572,#573,#574,#575,#576,#577,#578,#579,#580,#581,#582,#583,#584,#585,#586,#587,#588,#589,#590,#591,#592,#593),.UNSPECIFIED.,.F.,.F.,(2,1,1,1,1,1,1,1,1,1,1,1,1,1,1,1,1,1,1,1,1,1,1,1,1,1,1,1,1,1,1,1,1,1,1,1,1,1,1,1,1,1,1,1,1,1,1,1,1,1,2),(0.000000000000,0.020000000000,0.040000000000,0.060000000000,0.080000000000,0.100000000000,0.120000000000,0.140000000000,0.160000000000,0.180000000000,0.200000000000,0.220000000000,0.240000000000,0.260000000000,0.280000000000,0.300000000000,0.320000000000,0.340000000000,0.360000000000,0.380000000000,0.400000000000,0.420000000000,0.440000000000,0.460000000000,0.480000000000,0.500000000000,0.520000000000,0.540000000000,0.560000000000,0.580000000000,0.600000000000,0.620000000000,0.640000000000,0.660000000000,0.680000000000,0.700000000000,0.720000000000,0.740000000000,0.760000000000,0.780000000000,0.800000000000,0.820000000000,0.840000000000,0.860000000000,0.880000000000,0.900000000000,0.920000000000,0.940000000000,0.960000000000,0.980000000000,1.000000000000),.UNSPECIFIED.);
#595 = EDGE_CURVE('',#534,#542,#594,.T.);
#596 = ORIENTED_EDGE('',*,*,#595,.T.);
#597 = CARTESIAN_POINT('',(45.640000000000,0.000000000000,31.480000000000));
#598 = DIRECTION('',(-0.960000000000,0.000000000000,0.280000000000));
#599 = VECTOR('',#598,1.0);
#600 = LINE('',#597,#599);
#601 = EDGE_CURVE('',#365,#542,#600,.T.);
#602 = ORIENTED_EDGE('',*,*,#601,.F.);
#603 = ORIENTED_EDGE('',*,*,#418,.F.);
#604 = EDGE_LOOP('',(#540,#596,#602,#603));
#605 = FACE_OUTER_BOUND('',#604,.T.);
#606 = ADVANCED_FACE('',(#605) ,#532,.T.);
#607 = CARTESIAN_POINT('',(-3.000000000000,0.000000000000,5.000000000000));
#608 = CARTESIAN_POINT('',(-3.000000000000,4.800000000000,5.000000000000));
#609 = CARTESIAN_POINT('',(-3.000000000000,9.600000000000,5.000000000000));
#610 = CARTESIAN_POINT('',(-3.000000000000,14.400000000000,5.000000000000));
#611 = CARTESIAN_POINT('',(-3.000000000000,19.200000000000,5.000000000000));
#612 = CARTESIAN_POINT('',(-3.000000000000,24.000000000000,5.000000000000));
#613 = CARTESIAN_POINT('',(-3.000000000000,28.800000000000,5.000000000000));
#614 = CARTESIAN_POINT('',(-3.000000000000,33.600000000000,5.000000000000));
#615 = CARTESIAN_POINT('',(-3.000000000000,38.400000000000,5.000000000000));
#616 = CARTESIAN_POINT('',(-3.000000000000,43.200000000000,5.000000000000));
#617 = CARTESIAN_POINT('',(-3.000873163947,47.963826050156,4.999345127039));
#618 = CARTESIAN_POINT('',(-2.938277660727,49.334785099935,5.046291754455));
#619 = CARTESIAN_POINT('',(-2.732852984963,50.744591532821,5.200360261278));
#620 = CARTESIAN_POINT('',(-2.372502989332,52.159417090324,5.470622758001));
#621 = CARTESIAN_POINT('',(-1.852005563552,53.540053106034,5.860995827336));
#622 = CARTESIAN_POINT('',(-1.174659271893,54.844732149407,6.369005546081));
#623 = CARTESIAN_POINT('',(-0.352995587287,56.032804933728,6.985253309535));
#624 = CARTESIAN_POINT('',(0.591742377088,57.068682455584,7.693806782816));
#625 = CARTESIAN_POINT('',(1.631375445990,57.925294153149,8.473531584493));
#626 = CARTESIAN_POINT('',(2.733518959469,58.586380774077,9.300139219602));
#627 = CARTESIAN_POINT('',(3.864731198298,59.047229122275,10.148548398724));
#628 = CARTESIAN_POINT('',(4.993478484109,59.313854478444,10.995108863082));
#629 = CARTESIAN_POINT('',(6.120000000000,59.400000000000,11.840000000000));
#630 = CARTESIAN_POINT('',(9.586666666667,59.400000000000,14.440000000000));
#631 = CARTESIAN_POINT('',(13.053333333333,59.400000000000,17.040000000000));
#632 = CARTESIAN_POINT('',(16.520000000000,59.400000000000,19.640000000000));
#633 = CARTESIAN_POINT('',(19.986666666667,59.400000000000,22.240000000000));
#634 = CARTESIAN_POINT('',(23.453333333333,59.400000000000,24.840000000000));
#635 = CARTESIAN_POINT('',(26.891060840124,59.401091454934,27.418295630093));
#636 = CARTESIAN_POINT('',(27.987828079948,59.322847075909,28.240871059961));
#637 = CARTESIAN_POINT('',(29.115673226257,59.066066231204,29.086754919693));
#638 = CARTESIAN_POINT('',(30.247533672259,58.615628736666,29.935650254195));
#639 = CARTESIAN_POINT('',(31.352042484827,57.965006954440,30.764031863620));
#640 = CARTESIAN_POINT('',(32.395785719525,57.118324089866,31.546839289644));
#641 = CARTESIAN_POINT('',(33.346243946983,56.091244484109,32.259682960237));
#642 = CARTESIAN_POINT('',(34.174945964467,54.910322028640,32.881209473350));
#643 = CARTESIAN_POINT('',(34.860235322519,53.610780692512,33.395176491889));
#644 = CARTESIAN_POINT('',(35.389104619262,52.233101300663,33.791828464446));
#645 = CARTESIAN_POINT('',(35.757783297820,50.819086002127,34.068337473365));
#646 = CARTESIAN_POINT('',(35.971083582755,49.408151894864,34.228312687067));
#647 = CARTESIAN_POINT('',(36.040000000000,48.000000000000,34.280000000000));
#648 = CARTESIAN_POINT('',(36.040000000000,43.200000000000,34.280000000000));
#649 = CARTESIAN_POINT('',(36.040000000000,38.400000000000,34.280000000000));
#650 = CARTESIAN_POINT('',(36.040000000000,33.600000000000,34.280000000000));
#651 = CARTESIAN_POINT('',(36.040000000000,28.800000000000,34.280000000000));
#652 = CARTESIAN_POINT('',(36.040000000000,24.000000000000,34.280000000000));
#653 = CARTESIAN_POINT('',(36.040000000000,19.200000000000,34.280000000000));
#654 = CARTESIAN_POINT('',(36.040000000000,14.400000000000,34.280000000000));
#655 = CARTESIAN_POINT('',(36.040000000000,9.600000000000,34.280000000000));
#656 = CARTESIAN_POINT('',(36.040000000000,4.800000000000,34.280000000000));
#657 = CARTESIAN_POINT('',(36.040000000000,0.000000000000,34.280000000000));
#658 = CARTESIAN_POINT('',(3.000000000000,0.000000000000,5.000000000000));
#659 = CARTESIAN_POINT('',(3.000000000000,4.800000000000,5.000000000000));
#660 = CARTESIAN_POINT('',(3.000000000000,9.600000000000,5.000000000000));
#661 = CARTESIAN_POINT('',(3.000000000000,14.400000000000,5.000000000000));
#662 = CARTESIAN_POINT('',(3.000000000000,19.200000000000,5.000000000000));
#663 = CARTESIAN_POINT('',(3.000000000000,24.000000000000,5.000000000000));
#664 = CARTESIAN_POINT('',(3.000000000000,28.800000000000,5.000000000000));
#665 = CARTESIAN_POINT('',(3.000000000000,33.600000000000,5.000000000000));
#666 = CARTESIAN_POINT('',(3.000000000000,38.400000000000,5.000000000000));
#667 = CARTESIAN_POINT('',(3.000000000000,43.200000000000,5.000000000000));
#668 = CARTESIAN_POINT('',(2.992141524473,47.674434451400,4.994106143354));
#669 = CARTESIAN_POINT('',(2.997184403922,48.458459141748,4.997888302942));
#670 = CARTESIAN_POINT('',(3.082051582537,49.272309820188,5.061538686903));
#671 = CARTESIAN_POINT('',(3.255214617602,50.097661694978,5.191410963202));
#672 = CARTESIAN_POINT('',(3.521550115117,50.912477018859,5.391162586338));
#673 = CARTESIAN_POINT('',(3.881189947372,51.692437028367,5.660892460529));
#674 = CARTESIAN_POINT('',(4.328840509545,52.412993409648,5.996630382159));
#675 = CARTESIAN_POINT('',(4.853803246828,53.051737857247,6.390352435121));
#676 = CARTESIAN_POINT('',(5.440779762268,53.590647144480,6.830584821701));
#677 = CARTESIAN_POINT('',(6.071344329576,54.017750064702,7.303508247182));
#678 = CARTESIAN_POINT('',(6.725791964848,54.327901541463,7.794343973636));
#679 = CARTESIAN_POINT('',(7.384991763113,54.522586117919,8.288743822335));
#680 = CARTESIAN_POINT('',(8.280000000000,54.600000000000,8.960000000000));
#681 = CARTESIAN_POINT('',(11.746666666667,54.600000000000,11.560000000000));
#682 = CARTESIAN_POINT('',(15.213333333333,54.600000000000,14.160000000000));
#683 = CARTESIAN_POINT('',(18.680000000000,54.600000000000,16.760000000000));
#684 = CARTESIAN_POINT('',(22.146666666667,54.600000000000,19.360000000000));
#685 = CARTESIAN_POINT('',(25.613333333333,54.600000000000,21.960000000000));
#686 = CARTESIAN_POINT('',(28.819547561120,54.609823094409,24.364660670840));
#687 = CARTESIAN_POINT('',(29.446767313398,54.603519495097,24.835075485049));
#688 = CARTESIAN_POINT('',(30.097847856150,54.497435521829,25.323385892113));
#689 = CARTESIAN_POINT('',(30.758129355982,54.280981727997,25.818597016987));
#690 = CARTESIAN_POINT('',(31.409981615087,53.948062356104,26.307486211315));
#691 = CARTESIAN_POINT('',(32.033949622694,53.498512565785,26.775462217020));
#692 = CARTESIAN_POINT('',(32.610394727718,52.938949363069,27.207796045789));
#693 = CARTESIAN_POINT('',(33.121390285798,52.282745941465,27.591042714348));
#694 = CARTESIAN_POINT('',(33.552517715584,51.549025297166,27.914388286688));
#695 = CARTESIAN_POINT('',(33.894200051762,50.760819588030,28.170650038821));
#696 = CARTESIAN_POINT('',(34.142321233171,49.942760043940,28.356740924878));
#697 = CARTESIAN_POINT('',(34.298068894335,49.118760296108,28.473551670751));
#698 = CARTESIAN_POINT('',(34.360000000000,48.000000000000,28.520000000000));
#699 = CARTESIAN_POINT('',(34.360000000000,43.200000000000,28.520000000000));
#700 = CARTESIAN_POINT('',(34.360000000000,38.400000000000,28.520000000000));
#701 = CARTESIAN_POINT('',(34.360000000000,33.600000000000,28.520000000000));
#702 = CARTESIAN_POINT('',(34.360000000000,28.800000000000,28.520000000000));
#703 = CARTESIAN_POINT('',(34.360000000000,24.000000000000,28.520000000000));
#704 = CARTESIAN_POINT('',(34.360000000000,19.200000000000,28.520000000000));
#705 = CARTESIAN_POINT('',(34.360000000000,14.400000000000,28.520000000000));
#706 = CARTESIAN_POINT('',(34.360000000000,9.600000000000,28.520000000000));
#707 = CARTESIAN_POINT('',(34.360000000000,4.800000000000,28.520000000000));
#708 = CARTESIAN_POINT('',(34.360000000000,0.000000000000,28.520000000000));
#709 = B_SPLINE_SURFACE_WITH_KNOTS('',1,1,((#607,#608,#609,#610,#611,#612,#613,#614,#615,#616,#617,#618,#619,#620,#621,#622,#623,#624,#625,#626,#627,#628,#629,#630,#631,#632,#633,#634,#635,#636,#637,#638,#639,#640,#641,#642,#643,#644,#645,#646,#647,#648,#649,#650,#651,#652,#653,#654,#655,#656,#657),(#658,#659,#660,#661,#662,#663,#664,#665,#666,#667,#668,#669,#670,#671,#672,#673,#674,#675,#676,#677,#678,#679,#680,#681,#682,#683,#684,#685,#686,#687,#688,#689,#690,#691,#692,#693,#694,#695,#696,#697,#698,#699,#700,#701,#702,#703,#704,#705,#706,#707,#708)),.UNSPECIFIED.,.F.,.F.,.F.,(2,2),(2,1,1,1,1,1,1,1,1,1,1,1,1,1,1,1,1,1,1,1,1,1,1,1,1,1,1,1,1,1,1,1,1,1,1,1,1,1,1,1,1,1,1,1,1,1,1,1,1,1,2),(0.000000000000,1.000000000000),(0.000000000000,0.020000000000,0.040000000000,0.060000000000,0.080000000000,0.100000000000,0.120000000000,0.140000000000,0.160000000000,0.180000000000,0.200000000000,0.220000000000,0.240000000000,0.260000000000,0.280000000000,0.300000000000,0.320000000000,0.340000000000,0.360000000000,0.380000000000,0.400000000000,0.420000000000,0.440000000000,0.460000000000,0.480000000000,0.500000000000,0.520000000000,0.540000000000,0.560000000000,0.580000000000,0.600000000000,0.620000000000,0.640000000000,0.660000000000,0.680000000000,0.700000000000,0.720000000000,0.740000000000,0.760000000000,0.780000000000,0.800000000000,0.820000000000,0.840000000000,0.860000000000,0.880000000000,0.900000000000,0.920000000000,0.940000000000,0.960000000000,0.980000000000,1.000000000000),.UNSPECIFIED.);
#710 = CARTESIAN_POINT('',(-3.000000000000,0.000000000000,5.000000000000));
#711 = DIRECTION('',(1.000000000000,0.000000000000,0.000000000000));
#712 = VECTOR('',#711,1.0);
#713 = LINE('',#710,#712);
#714 = EDGE_CURVE('',#534,#123,#713,.T.);
#715 = ORIENTED_EDGE('',*,*,#714,.T.);
#716 = ORIENTED_EDGE('',*,*,#248,.T.);
#717 = CARTESIAN_POINT('',(36.040000000000,0.000000000000,34.280000000000));
#718 = DIRECTION('',(-0.280000000000,0.000000000000,-0.960000000000));
#719 = VECTOR('',#718,1.0);
#720 = LINE('',#717,#719);
#721 = EDGE_CURVE('',#542,#189,#720,.T.);
#722 = ORIENTED_EDGE('',*,*,#721,.F.);
#723 = ORIENTED_EDGE('',*,*,#595,.F.);
#724 = EDGE_LOOP('',(#715,#716,#722,#723));
#725 = FACE_OUTER_BOUND('',#724,.T.);
#726 = ADVANCED_FACE('',(#725) ,#709,.T.);
#727 = CARTESIAN_POINT('',(0.000000000000,0.000000000000,0.000000000000));
#728 = DIRECTION('',(-0.000000000000,-1.000000000000,-0.000000000000));
#729 = DIRECTION('',(-1.000000000000,0.000000000000,0.000000000000));
#730 = AXIS2_PLACEMENT_3D('',#727,#728,#729);
#731 = PLANE('',#730);
#732 = ORIENTED_EDGE('',*,*,#714,.F.);
#733 = ORIENTED_EDGE('',*,*,#539,.F.);
#734 = ORIENTED_EDGE('',*,*,#362,.F.);
#735 = ORIENTED_EDGE('',*,*,#130,.F.);
#736 = EDGE_LOOP('',(#732,#733,#734,#735));
#737 = FACE_OUTER_BOUND('',#736,.T.);
#738 = ADVANCED_FACE('',(#737) ,#731,.T.);
#739 = CARTESIAN_POINT('',(40.000000000000,0.000000000000,30.000000000000));
#740 = DIRECTION('',(0.000000000000,-1.000000000000,0.000000000000));
#741 = DIRECTION('',(0.960000000000,0.000000000000,-0.280000000000));
#742 = AXIS2_PLACEMENT_3D('',#739,#740,#741);
#743 = PLANE('',#742);
#744 = ORIENTED_EDGE('',*,*,#194,.T.);
#745 = ORIENTED_EDGE('',*,*,#424,.T.);
#746 = ORIENTED_EDGE('',*,*,#601,.T.);
#747 = ORIENTED_EDGE('',*,*,#721,.T.);
#748 = EDGE_LOOP('',(#744,#745,#746,#747));
#749 = FACE_OUTER_BOUND('',#748,.T.);
#750 = ADVANCED_FACE('',(#749) ,#743,.T.);
#751 = CLOSED_SHELL('',(#252,#429,#606,#726,#738,#750));
#752 = MANIFOLD_SOLID_BREP('ZENITH_POLYLINE_SWEEP',#751);
#753 = ADVANCED_BREP_SHAPE_REPRESENTATION('ZENITH_POLYLINE_SWEEP',(#752,#18),#13);
#754 = SHAPE_DEFINITION_REPRESENTATION(#8,#753);
ENDSEC;
END-ISO-10303-21;
