ISO-10303-21;
HEADER;
FILE_DESCRIPTION(('Zenith CAD Generated STEP File'),'2;1');
FILE_NAME('ZENITH_SWEEP_PIPE.stp','2026-08-18T10:00:00',('Zenith CAD'),('Zenith CAD Kernel'),'Zenith CAD Kernel 0.1.0','Zenith CAD','');
FILE_SCHEMA(('AUTOMOTIVE_DESIGN { 1 0 10303 214 1 1 1 1 }'));
ENDSEC;
DATA;
#1 = APPLICATION_CONTEXT('core data for automotive mechanical design processes');
#2 = APPLICATION_PROTOCOL_DEFINITION('international standard','automotive_design',2000,#1);
#3 = PRODUCT_CONTEXT('',#1,'mechanical');
#4 = PRODUCT('ZENITH_SWEEP_PIPE','ZENITH_SWEEP_PIPE','',(#3));
#5 = PRODUCT_DEFINITION_FORMATION('','',#4);
#6 = PRODUCT_DEFINITION_CONTEXT('part definition',#1,'design');
#7 = PRODUCT_DEFINITION('design','',#5,#6);
#8 = PRODUCT_DEFINITION_SHAPE('','',#7);
#9 = ( LENGTH_UNIT() NAMED_UNIT(*) SI_UNIT(.MILLI.,.METRE.) );
#10 = ( NAMED_UNIT(*) PLANE_ANGLE_UNIT() SI_UNIT($,.RADIAN.) );
#11 = ( NAMED_UNIT(*) SI_UNIT($,.STERADIAN.) SOLID_ANGLE_UNIT() );
#12 = UNCERTAINTY_MEASURE_WITH_UNIT(LENGTH_MEASURE(1.E-07),#9,'distance_accuracy_value','confusion accuracy');
#13 = GEOMETRIC_REPRESENTATION_CONTEXT(3) GLOBAL_UNCERTAINTY_ASSIGNED_CONTEXT((#12)) GLOBAL_UNIT_ASSIGNED_CONTEXT((#9,#10,#11)) REPRESENTATION_CONTEXT('Context #1','3D Context with UNIT and UNCERTAINTY');
#14 = GEOMETRIC_REPRESENTATION_CONTEXT(2) REPRESENTATION_CONTEXT('Parametric Context','2D p-curve Context');
#15 = CARTESIAN_POINT('',(0.000000000000,0.000000000000,0.000000000000));
#16 = DIRECTION('',(0.0,0.0,1.0));
#17 = DIRECTION('',(1.0,0.0,0.0));
#18 = AXIS2_PLACEMENT_3D('',#15,#16,#17);
#19 = CARTESIAN_POINT('',(0.000000000000,2.363515791475,-5.514870180108));
#20 = CARTESIAN_POINT('',(3.296077676827,6.674528986488,-3.539926431825));
#21 = CARTESIAN_POINT('',(6.549416463443,10.335882187725,-1.595552377070));
#22 = CARTESIAN_POINT('',(9.769432316014,13.384532260702,0.324623748522));
#23 = CARTESIAN_POINT('',(12.963413812682,15.853364346492,2.225713297088));
#24 = CARTESIAN_POINT('',(16.134069008120,17.771493981222,4.110127794374));
#25 = CARTESIAN_POINT('',(19.277192023760,19.166504621815,5.976213921086));
#26 = CARTESIAN_POINT('',(22.381039718925,20.068635803163,7.817895417348));
#27 = CARTESIAN_POINT('',(25.428724549401,20.515235251605,9.626084317426));
#28 = CARTESIAN_POINT('',(28.403053248514,20.552816372155,11.391522054595));
#29 = CARTESIAN_POINT('',(31.291283163989,20.235432456525,13.107565869236));
#30 = CARTESIAN_POINT('',(34.087427530003,19.620701429814,14.771533886732));
#31 = CARTESIAN_POINT('',(36.791750999856,18.765955559016,16.384402084155));
#32 = CARTESIAN_POINT('',(39.408711776083,17.726008212305,17.949591247601));
#33 = CARTESIAN_POINT('',(41.944735699768,16.552557055288,19.471655376147));
#34 = CARTESIAN_POINT('',(44.406526460493,15.294539841139,20.955282661811));
#35 = CARTESIAN_POINT('',(46.800006822359,13.998786962432,22.404662938785));
#36 = CARTESIAN_POINT('',(49.129722153215,12.710581261742,23.823121107363));
#37 = CARTESIAN_POINT('',(51.398516630761,11.473943917789,25.212904072254));
#38 = CARTESIAN_POINT('',(53.607376215041,10.331556489287,26.575058959540));
#39 = CARTESIAN_POINT('',(55.755460551043,9.324246263571,27.909419150109));
#40 = CARTESIAN_POINT('',(57.840518148585,8.489982784802,29.214824924386));
#41 = CARTESIAN_POINT('',(59.860094106600,7.862482460609,30.489850146633));
#42 = CARTESIAN_POINT('',(61.814077384129,7.469981064638,31.734413103767));
#43 = CARTESIAN_POINT('',(63.720704585859,7.333795095723,32.960115431805));
#44 = CARTESIAN_POINT('',(65.665785959861,7.448432737985,34.222647754589));
#45 = CARTESIAN_POINT('',(67.672206511005,7.792439103750,35.538015503336));
#46 = CARTESIAN_POINT('',(69.743433335816,8.341857130807,36.909791617897));
#47 = CARTESIAN_POINT('',(71.878851773506,9.068269946515,38.338862272164));
#48 = CARTESIAN_POINT('',(74.076651750015,9.938942488229,39.825255484555));
#49 = CARTESIAN_POINT('',(76.335499865348,10.917800552304,41.369238091342));
#50 = CARTESIAN_POINT('',(78.655271740936,11.966408153737,42.971824900861));
#51 = CARTESIAN_POINT('',(81.037230197098,13.044634269145,44.634930193031));
#52 = CARTESIAN_POINT('',(83.483908634989,14.110973836686,46.361319979195));
#53 = CARTESIAN_POINT('',(85.998815110219,15.122586803834,48.154433462917));
#54 = CARTESIAN_POINT('',(88.585972374633,16.035154102774,50.018075980016));
#55 = CARTESIAN_POINT('',(91.249260362029,16.802687023023,51.955951425365));
#56 = CARTESIAN_POINT('',(93.991539619605,17.377489137553,53.971010038188));
#57 = CARTESIAN_POINT('',(96.813628245728,17.710533306013,56.064657125598));
#58 = CARTESIAN_POINT('',(99.713384501962,17.752496234261,58.236007506986));
#59 = CARTESIAN_POINT('',(102.685334730968,17.455472699870,60.481525028867));
#60 = CARTESIAN_POINT('',(105.721289185770,16.774951684041,62.795408962096));
#61 = CARTESIAN_POINT('',(108.812027910712,15.671226594584,65.170829791259));
#62 = CARTESIAN_POINT('',(111.949530756472,14.109467100986,67.601645142576));
#63 = CARTESIAN_POINT('',(115.128843316505,12.058341413117,70.083901210740));
#64 = CARTESIAN_POINT('',(118.348889353957,9.487864657507,72.616557652157));
#65 = CARTESIAN_POINT('',(121.612168443517,6.367417759108,75.201345937978));
#66 = CARTESIAN_POINT('',(124.923780855031,2.664533954606,77.842074863120));
#67 = CARTESIAN_POINT('',(-5.015638195287,5.390194012769,-4.217722370982));
#68 = CARTESIAN_POINT('',(-1.529605349567,9.948971109143,-2.128965016991));
#69 = CARTESIAN_POINT('',(1.959457479980,13.874818423223,-0.043712549251));
#70 = CARTESIAN_POINT('',(5.468507695529,17.196250327172,2.048820022341));
#71 = CARTESIAN_POINT('',(9.009523404294,19.932449665021,4.156467968874));
#72 = CARTESIAN_POINT('',(12.583870166227,22.094018730073,6.280811552685));
#73 = CARTESIAN_POINT('',(16.176982028108,23.688183710773,8.414064654690));
#74 = CARTESIAN_POINT('',(19.757013891722,24.728451098905,10.538301612705));
#75 = CARTESIAN_POINT('',(23.280434749421,25.244803594294,12.628755499414));
#76 = CARTESIAN_POINT('',(26.703196327666,25.288329291786,14.660375651294));
#77 = CARTESIAN_POINT('',(29.991636059552,24.927375762843,16.614214613297));
#78 = CARTESIAN_POINT('',(33.127692638684,24.238351954348,18.480470738669));
#79 = CARTESIAN_POINT('',(36.107659202209,23.296879378477,20.257740147716));
#80 = CARTESIAN_POINT('',(38.937394793391,22.172696794333,21.950193821751));
#81 = CARTESIAN_POINT('',(41.627181827234,20.928331095052,23.564546907933));
#82 = CARTESIAN_POINT('',(44.187835734917,19.619944304976,25.107757898435));
#83 = CARTESIAN_POINT('',(46.628271907570,18.298844057195,26.585573856375));
#84 = CARTESIAN_POINT('',(48.954134766925,17.012762342912,28.001686293477));
#85 = CARTESIAN_POINT('',(51.167051944068,15.806485470174,29.357238493565));
#86 = CARTESIAN_POINT('',(53.264275199176,14.721624897827,30.650544336922));
#87 = CARTESIAN_POINT('',(55.238772332686,13.795355691645,31.877065022311));
#88 = CARTESIAN_POINT('',(57.080242501591,13.058000742723,33.029951773745));
#89 = CARTESIAN_POINT('',(58.778036097248,12.529701042058,34.101805458838));
#90 = CARTESIAN_POINT('',(60.327278386605,12.217525745359,35.088552076069));
#91 = CARTESIAN_POINT('',(61.766276804032,12.114626381747,36.013615760967));
#92 = CARTESIAN_POINT('',(63.290735844092,12.205332924052,37.003122096744));
#93 = CARTESIAN_POINT('',(64.950392252999,12.490648821404,38.091161130568));
#94 = CARTESIAN_POINT('',(66.749401455944,12.968444091135,39.282651959518));
#95 = CARTESIAN_POINT('',(68.681962344172,13.626257113670,40.575969994349));
#96 = CARTESIAN_POINT('',(70.739167413487,14.441489295578,41.967280356274));
#97 = CARTESIAN_POINT('',(72.913019917080,15.383656431149,43.453167618245));
#98 = CARTESIAN_POINT('',(75.198228630012,16.416693212971,45.031877283877));
#99 = CARTESIAN_POINT('',(77.592682208577,17.500557620391,46.703706701647));
#100 = CARTESIAN_POINT('',(80.097221583267,18.592036706550,48.470923347135));
#101 = CARTESIAN_POINT('',(82.714994426615,19.644894416729,50.337379997371));
#102 = CARTESIAN_POINT('',(85.450440104250,20.609584344840,52.307841326478));
#103 = CARTESIAN_POINT('',(88.307835477434,21.432832366263,54.386954047487));
#104 = CARTESIAN_POINT('',(91.289350815309,22.057531583084,56.577804693309));
#105 = CARTESIAN_POINT('',(94.392767195488,22.423534709901,58.880158775817));
#106 = CARTESIAN_POINT('',(97.609402041444,22.469892918878,61.288781053418));
#107 = CARTESIAN_POINT('',(100.923210527682,22.138614154364,63.792582927695));
#108 = CARTESIAN_POINT('',(104.312054094088,21.379045661407,66.375405484993));
#109 = CARTESIAN_POINT('',(107.751349284549,20.151063970737,69.018688667988));
#110 = CARTESIAN_POINT('',(111.218968919833,18.425345400670,71.705237947078));
#111 = CARTESIAN_POINT('',(114.699400262057,16.180425680347,74.422564594414));
#112 = CARTESIAN_POINT('',(118.185616094655,13.398000890714,77.164543632847));
#113 = CARTESIAN_POINT('',(121.678486968734,10.058546583396,79.931163043927));
#114 = CARTESIAN_POINT('',(125.184683908512,6.138593535785,82.727035418038));
#115 = CARTESIAN_POINT('',(-5.015638195287,3.026678221294,1.297147809126));
#116 = CARTESIAN_POINT('',(-1.674358175446,7.396650111251,3.299175009125));
#117 = CARTESIAN_POINT('',(1.634673323443,11.120493308593,5.276833326369));
#118 = CARTESIAN_POINT('',(4.922465187169,14.233108317186,7.237425519747));
#119 = CARTESIAN_POINT('',(8.197174384577,16.764135837200,9.186565041357));
#120 = CARTESIAN_POINT('',(11.460925860726,18.738405623031,11.126310160938));
#121 = CARTESIAN_POINT('',(14.706826980740,20.178903403416,13.053417611849));
#122 = CARTESIAN_POINT('',(17.918243226860,21.112239132464,14.958927524928));
#123 = CARTESIAN_POINT('',(21.071998575428,21.574390780876,16.830050471741));
#124 = CARTESIAN_POINT('',(24.144705459357,21.613276035704,18.653883888638));
#125 = CARTESIAN_POINT('',(27.118911403793,21.286532173910,20.421012613339));
#126 = CARTESIAN_POINT('',(29.986009307943,20.656293214497,22.127206406852));
#127 = CARTESIAN_POINT('',(32.745495095431,19.784191399863,23.772974945562));
#128 = CARTESIAN_POINT('',(35.402237046762,18.728495118152,25.361957957831));
#129 = CARTESIAN_POINT('',(37.963559175635,17.543376594111,26.899206124892));
#130 = CARTESIAN_POINT('',(40.437040663423,16.279403096124,28.389879280044));
#131 = CARTESIAN_POINT('',(42.829141576933,14.984394861924,29.838424185363));
#132 = CARTESIAN_POINT('',(45.144428409824,13.704144037355,31.248096985426));
#133 = CARTESIAN_POINT('',(47.385152055262,12.482758748960,32.620683592497));
#134 = CARTESIAN_POINT('',(49.551045753155,11.362511894087,33.956340293922));
#135 = CARTESIAN_POINT('',(51.639385098731,10.383094248393,35.253584440727));
#136 = CARTESIAN_POINT('',(53.645588178940,9.580202156027,36.509616509646));
#137 = CARTESIAN_POINT('',(55.564927725986,8.983603197575,37.721353037180));
#138 = CARTESIAN_POINT('',(57.396107487551,8.615473752315,38.887691268036));
#139 = CARTESIAN_POINT('',(59.162665733097,8.489258127861,40.023343234876));
#140 = CARTESIAN_POINT('',(60.977964148893,8.596511832812,41.201633430218));
#141 = CARTESIAN_POINT('',(62.872321916060,8.921551366422,42.443536003160));
#142 = CARTESIAN_POINT('',(64.849894803040,9.446328250793,43.753286644077));
#143 = CARTESIAN_POINT('',(66.908963801646,10.146922181555,45.131264122982));
#144 = CARTESIAN_POINT('',(69.045898921517,10.993594070479,46.576495075817));
#145 = CARTESIAN_POINT('',(71.257504255617,11.952058358064,48.088186772407));
#146 = CARTESIAN_POINT('',(73.542080397354,12.984810164461,49.666459441183));
#147 = CARTESIAN_POINT('',(75.899720622481,14.052062934961,51.312585683846));
#148 = CARTESIAN_POINT('',(78.332199900109,15.112233227106,53.028956497787));
#149 = CARTESIAN_POINT('',(80.842625286942,16.122049481267,54.818874989613));
#150 = CARTESIAN_POINT('',(83.434880836540,17.036408801730,56.686190030780));
#151 = CARTESIAN_POINT('',(86.112830916143,17.808150216919,58.634733972593));
#152 = CARTESIAN_POINT('',(88.879252687473,18.387987698509,60.667532641887));
#153 = CARTESIAN_POINT('',(91.734576569555,18.724925544010,62.785835776569));
#154 = CARTESIAN_POINT('',(94.675729164074,18.767462662291,64.988182848802));
#155 = CARTESIAN_POINT('',(97.695606742651,18.465636662685,67.269910946804));
#156 = CARTESIAN_POINT('',(100.783727931926,17.773430251602,69.623551419211));
#157 = CARTESIAN_POINT('',(103.928196671218,16.650550994523,72.040263257262));
#158 = CARTESIAN_POINT('',(107.118373370396,15.062629982837,74.511883838281));
#159 = CARTESIAN_POINT('',(110.347167137899,12.979659178377,77.032767772875));
#160 = CARTESIAN_POINT('',(113.612094433791,10.373443978120,79.600719960637));
#161 = CARTESIAN_POINT('',(116.914993674268,7.215203451297,82.216886445113));
#162 = CARTESIAN_POINT('',(120.260903053480,3.474059581179,84.884960554918));
#163 = ( BOUNDED_SURFACE() B_SPLINE_SURFACE(2,1,((#19,#20,#21,#22,#23,#24,#25,#26,#27,#28,#29,#30,#31,#32,#33,#34,#35,#36,#37,#38,#39,#40,#41,#42,#43,#44,#45,#46,#47,#48,#49,#50,#51,#52,#53,#54,#55,#56,#57,#58,#59,#60,#61,#62,#63,#64,#65,#66),(#67,#68,#69,#70,#71,#72,#73,#74,#75,#76,#77,#78,#79,#80,#81,#82,#83,#84,#85,#86,#87,#88,#89,#90,#91,#92,#93,#94,#95,#96,#97,#98,#99,#100,#101,#102,#103,#104,#105,#106,#107,#108,#109,#110,#111,#112,#113,#114),(#115,#116,#117,#118,#119,#120,#121,#122,#123,#124,#125,#126,#127,#128,#129,#130,#131,#132,#133,#134,#135,#136,#137,#138,#139,#140,#141,#142,#143,#144,#145,#146,#147,#148,#149,#150,#151,#152,#153,#154,#155,#156,#157,#158,#159,#160,#161,#162)),.UNSPECIFIED.,.F.,.F.,.F.) B_SPLINE_SURFACE_WITH_KNOTS((3,3),(2,1,1,1,1,1,1,1,1,1,1,1,1,1,1,1,1,1,1,1,1,1,1,1,1,1,1,1,1,1,1,1,1,1,1,1,1,1,1,1,1,1,1,1,1,1,1,2),(0.000000000000,1.000000000000),(0.000000000000,0.021276595745,0.042553191489,0.063829787234,0.085106382979,0.106382978723,0.127659574468,0.148936170213,0.170212765957,0.191489361702,0.212765957447,0.234042553191,0.255319148936,0.276595744681,0.297872340426,0.319148936170,0.340425531915,0.361702127660,0.382978723404,0.404255319149,0.425531914894,0.446808510638,0.468085106383,0.489361702128,0.510638297872,0.531914893617,0.553191489362,0.574468085106,0.595744680851,0.617021276596,0.638297872340,0.659574468085,0.680851063830,0.702127659574,0.723404255319,0.744680851064,0.765957446809,0.787234042553,0.808510638298,0.829787234043,0.851063829787,0.872340425532,0.893617021277,0.914893617021,0.936170212766,0.957446808511,0.978723404255,1.000000000000),.UNSPECIFIED.) GEOMETRIC_REPRESENTATION_ITEM() RATIONAL_B_SPLINE_SURFACE(((1.000000000000,1.000000000000,1.000000000000,1.000000000000,1.000000000000,1.000000000000,1.000000000000,1.000000000000,1.000000000000,1.000000000000,1.000000000000,1.000000000000,1.000000000000,1.000000000000,1.000000000000,1.000000000000,1.000000000000,1.000000000000,1.000000000000,1.000000000000,1.000000000000,1.000000000000,1.000000000000,1.000000000000,1.000000000000,1.000000000000,1.000000000000,1.000000000000,1.000000000000,1.000000000000,1.000000000000,1.000000000000,1.000000000000,1.000000000000,1.000000000000,1.000000000000,1.000000000000,1.000000000000,1.000000000000,1.000000000000,1.000000000000,1.000000000000,1.000000000000,1.000000000000,1.000000000000,1.000000000000,1.000000000000,1.000000000000),(0.707106781187,0.707106781187,0.707106781187,0.707106781187,0.707106781187,0.707106781187,0.707106781187,0.707106781187,0.707106781187,0.707106781187,0.707106781187,0.707106781187,0.707106781187,0.707106781187,0.707106781187,0.707106781187,0.707106781187,0.707106781187,0.707106781187,0.707106781187,0.707106781187,0.707106781187,0.707106781187,0.707106781187,0.707106781187,0.707106781187,0.707106781187,0.707106781187,0.707106781187,0.707106781187,0.707106781187,0.707106781187,0.707106781187,0.707106781187,0.707106781187,0.707106781187,0.707106781187,0.707106781187,0.707106781187,0.707106781187,0.707106781187,0.707106781187,0.707106781187,0.707106781187,0.707106781187,0.707106781187,0.707106781187,0.707106781187),(1.000000000000,1.000000000000,1.000000000000,1.000000000000,1.000000000000,1.000000000000,1.000000000000,1.000000000000,1.000000000000,1.000000000000,1.000000000000,1.000000000000,1.000000000000,1.000000000000,1.000000000000,1.000000000000,1.000000000000,1.000000000000,1.000000000000,1.000000000000,1.000000000000,1.000000000000,1.000000000000,1.000000000000,1.000000000000,1.000000000000,1.000000000000,1.000000000000,1.000000000000,1.000000000000,1.000000000000,1.000000000000,1.000000000000,1.000000000000,1.000000000000,1.000000000000,1.000000000000,1.000000000000,1.000000000000,1.000000000000,1.000000000000,1.000000000000,1.000000000000,1.000000000000,1.000000000000,1.000000000000,1.000000000000,1.000000000000))) REPRESENTATION_ITEM('') SURFACE() );
#164 = CARTESIAN_POINT('',(0.000000000000,2.363515791475,-5.514870180108));
#165 = VERTEX_POINT('',#164);
#166 = CARTESIAN_POINT('',(-5.015638195287,3.026678221294,1.297147809126));
#167 = VERTEX_POINT('',#166);
#168 = CARTESIAN_POINT('',(0.000000000000,2.363515791475,-5.514870180108));
#169 = CARTESIAN_POINT('',(-5.015638195287,5.390194012769,-4.217722370982));
#170 = CARTESIAN_POINT('',(-5.015638195287,3.026678221294,1.297147809126));
#171 = ( BOUNDED_CURVE() B_SPLINE_CURVE(2,(#168,#169,#170),.UNSPECIFIED.,.F.,.F.) B_SPLINE_CURVE_WITH_KNOTS((3,3),(0.000000000000,1.000000000000),.UNSPECIFIED.) GEOMETRIC_REPRESENTATION_ITEM() RATIONAL_B_SPLINE_CURVE((1.000000000000,0.707106781187,1.000000000000)) REPRESENTATION_ITEM('') );
#172 = EDGE_CURVE('',#165,#167,#171,.T.);
#173 = ORIENTED_EDGE('',*,*,#172,.T.);
#174 = CARTESIAN_POINT('',(120.260903053480,3.474059581179,84.884960554918));
#175 = VERTEX_POINT('',#174);
#176 = CARTESIAN_POINT('',(-5.015638195287,3.026678221294,1.297147809126));
#177 = CARTESIAN_POINT('',(-1.674358175446,7.396650111251,3.299175009125));
#178 = CARTESIAN_POINT('',(1.634673323443,11.120493308593,5.276833326369));
#179 = CARTESIAN_POINT('',(4.922465187169,14.233108317186,7.237425519747));
#180 = CARTESIAN_POINT('',(8.197174384577,16.764135837200,9.186565041357));
#181 = CARTESIAN_POINT('',(11.460925860726,18.738405623031,11.126310160938));
#182 = CARTESIAN_POINT('',(14.706826980740,20.178903403416,13.053417611849));
#183 = CARTESIAN_POINT('',(17.918243226860,21.112239132464,14.958927524928));
#184 = CARTESIAN_POINT('',(21.071998575428,21.574390780876,16.830050471741));
#185 = CARTESIAN_POINT('',(24.144705459357,21.613276035704,18.653883888638));
#186 = CARTESIAN_POINT('',(27.118911403793,21.286532173910,20.421012613339));
#187 = CARTESIAN_POINT('',(29.986009307943,20.656293214497,22.127206406852));
#188 = CARTESIAN_POINT('',(32.745495095431,19.784191399863,23.772974945562));
#189 = CARTESIAN_POINT('',(35.402237046762,18.728495118152,25.361957957831));
#190 = CARTESIAN_POINT('',(37.963559175635,17.543376594111,26.899206124892));
#191 = CARTESIAN_POINT('',(40.437040663423,16.279403096124,28.389879280044));
#192 = CARTESIAN_POINT('',(42.829141576933,14.984394861924,29.838424185363));
#193 = CARTESIAN_POINT('',(45.144428409824,13.704144037355,31.248096985426));
#194 = CARTESIAN_POINT('',(47.385152055262,12.482758748960,32.620683592497));
#195 = CARTESIAN_POINT('',(49.551045753155,11.362511894087,33.956340293922));
#196 = CARTESIAN_POINT('',(51.639385098731,10.383094248393,35.253584440727));
#197 = CARTESIAN_POINT('',(53.645588178940,9.580202156027,36.509616509646));
#198 = CARTESIAN_POINT('',(55.564927725986,8.983603197575,37.721353037180));
#199 = CARTESIAN_POINT('',(57.396107487551,8.615473752315,38.887691268036));
#200 = CARTESIAN_POINT('',(59.162665733097,8.489258127861,40.023343234876));
#201 = CARTESIAN_POINT('',(60.977964148893,8.596511832812,41.201633430218));
#202 = CARTESIAN_POINT('',(62.872321916060,8.921551366422,42.443536003160));
#203 = CARTESIAN_POINT('',(64.849894803040,9.446328250793,43.753286644077));
#204 = CARTESIAN_POINT('',(66.908963801646,10.146922181555,45.131264122982));
#205 = CARTESIAN_POINT('',(69.045898921517,10.993594070479,46.576495075817));
#206 = CARTESIAN_POINT('',(71.257504255617,11.952058358064,48.088186772407));
#207 = CARTESIAN_POINT('',(73.542080397354,12.984810164461,49.666459441183));
#208 = CARTESIAN_POINT('',(75.899720622481,14.052062934961,51.312585683846));
#209 = CARTESIAN_POINT('',(78.332199900109,15.112233227106,53.028956497787));
#210 = CARTESIAN_POINT('',(80.842625286942,16.122049481267,54.818874989613));
#211 = CARTESIAN_POINT('',(83.434880836540,17.036408801730,56.686190030780));
#212 = CARTESIAN_POINT('',(86.112830916143,17.808150216919,58.634733972593));
#213 = CARTESIAN_POINT('',(88.879252687473,18.387987698509,60.667532641887));
#214 = CARTESIAN_POINT('',(91.734576569555,18.724925544010,62.785835776569));
#215 = CARTESIAN_POINT('',(94.675729164074,18.767462662291,64.988182848802));
#216 = CARTESIAN_POINT('',(97.695606742651,18.465636662685,67.269910946804));
#217 = CARTESIAN_POINT('',(100.783727931926,17.773430251602,69.623551419211));
#218 = CARTESIAN_POINT('',(103.928196671218,16.650550994523,72.040263257262));
#219 = CARTESIAN_POINT('',(107.118373370396,15.062629982837,74.511883838281));
#220 = CARTESIAN_POINT('',(110.347167137899,12.979659178377,77.032767772875));
#221 = CARTESIAN_POINT('',(113.612094433791,10.373443978120,79.600719960637));
#222 = CARTESIAN_POINT('',(116.914993674268,7.215203451297,82.216886445113));
#223 = CARTESIAN_POINT('',(120.260903053480,3.474059581179,84.884960554918));
#224 = B_SPLINE_CURVE_WITH_KNOTS('',1,(#176,#177,#178,#179,#180,#181,#182,#183,#184,#185,#186,#187,#188,#189,#190,#191,#192,#193,#194,#195,#196,#197,#198,#199,#200,#201,#202,#203,#204,#205,#206,#207,#208,#209,#210,#211,#212,#213,#214,#215,#216,#217,#218,#219,#220,#221,#222,#223),.UNSPECIFIED.,.F.,.F.,(2,1,1,1,1,1,1,1,1,1,1,1,1,1,1,1,1,1,1,1,1,1,1,1,1,1,1,1,1,1,1,1,1,1,1,1,1,1,1,1,1,1,1,1,1,1,1,2),(0.000000000000,0.021276595745,0.042553191489,0.063829787234,0.085106382979,0.106382978723,0.127659574468,0.148936170213,0.170212765957,0.191489361702,0.212765957447,0.234042553191,0.255319148936,0.276595744681,0.297872340426,0.319148936170,0.340425531915,0.361702127660,0.382978723404,0.404255319149,0.425531914894,0.446808510638,0.468085106383,0.489361702128,0.510638297872,0.531914893617,0.553191489362,0.574468085106,0.595744680851,0.617021276596,0.638297872340,0.659574468085,0.680851063830,0.702127659574,0.723404255319,0.744680851064,0.765957446809,0.787234042553,0.808510638298,0.829787234043,0.851063829787,0.872340425532,0.893617021277,0.914893617021,0.936170212766,0.957446808511,0.978723404255,1.000000000000),.UNSPECIFIED.);
#225 = EDGE_CURVE('',#167,#175,#224,.T.);
#226 = ORIENTED_EDGE('',*,*,#225,.T.);
#227 = CARTESIAN_POINT('',(124.923780855031,2.664533954606,77.842074863120));
#228 = VERTEX_POINT('',#227);
#229 = CARTESIAN_POINT('',(124.923780855031,2.664533954606,77.842074863120));
#230 = CARTESIAN_POINT('',(125.184683908512,6.138593535785,82.727035418038));
#231 = CARTESIAN_POINT('',(120.260903053480,3.474059581179,84.884960554918));
#232 = ( BOUNDED_CURVE() B_SPLINE_CURVE(2,(#229,#230,#231),.UNSPECIFIED.,.F.,.F.) B_SPLINE_CURVE_WITH_KNOTS((3,3),(0.000000000000,1.000000000000),.UNSPECIFIED.) GEOMETRIC_REPRESENTATION_ITEM() RATIONAL_B_SPLINE_CURVE((1.000000000000,0.707106781187,1.000000000000)) REPRESENTATION_ITEM('') );
#233 = EDGE_CURVE('',#228,#175,#232,.T.);
#234 = ORIENTED_EDGE('',*,*,#233,.F.);
#235 = CARTESIAN_POINT('',(0.000000000000,2.363515791475,-5.514870180108));
#236 = CARTESIAN_POINT('',(3.296077676827,6.674528986488,-3.539926431825));
#237 = CARTESIAN_POINT('',(6.549416463443,10.335882187725,-1.595552377070));
#238 = CARTESIAN_POINT('',(9.769432316014,13.384532260702,0.324623748522));
#239 = CARTESIAN_POINT('',(12.963413812682,15.853364346492,2.225713297088));
#240 = CARTESIAN_POINT('',(16.134069008120,17.771493981222,4.110127794374));
#241 = CARTESIAN_POINT('',(19.277192023760,19.166504621815,5.976213921086));
#242 = CARTESIAN_POINT('',(22.381039718925,20.068635803163,7.817895417348));
#243 = CARTESIAN_POINT('',(25.428724549401,20.515235251605,9.626084317426));
#244 = CARTESIAN_POINT('',(28.403053248514,20.552816372155,11.391522054595));
#245 = CARTESIAN_POINT('',(31.291283163989,20.235432456525,13.107565869236));
#246 = CARTESIAN_POINT('',(34.087427530003,19.620701429814,14.771533886732));
#247 = CARTESIAN_POINT('',(36.791750999856,18.765955559016,16.384402084155));
#248 = CARTESIAN_POINT('',(39.408711776083,17.726008212305,17.949591247601));
#249 = CARTESIAN_POINT('',(41.944735699768,16.552557055288,19.471655376147));
#250 = CARTESIAN_POINT('',(44.406526460493,15.294539841139,20.955282661811));
#251 = CARTESIAN_POINT('',(46.800006822359,13.998786962432,22.404662938785));
#252 = CARTESIAN_POINT('',(49.129722153215,12.710581261742,23.823121107363));
#253 = CARTESIAN_POINT('',(51.398516630761,11.473943917789,25.212904072254));
#254 = CARTESIAN_POINT('',(53.607376215041,10.331556489287,26.575058959540));
#255 = CARTESIAN_POINT('',(55.755460551043,9.324246263571,27.909419150109));
#256 = CARTESIAN_POINT('',(57.840518148585,8.489982784802,29.214824924386));
#257 = CARTESIAN_POINT('',(59.860094106600,7.862482460609,30.489850146633));
#258 = CARTESIAN_POINT('',(61.814077384129,7.469981064638,31.734413103767));
#259 = CARTESIAN_POINT('',(63.720704585859,7.333795095723,32.960115431805));
#260 = CARTESIAN_POINT('',(65.665785959861,7.448432737985,34.222647754589));
#261 = CARTESIAN_POINT('',(67.672206511005,7.792439103750,35.538015503336));
#262 = CARTESIAN_POINT('',(69.743433335816,8.341857130807,36.909791617897));
#263 = CARTESIAN_POINT('',(71.878851773506,9.068269946515,38.338862272164));
#264 = CARTESIAN_POINT('',(74.076651750015,9.938942488229,39.825255484555));
#265 = CARTESIAN_POINT('',(76.335499865348,10.917800552304,41.369238091342));
#266 = CARTESIAN_POINT('',(78.655271740936,11.966408153737,42.971824900861));
#267 = CARTESIAN_POINT('',(81.037230197098,13.044634269145,44.634930193031));
#268 = CARTESIAN_POINT('',(83.483908634989,14.110973836686,46.361319979195));
#269 = CARTESIAN_POINT('',(85.998815110219,15.122586803834,48.154433462917));
#270 = CARTESIAN_POINT('',(88.585972374633,16.035154102774,50.018075980016));
#271 = CARTESIAN_POINT('',(91.249260362029,16.802687023023,51.955951425365));
#272 = CARTESIAN_POINT('',(93.991539619605,17.377489137553,53.971010038188));
#273 = CARTESIAN_POINT('',(96.813628245728,17.710533306013,56.064657125598));
#274 = CARTESIAN_POINT('',(99.713384501962,17.752496234261,58.236007506986));
#275 = CARTESIAN_POINT('',(102.685334730968,17.455472699870,60.481525028867));
#276 = CARTESIAN_POINT('',(105.721289185770,16.774951684041,62.795408962096));
#277 = CARTESIAN_POINT('',(108.812027910712,15.671226594584,65.170829791259));
#278 = CARTESIAN_POINT('',(111.949530756472,14.109467100986,67.601645142576));
#279 = CARTESIAN_POINT('',(115.128843316505,12.058341413117,70.083901210740));
#280 = CARTESIAN_POINT('',(118.348889353957,9.487864657507,72.616557652157));
#281 = CARTESIAN_POINT('',(121.612168443517,6.367417759108,75.201345937978));
#282 = CARTESIAN_POINT('',(124.923780855031,2.664533954606,77.842074863120));
#283 = B_SPLINE_CURVE_WITH_KNOTS('',1,(#235,#236,#237,#238,#239,#240,#241,#242,#243,#244,#245,#246,#247,#248,#249,#250,#251,#252,#253,#254,#255,#256,#257,#258,#259,#260,#261,#262,#263,#264,#265,#266,#267,#268,#269,#270,#271,#272,#273,#274,#275,#276,#277,#278,#279,#280,#281,#282),.UNSPECIFIED.,.F.,.F.,(2,1,1,1,1,1,1,1,1,1,1,1,1,1,1,1,1,1,1,1,1,1,1,1,1,1,1,1,1,1,1,1,1,1,1,1,1,1,1,1,1,1,1,1,1,1,1,2),(0.000000000000,0.021276595745,0.042553191489,0.063829787234,0.085106382979,0.106382978723,0.127659574468,0.148936170213,0.170212765957,0.191489361702,0.212765957447,0.234042553191,0.255319148936,0.276595744681,0.297872340426,0.319148936170,0.340425531915,0.361702127660,0.382978723404,0.404255319149,0.425531914894,0.446808510638,0.468085106383,0.489361702128,0.510638297872,0.531914893617,0.553191489362,0.574468085106,0.595744680851,0.617021276596,0.638297872340,0.659574468085,0.680851063830,0.702127659574,0.723404255319,0.744680851064,0.765957446809,0.787234042553,0.808510638298,0.829787234043,0.851063829787,0.872340425532,0.893617021277,0.914893617021,0.936170212766,0.957446808511,0.978723404255,1.000000000000),.UNSPECIFIED.);
#284 = EDGE_CURVE('',#165,#228,#283,.T.);
#285 = ORIENTED_EDGE('',*,*,#284,.F.);
#286 = EDGE_LOOP('',(#173,#226,#234,#285));
#287 = FACE_OUTER_BOUND('',#286,.T.);
#288 = ADVANCED_FACE('',(#287) ,#163,.T.);
#289 = CARTESIAN_POINT('',(-5.015638195287,3.026678221294,1.297147809126));
#290 = CARTESIAN_POINT('',(-1.674358175446,7.396650111251,3.299175009125));
#291 = CARTESIAN_POINT('',(1.634673323443,11.120493308593,5.276833326369));
#292 = CARTESIAN_POINT('',(4.922465187169,14.233108317186,7.237425519747));
#293 = CARTESIAN_POINT('',(8.197174384577,16.764135837200,9.186565041357));
#294 = CARTESIAN_POINT('',(11.460925860726,18.738405623031,11.126310160938));
#295 = CARTESIAN_POINT('',(14.706826980740,20.178903403416,13.053417611849));
#296 = CARTESIAN_POINT('',(17.918243226860,21.112239132464,14.958927524928));
#297 = CARTESIAN_POINT('',(21.071998575428,21.574390780876,16.830050471741));
#298 = CARTESIAN_POINT('',(24.144705459357,21.613276035704,18.653883888638));
#299 = CARTESIAN_POINT('',(27.118911403793,21.286532173910,20.421012613339));
#300 = CARTESIAN_POINT('',(29.986009307943,20.656293214497,22.127206406852));
#301 = CARTESIAN_POINT('',(32.745495095431,19.784191399863,23.772974945562));
#302 = CARTESIAN_POINT('',(35.402237046762,18.728495118152,25.361957957831));
#303 = CARTESIAN_POINT('',(37.963559175635,17.543376594111,26.899206124892));
#304 = CARTESIAN_POINT('',(40.437040663423,16.279403096124,28.389879280044));
#305 = CARTESIAN_POINT('',(42.829141576933,14.984394861924,29.838424185363));
#306 = CARTESIAN_POINT('',(45.144428409824,13.704144037355,31.248096985426));
#307 = CARTESIAN_POINT('',(47.385152055262,12.482758748960,32.620683592497));
#308 = CARTESIAN_POINT('',(49.551045753155,11.362511894087,33.956340293922));
#309 = CARTESIAN_POINT('',(51.639385098731,10.383094248393,35.253584440727));
#310 = CARTESIAN_POINT('',(53.645588178940,9.580202156027,36.509616509646));
#311 = CARTESIAN_POINT('',(55.564927725986,8.983603197575,37.721353037180));
#312 = CARTESIAN_POINT('',(57.396107487551,8.615473752315,38.887691268036));
#313 = CARTESIAN_POINT('',(59.162665733097,8.489258127861,40.023343234876));
#314 = CARTESIAN_POINT('',(60.977964148893,8.596511832812,41.201633430218));
#315 = CARTESIAN_POINT('',(62.872321916060,8.921551366422,42.443536003160));
#316 = CARTESIAN_POINT('',(64.849894803040,9.446328250793,43.753286644077));
#317 = CARTESIAN_POINT('',(66.908963801646,10.146922181555,45.131264122982));
#318 = CARTESIAN_POINT('',(69.045898921517,10.993594070479,46.576495075817));
#319 = CARTESIAN_POINT('',(71.257504255617,11.952058358064,48.088186772407));
#320 = CARTESIAN_POINT('',(73.542080397354,12.984810164461,49.666459441183));
#321 = CARTESIAN_POINT('',(75.899720622481,14.052062934961,51.312585683846));
#322 = CARTESIAN_POINT('',(78.332199900109,15.112233227106,53.028956497787));
#323 = CARTESIAN_POINT('',(80.842625286942,16.122049481267,54.818874989613));
#324 = CARTESIAN_POINT('',(83.434880836540,17.036408801730,56.686190030780));
#325 = CARTESIAN_POINT('',(86.112830916143,17.808150216919,58.634733972593));
#326 = CARTESIAN_POINT('',(88.879252687473,18.387987698509,60.667532641887));
#327 = CARTESIAN_POINT('',(91.734576569555,18.724925544010,62.785835776569));
#328 = CARTESIAN_POINT('',(94.675729164074,18.767462662291,64.988182848802));
#329 = CARTESIAN_POINT('',(97.695606742651,18.465636662685,67.269910946804));
#330 = CARTESIAN_POINT('',(100.783727931926,17.773430251602,69.623551419211));
#331 = CARTESIAN_POINT('',(103.928196671218,16.650550994523,72.040263257262));
#332 = CARTESIAN_POINT('',(107.118373370396,15.062629982837,74.511883838281));
#333 = CARTESIAN_POINT('',(110.347167137899,12.979659178377,77.032767772875));
#334 = CARTESIAN_POINT('',(113.612094433791,10.373443978120,79.600719960637));
#335 = CARTESIAN_POINT('',(116.914993674268,7.215203451297,82.216886445113));
#336 = CARTESIAN_POINT('',(120.260903053480,3.474059581179,84.884960554918));
#337 = CARTESIAN_POINT('',(-5.015638195287,0.663162429819,6.812017989234));
#338 = CARTESIAN_POINT('',(-1.819111001325,4.844329113359,8.727315035241));
#339 = CARTESIAN_POINT('',(1.309889166907,8.366168193963,10.597379201989));
#340 = CARTESIAN_POINT('',(4.376422678809,11.269966307199,12.426031017154));
#341 = CARTESIAN_POINT('',(7.384825364859,13.595822009379,14.216662113840));
#342 = CARTESIAN_POINT('',(10.337981555225,15.382792515989,15.971808769192));
#343 = CARTESIAN_POINT('',(13.236671933372,16.669623096060,17.692770569007));
#344 = CARTESIAN_POINT('',(16.079472561998,17.496027166023,19.379553437150));
#345 = CARTESIAN_POINT('',(18.863562401435,17.903977967459,21.031345444068));
#346 = CARTESIAN_POINT('',(21.586214591048,17.938222779622,22.647392125983));
#347 = CARTESIAN_POINT('',(24.246186748034,17.645688584977,24.227810613381));
#348 = CARTESIAN_POINT('',(26.844325977203,17.074234474646,25.773942075036));
#349 = CARTESIAN_POINT('',(29.383330988652,16.271503421248,27.288209743408));
#350 = CARTESIAN_POINT('',(31.867079300133,15.284293441971,28.773722093912));
#351 = CARTESIAN_POINT('',(34.299936524035,14.158422093170,30.233865341850));
#352 = CARTESIAN_POINT('',(36.686245591928,12.938861887272,31.672000661653));
#353 = CARTESIAN_POINT('',(39.030011246295,11.669945666653,33.091274514351));
#354 = CARTESIAN_POINT('',(41.334722052724,10.395525731798,34.494507677374));
#355 = CARTESIAN_POINT('',(43.603252166456,9.159032027746,35.884128691429));
#356 = CARTESIAN_POINT('',(45.837816307135,8.003398890348,37.262136250923));
#357 = CARTESIAN_POINT('',(48.039997864776,6.970832805142,38.630103859143));
#358 = CARTESIAN_POINT('',(50.210933856289,6.102403569331,39.989281245547));
#359 = CARTESIAN_POINT('',(52.351819354724,5.437505353092,41.340900615521));
#360 = CARTESIAN_POINT('',(54.464936588497,5.013421759270,42.686830460003));
#361 = CARTESIAN_POINT('',(56.559054662163,4.863889873975,44.033070708785));
#362 = CARTESIAN_POINT('',(58.665192453694,4.987690741572,45.400144763692));
#363 = CARTESIAN_POINT('',(60.794251579120,5.352453911439,46.795910875752));
#364 = CARTESIAN_POINT('',(62.950388150136,5.924212410452,48.223921328637));
#365 = CARTESIAN_POINT('',(65.135965259120,6.667587249440,49.686558251616));
#366 = CARTESIAN_POINT('',(67.352630429547,7.545698845381,51.185709795359));
#367 = CARTESIAN_POINT('',(69.601988594155,8.520460284979,52.723205926569));
#368 = CARTESIAN_POINT('',(71.885932164697,9.552927115951,54.301041598488));
#369 = CARTESIAN_POINT('',(74.206759036384,10.603568249530,55.921464666046));
#370 = CARTESIAN_POINT('',(76.567178216952,11.632429747662,57.586989648438));
#371 = CARTESIAN_POINT('',(78.970256147269,12.599204545806,59.300369981855));
#372 = CARTESIAN_POINT('',(81.419321568829,13.463233258620,61.064538735083));
#373 = CARTESIAN_POINT('',(83.917826354852,14.183468067575,62.882513897700));
#374 = CARTESIAN_POINT('',(86.469154559637,14.718443813934,64.757260590465));
#375 = CARTESIAN_POINT('',(89.076385943622,15.026316378120,66.691512777320));
#376 = CARTESIAN_POINT('',(91.742056286704,15.065032405704,68.687584644186));
#377 = CARTESIAN_POINT('',(94.468002957620,14.792659171007,70.747238965912));
#378 = CARTESIAN_POINT('',(97.255401769763,14.167814841797,72.871697353429));
#379 = CARTESIAN_POINT('',(100.105044057888,13.150038018309,75.061837846535));
#380 = CARTESIAN_POINT('',(103.017777820959,11.699914565004,77.318529729484));
#381 = CARTESIAN_POINT('',(105.994934013741,9.778892676408,79.642970951336));
#382 = CARTESIAN_POINT('',(109.038572772927,7.348887065525,82.036896288426));
#383 = CARTESIAN_POINT('',(112.151500379802,4.371860319198,84.502609846298));
#384 = CARTESIAN_POINT('',(115.337122198449,0.809525626573,87.042885691798));
#385 = CARTESIAN_POINT('',(-0.000000000000,-2.363515791475,5.514870180108));
#386 = CARTESIAN_POINT('',(3.006572025069,1.569886990704,7.316353620406));
#387 = CARTESIAN_POINT('',(5.899848150371,4.827231958466,9.045539374171));
#388 = CARTESIAN_POINT('',(8.677347299293,7.458248240729,10.701834743335));
#389 = CARTESIAN_POINT('',(11.338715773247,9.516736690850,12.285907442054));
#390 = CARTESIAN_POINT('',(13.888180397117,11.060267767138,13.801125010881));
#391 = CARTESIAN_POINT('',(16.336881929025,12.147944007102,15.254919835403));
#392 = CARTESIAN_POINT('',(18.703498389201,12.836211870281,16.659147241793));
#393 = CARTESIAN_POINT('',(21.011852201415,13.174409624771,18.028674262080));
#394 = CARTESIAN_POINT('',(23.286071511896,13.202709859990,19.378538529284));
#395 = CARTESIAN_POINT('',(25.545833852471,12.953745278659,20.721161869319));
#396 = CARTESIAN_POINT('',(27.804060868522,12.456583950112,22.065005223099));
#397 = CARTESIAN_POINT('',(30.067422786299,11.740579601787,23.414871679847));
#398 = CARTESIAN_POINT('',(32.338396282825,10.837604859943,24.773119519762));
#399 = CARTESIAN_POINT('',(34.617490396569,9.782648053406,26.140973810064));
#400 = CARTESIAN_POINT('',(36.904936317504,8.613457423436,27.519525425029));
#401 = CARTESIAN_POINT('',(39.201746161084,7.369888571890,28.910363596761));
#402 = CARTESIAN_POINT('',(41.510309439014,6.093344650628,30.315942491261));
#403 = CARTESIAN_POINT('',(43.834716853149,4.826490475361,31.739794270117));
#404 = CARTESIAN_POINT('',(46.180917323000,3.613330481808,33.186650873541));
#405 = CARTESIAN_POINT('',(48.556686083133,2.499723377068,34.662457986941));
#406 = CARTESIAN_POINT('',(50.971209503284,1.534385611410,36.174154396188));
#407 = CARTESIAN_POINT('',(53.433877364076,0.770286771642,37.728945303316));
#408 = CARTESIAN_POINT('',(55.951735586022,0.265877078548,39.332691487701));
#409 = CARTESIAN_POINT('',(58.513482443990,0.083058587951,40.979570379624));
#410 = CARTESIAN_POINT('',(61.040242569463,0.230790555505,42.619670421537));
#411 = CARTESIAN_POINT('',(63.516065837126,0.654244193785,44.242765248520));
#412 = CARTESIAN_POINT('',(65.944420030008,1.297625450124,45.851060987017));
#413 = CARTESIAN_POINT('',(68.332854688454,2.109600082284,47.449450529431));
#414 = CARTESIAN_POINT('',(70.690114766075,3.043152038032,49.043684923639));
#415 = CARTESIAN_POINT('',(73.024468542423,4.054604406134,50.639276399667));
#416 = CARTESIAN_POINT('',(75.342975275621,5.102642056717,52.240989215472));
#417 = CARTESIAN_POINT('',(77.651307024905,6.147644898284,53.852688157430));
#418 = CARTESIAN_POINT('',(79.953865268674,7.151366877799,55.477386280497));
#419 = CARTESIAN_POINT('',(82.254076830873,8.076896932910,57.117423447401));
#420 = CARTESIAN_POINT('',(84.554853839212,8.888803016554,58.774773388621));
#421 = CARTESIAN_POINT('',(86.859251239447,9.553322724335,60.451511275578));
#422 = CARTESIAN_POINT('',(89.171343363934,10.038401368404,62.150465935344));
#423 = CARTESIAN_POINT('',(91.497246993863,10.313314974233,63.876011127101));
#424 = CARTESIAN_POINT('',(93.846038747222,10.347635721086,65.634811097755));
#425 = CARTESIAN_POINT('',(96.230127160906,10.109517716512,67.436181067084));
#426 = CARTESIAN_POINT('',(98.664636861445,9.563720864431,69.291700830532));
#427 = CARTESIAN_POINT('',(101.165722684051,8.670200642156,71.213978969805));
#428 = CARTESIAN_POINT('',(103.748339657598,7.384036265320,73.214936924981));
#429 = CARTESIAN_POINT('',(106.424377068189,5.656808409177,75.304307567662));
#430 = CARTESIAN_POINT('',(109.201846032229,3.438750832317,77.488910307736));
#431 = CARTESIAN_POINT('',(112.085181854586,0.680731494911,79.772792740349));
#432 = CARTESIAN_POINT('',(115.076219144969,-2.664533954606,82.157925136880));
#433 = ( BOUNDED_SURFACE() B_SPLINE_SURFACE(2,1,((#289,#290,#291,#292,#293,#294,#295,#296,#297,#298,#299,#300,#301,#302,#303,#304,#305,#306,#307,#308,#309,#310,#311,#312,#313,#314,#315,#316,#317,#318,#319,#320,#321,#322,#323,#324,#325,#326,#327,#328,#329,#330,#331,#332,#333,#334,#335,#336),(#337,#338,#339,#340,#341,#342,#343,#344,#345,#346,#347,#348,#349,#350,#351,#352,#353,#354,#355,#356,#357,#358,#359,#360,#361,#362,#363,#364,#365,#366,#367,#368,#369,#370,#371,#372,#373,#374,#375,#376,#377,#378,#379,#380,#381,#382,#383,#384),(#385,#386,#387,#388,#389,#390,#391,#392,#393,#394,#395,#396,#397,#398,#399,#400,#401,#402,#403,#404,#405,#406,#407,#408,#409,#410,#411,#412,#413,#414,#415,#416,#417,#418,#419,#420,#421,#422,#423,#424,#425,#426,#427,#428,#429,#430,#431,#432)),.UNSPECIFIED.,.F.,.F.,.F.) B_SPLINE_SURFACE_WITH_KNOTS((3,3),(2,1,1,1,1,1,1,1,1,1,1,1,1,1,1,1,1,1,1,1,1,1,1,1,1,1,1,1,1,1,1,1,1,1,1,1,1,1,1,1,1,1,1,1,1,1,1,2),(0.000000000000,1.000000000000),(0.000000000000,0.021276595745,0.042553191489,0.063829787234,0.085106382979,0.106382978723,0.127659574468,0.148936170213,0.170212765957,0.191489361702,0.212765957447,0.234042553191,0.255319148936,0.276595744681,0.297872340426,0.319148936170,0.340425531915,0.361702127660,0.382978723404,0.404255319149,0.425531914894,0.446808510638,0.468085106383,0.489361702128,0.510638297872,0.531914893617,0.553191489362,0.574468085106,0.595744680851,0.617021276596,0.638297872340,0.659574468085,0.680851063830,0.702127659574,0.723404255319,0.744680851064,0.765957446809,0.787234042553,0.808510638298,0.829787234043,0.851063829787,0.872340425532,0.893617021277,0.914893617021,0.936170212766,0.957446808511,0.978723404255,1.000000000000),.UNSPECIFIED.) GEOMETRIC_REPRESENTATION_ITEM() RATIONAL_B_SPLINE_SURFACE(((1.000000000000,1.000000000000,1.000000000000,1.000000000000,1.000000000000,1.000000000000,1.000000000000,1.000000000000,1.000000000000,1.000000000000,1.000000000000,1.000000000000,1.000000000000,1.000000000000,1.000000000000,1.000000000000,1.000000000000,1.000000000000,1.000000000000,1.000000000000,1.000000000000,1.000000000000,1.000000000000,1.000000000000,1.000000000000,1.000000000000,1.000000000000,1.000000000000,1.000000000000,1.000000000000,1.000000000000,1.000000000000,1.000000000000,1.000000000000,1.000000000000,1.000000000000,1.000000000000,1.000000000000,1.000000000000,1.000000000000,1.000000000000,1.000000000000,1.000000000000,1.000000000000,1.000000000000,1.000000000000,1.000000000000,1.000000000000),(0.707106781187,0.707106781187,0.707106781187,0.707106781187,0.707106781187,0.707106781187,0.707106781187,0.707106781187,0.707106781187,0.707106781187,0.707106781187,0.707106781187,0.707106781187,0.707106781187,0.707106781187,0.707106781187,0.707106781187,0.707106781187,0.707106781187,0.707106781187,0.707106781187,0.707106781187,0.707106781187,0.707106781187,0.707106781187,0.707106781187,0.707106781187,0.707106781187,0.707106781187,0.707106781187,0.707106781187,0.707106781187,0.707106781187,0.707106781187,0.707106781187,0.707106781187,0.707106781187,0.707106781187,0.707106781187,0.707106781187,0.707106781187,0.707106781187,0.707106781187,0.707106781187,0.707106781187,0.707106781187,0.707106781187,0.707106781187),(1.000000000000,1.000000000000,1.000000000000,1.000000000000,1.000000000000,1.000000000000,1.000000000000,1.000000000000,1.000000000000,1.000000000000,1.000000000000,1.000000000000,1.000000000000,1.000000000000,1.000000000000,1.000000000000,1.000000000000,1.000000000000,1.000000000000,1.000000000000,1.000000000000,1.000000000000,1.000000000000,1.000000000000,1.000000000000,1.000000000000,1.000000000000,1.000000000000,1.000000000000,1.000000000000,1.000000000000,1.000000000000,1.000000000000,1.000000000000,1.000000000000,1.000000000000,1.000000000000,1.000000000000,1.000000000000,1.000000000000,1.000000000000,1.000000000000,1.000000000000,1.000000000000,1.000000000000,1.000000000000,1.000000000000,1.000000000000))) REPRESENTATION_ITEM('') SURFACE() );
#434 = CARTESIAN_POINT('',(-0.000000000000,-2.363515791475,5.514870180108));
#435 = VERTEX_POINT('',#434);
#436 = CARTESIAN_POINT('',(-5.015638195287,3.026678221294,1.297147809126));
#437 = CARTESIAN_POINT('',(-5.015638195287,0.663162429819,6.812017989234));
#438 = CARTESIAN_POINT('',(-0.000000000000,-2.363515791475,5.514870180108));
#439 = ( BOUNDED_CURVE() B_SPLINE_CURVE(2,(#436,#437,#438),.UNSPECIFIED.,.F.,.F.) B_SPLINE_CURVE_WITH_KNOTS((3,3),(0.000000000000,1.000000000000),.UNSPECIFIED.) GEOMETRIC_REPRESENTATION_ITEM() RATIONAL_B_SPLINE_CURVE((1.000000000000,0.707106781187,1.000000000000)) REPRESENTATION_ITEM('') );
#440 = EDGE_CURVE('',#167,#435,#439,.T.);
#441 = ORIENTED_EDGE('',*,*,#440,.T.);
#442 = CARTESIAN_POINT('',(115.076219144969,-2.664533954606,82.157925136880));
#443 = VERTEX_POINT('',#442);
#444 = CARTESIAN_POINT('',(-0.000000000000,-2.363515791475,5.514870180108));
#445 = CARTESIAN_POINT('',(3.006572025069,1.569886990704,7.316353620406));
#446 = CARTESIAN_POINT('',(5.899848150371,4.827231958466,9.045539374171));
#447 = CARTESIAN_POINT('',(8.677347299293,7.458248240729,10.701834743335));
#448 = CARTESIAN_POINT('',(11.338715773247,9.516736690850,12.285907442054));
#449 = CARTESIAN_POINT('',(13.888180397117,11.060267767138,13.801125010881));
#450 = CARTESIAN_POINT('',(16.336881929025,12.147944007102,15.254919835403));
#451 = CARTESIAN_POINT('',(18.703498389201,12.836211870281,16.659147241793));
#452 = CARTESIAN_POINT('',(21.011852201415,13.174409624771,18.028674262080));
#453 = CARTESIAN_POINT('',(23.286071511896,13.202709859990,19.378538529284));
#454 = CARTESIAN_POINT('',(25.545833852471,12.953745278659,20.721161869319));
#455 = CARTESIAN_POINT('',(27.804060868522,12.456583950112,22.065005223099));
#456 = CARTESIAN_POINT('',(30.067422786299,11.740579601787,23.414871679847));
#457 = CARTESIAN_POINT('',(32.338396282825,10.837604859943,24.773119519762));
#458 = CARTESIAN_POINT('',(34.617490396569,9.782648053406,26.140973810064));
#459 = CARTESIAN_POINT('',(36.904936317504,8.613457423436,27.519525425029));
#460 = CARTESIAN_POINT('',(39.201746161084,7.369888571890,28.910363596761));
#461 = CARTESIAN_POINT('',(41.510309439014,6.093344650628,30.315942491261));
#462 = CARTESIAN_POINT('',(43.834716853149,4.826490475361,31.739794270117));
#463 = CARTESIAN_POINT('',(46.180917323000,3.613330481808,33.186650873541));
#464 = CARTESIAN_POINT('',(48.556686083133,2.499723377068,34.662457986941));
#465 = CARTESIAN_POINT('',(50.971209503284,1.534385611410,36.174154396188));
#466 = CARTESIAN_POINT('',(53.433877364076,0.770286771642,37.728945303316));
#467 = CARTESIAN_POINT('',(55.951735586022,0.265877078548,39.332691487701));
#468 = CARTESIAN_POINT('',(58.513482443990,0.083058587951,40.979570379624));
#469 = CARTESIAN_POINT('',(61.040242569463,0.230790555505,42.619670421537));
#470 = CARTESIAN_POINT('',(63.516065837126,0.654244193785,44.242765248520));
#471 = CARTESIAN_POINT('',(65.944420030008,1.297625450124,45.851060987017));
#472 = CARTESIAN_POINT('',(68.332854688454,2.109600082284,47.449450529431));
#473 = CARTESIAN_POINT('',(70.690114766075,3.043152038032,49.043684923639));
#474 = CARTESIAN_POINT('',(73.024468542423,4.054604406134,50.639276399667));
#475 = CARTESIAN_POINT('',(75.342975275621,5.102642056717,52.240989215472));
#476 = CARTESIAN_POINT('',(77.651307024905,6.147644898284,53.852688157430));
#477 = CARTESIAN_POINT('',(79.953865268674,7.151366877799,55.477386280497));
#478 = CARTESIAN_POINT('',(82.254076830873,8.076896932910,57.117423447401));
#479 = CARTESIAN_POINT('',(84.554853839212,8.888803016554,58.774773388621));
#480 = CARTESIAN_POINT('',(86.859251239447,9.553322724335,60.451511275578));
#481 = CARTESIAN_POINT('',(89.171343363934,10.038401368404,62.150465935344));
#482 = CARTESIAN_POINT('',(91.497246993863,10.313314974233,63.876011127101));
#483 = CARTESIAN_POINT('',(93.846038747222,10.347635721086,65.634811097755));
#484 = CARTESIAN_POINT('',(96.230127160906,10.109517716512,67.436181067084));
#485 = CARTESIAN_POINT('',(98.664636861445,9.563720864431,69.291700830532));
#486 = CARTESIAN_POINT('',(101.165722684051,8.670200642156,71.213978969805));
#487 = CARTESIAN_POINT('',(103.748339657598,7.384036265320,73.214936924981));
#488 = CARTESIAN_POINT('',(106.424377068189,5.656808409177,75.304307567662));
#489 = CARTESIAN_POINT('',(109.201846032229,3.438750832317,77.488910307736));
#490 = CARTESIAN_POINT('',(112.085181854586,0.680731494911,79.772792740349));
#491 = CARTESIAN_POINT('',(115.076219144969,-2.664533954606,82.157925136880));
#492 = B_SPLINE_CURVE_WITH_KNOTS('',1,(#444,#445,#446,#447,#448,#449,#450,#451,#452,#453,#454,#455,#456,#457,#458,#459,#460,#461,#462,#463,#464,#465,#466,#467,#468,#469,#470,#471,#472,#473,#474,#475,#476,#477,#478,#479,#480,#481,#482,#483,#484,#485,#486,#487,#488,#489,#490,#491),.UNSPECIFIED.,.F.,.F.,(2,1,1,1,1,1,1,1,1,1,1,1,1,1,1,1,1,1,1,1,1,1,1,1,1,1,1,1,1,1,1,1,1,1,1,1,1,1,1,1,1,1,1,1,1,1,1,2),(0.000000000000,0.021276595745,0.042553191489,0.063829787234,0.085106382979,0.106382978723,0.127659574468,0.148936170213,0.170212765957,0.191489361702,0.212765957447,0.234042553191,0.255319148936,0.276595744681,0.297872340426,0.319148936170,0.340425531915,0.361702127660,0.382978723404,0.404255319149,0.425531914894,0.446808510638,0.468085106383,0.489361702128,0.510638297872,0.531914893617,0.553191489362,0.574468085106,0.595744680851,0.617021276596,0.638297872340,0.659574468085,0.680851063830,0.702127659574,0.723404255319,0.744680851064,0.765957446809,0.787234042553,0.808510638298,0.829787234043,0.851063829787,0.872340425532,0.893617021277,0.914893617021,0.936170212766,0.957446808511,0.978723404255,1.000000000000),.UNSPECIFIED.);
#493 = EDGE_CURVE('',#435,#443,#492,.T.);
#494 = ORIENTED_EDGE('',*,*,#493,.T.);
#495 = CARTESIAN_POINT('',(120.260903053480,3.474059581179,84.884960554918));
#496 = CARTESIAN_POINT('',(115.337122198449,0.809525626573,87.042885691798));
#497 = CARTESIAN_POINT('',(115.076219144969,-2.664533954606,82.157925136880));
#498 = ( BOUNDED_CURVE() B_SPLINE_CURVE(2,(#495,#496,#497),.UNSPECIFIED.,.F.,.F.) B_SPLINE_CURVE_WITH_KNOTS((3,3),(0.000000000000,1.000000000000),.UNSPECIFIED.) GEOMETRIC_REPRESENTATION_ITEM() RATIONAL_B_SPLINE_CURVE((1.000000000000,0.707106781187,1.000000000000)) REPRESENTATION_ITEM('') );
#499 = EDGE_CURVE('',#175,#443,#498,.T.);
#500 = ORIENTED_EDGE('',*,*,#499,.F.);
#501 = ORIENTED_EDGE('',*,*,#225,.F.);
#502 = EDGE_LOOP('',(#441,#494,#500,#501));
#503 = FACE_OUTER_BOUND('',#502,.T.);
#504 = ADVANCED_FACE('',(#503) ,#433,.T.);
#505 = CARTESIAN_POINT('',(-0.000000000000,-2.363515791475,5.514870180108));
#506 = CARTESIAN_POINT('',(3.006572025069,1.569886990704,7.316353620406));
#507 = CARTESIAN_POINT('',(5.899848150371,4.827231958466,9.045539374171));
#508 = CARTESIAN_POINT('',(8.677347299293,7.458248240729,10.701834743335));
#509 = CARTESIAN_POINT('',(11.338715773247,9.516736690850,12.285907442054));
#510 = CARTESIAN_POINT('',(13.888180397117,11.060267767138,13.801125010881));
#511 = CARTESIAN_POINT('',(16.336881929025,12.147944007102,15.254919835403));
#512 = CARTESIAN_POINT('',(18.703498389201,12.836211870281,16.659147241793));
#513 = CARTESIAN_POINT('',(21.011852201415,13.174409624771,18.028674262080));
#514 = CARTESIAN_POINT('',(23.286071511896,13.202709859990,19.378538529284));
#515 = CARTESIAN_POINT('',(25.545833852471,12.953745278659,20.721161869319));
#516 = CARTESIAN_POINT('',(27.804060868522,12.456583950112,22.065005223099));
#517 = CARTESIAN_POINT('',(30.067422786299,11.740579601787,23.414871679847));
#518 = CARTESIAN_POINT('',(32.338396282825,10.837604859943,24.773119519762));
#519 = CARTESIAN_POINT('',(34.617490396569,9.782648053406,26.140973810064));
#520 = CARTESIAN_POINT('',(36.904936317504,8.613457423436,27.519525425029));
#521 = CARTESIAN_POINT('',(39.201746161084,7.369888571890,28.910363596761));
#522 = CARTESIAN_POINT('',(41.510309439014,6.093344650628,30.315942491261));
#523 = CARTESIAN_POINT('',(43.834716853149,4.826490475361,31.739794270117));
#524 = CARTESIAN_POINT('',(46.180917323000,3.613330481808,33.186650873541));
#525 = CARTESIAN_POINT('',(48.556686083133,2.499723377068,34.662457986941));
#526 = CARTESIAN_POINT('',(50.971209503284,1.534385611410,36.174154396188));
#527 = CARTESIAN_POINT('',(53.433877364076,0.770286771642,37.728945303316));
#528 = CARTESIAN_POINT('',(55.951735586022,0.265877078548,39.332691487701));
#529 = CARTESIAN_POINT('',(58.513482443990,0.083058587951,40.979570379624));
#530 = CARTESIAN_POINT('',(61.040242569463,0.230790555505,42.619670421537));
#531 = CARTESIAN_POINT('',(63.516065837126,0.654244193785,44.242765248520));
#532 = CARTESIAN_POINT('',(65.944420030008,1.297625450124,45.851060987017));
#533 = CARTESIAN_POINT('',(68.332854688454,2.109600082284,47.449450529431));
#534 = CARTESIAN_POINT('',(70.690114766075,3.043152038032,49.043684923639));
#535 = CARTESIAN_POINT('',(73.024468542423,4.054604406134,50.639276399667));
#536 = CARTESIAN_POINT('',(75.342975275621,5.102642056717,52.240989215472));
#537 = CARTESIAN_POINT('',(77.651307024905,6.147644898284,53.852688157430));
#538 = CARTESIAN_POINT('',(79.953865268674,7.151366877799,55.477386280497));
#539 = CARTESIAN_POINT('',(82.254076830873,8.076896932910,57.117423447401));
#540 = CARTESIAN_POINT('',(84.554853839212,8.888803016554,58.774773388621));
#541 = CARTESIAN_POINT('',(86.859251239447,9.553322724335,60.451511275578));
#542 = CARTESIAN_POINT('',(89.171343363934,10.038401368404,62.150465935344));
#543 = CARTESIAN_POINT('',(91.497246993863,10.313314974233,63.876011127101));
#544 = CARTESIAN_POINT('',(93.846038747222,10.347635721086,65.634811097755));
#545 = CARTESIAN_POINT('',(96.230127160906,10.109517716512,67.436181067084));
#546 = CARTESIAN_POINT('',(98.664636861445,9.563720864431,69.291700830532));
#547 = CARTESIAN_POINT('',(101.165722684051,8.670200642156,71.213978969805));
#548 = CARTESIAN_POINT('',(103.748339657598,7.384036265320,73.214936924981));
#549 = CARTESIAN_POINT('',(106.424377068189,5.656808409177,75.304307567662));
#550 = CARTESIAN_POINT('',(109.201846032229,3.438750832317,77.488910307736));
#551 = CARTESIAN_POINT('',(112.085181854586,0.680731494911,79.772792740349));
#552 = CARTESIAN_POINT('',(115.076219144969,-2.664533954606,82.157925136880));
#553 = CARTESIAN_POINT('',(5.015638195287,-5.390194012769,4.217722370982));
#554 = CARTESIAN_POINT('',(7.832255051464,-1.704555131951,5.905392205571));
#555 = CARTESIAN_POINT('',(10.489807133834,1.288295722968,7.493699546352));
#556 = CARTESIAN_POINT('',(12.978271919778,3.646530174258,8.977638469516));
#557 = CARTESIAN_POINT('',(15.292606181635,5.437651372322,10.355152770269));
#558 = CARTESIAN_POINT('',(17.438379239010,6.737743018287,11.630441252571));
#559 = CARTESIAN_POINT('',(19.437091924677,7.626264918144,12.817069101799));
#560 = CARTESIAN_POINT('',(21.327524216405,8.176396574539,13.938741046436));
#561 = CARTESIAN_POINT('',(23.160142001395,8.444841282083,15.026003080091));
#562 = CARTESIAN_POINT('',(24.985928432743,8.467196940359,16.109684932585));
#563 = CARTESIAN_POINT('',(26.845480956909,8.261801972341,17.214513125258));
#564 = CARTESIAN_POINT('',(28.763795759841,7.838933425577,18.356068371162));
#565 = CARTESIAN_POINT('',(30.751514583946,7.209655782325,19.541533616286));
#566 = CARTESIAN_POINT('',(32.809713265517,6.390916277915,20.772516945613));
#567 = CARTESIAN_POINT('',(34.935044269103,5.406874013642,22.048082278278));
#568 = CARTESIAN_POINT('',(37.123627043080,4.288052959600,23.367050188405));
#569 = CARTESIAN_POINT('',(39.373481075873,3.069831477128,24.729452679171));
#570 = CARTESIAN_POINT('',(41.685896825304,1.791163569458,26.137377305148));
#571 = CARTESIAN_POINT('',(44.066181539843,0.493948922976,27.595459848806));
#572 = CARTESIAN_POINT('',(46.524018338865,-0.776737926732,29.111165496159));
#573 = CARTESIAN_POINT('',(49.073374301490,-1.971386051006,30.694812114739));
#574 = CARTESIAN_POINT('',(51.731485150278,-3.033632346510,32.359027546829));
#575 = CARTESIAN_POINT('',(54.515935373428,-3.896931809807,34.116989991110));
#576 = CARTESIAN_POINT('',(57.438534583546,-4.481667602173,35.978552515400));
#577 = CARTESIAN_POINT('',(60.467910225817,-4.697772698074,37.926070050462));
#578 = CARTESIAN_POINT('',(63.415292685232,-4.526109630562,39.839196079382));
#579 = CARTESIAN_POINT('',(66.237880095132,-4.043965523869,41.689619621288));
#580 = CARTESIAN_POINT('',(68.938451909880,-3.328961510204,43.478200645396));
#581 = CARTESIAN_POINT('',(71.529744117788,-2.448387084871,45.212342807246));
#582 = CARTESIAN_POINT('',(74.027599102602,-1.459394769317,46.901660051920));
#583 = CARTESIAN_POINT('',(76.446948490691,-0.411251472710,48.555346872764));
#584 = CARTESIAN_POINT('',(78.800018386545,0.652356997483,50.180936832455));
#585 = CARTESIAN_POINT('',(81.095855013426,1.691721547038,51.783911648815));
#586 = CARTESIAN_POINT('',(83.340552320396,2.670304007935,53.367782912557));
#587 = CARTESIAN_POINT('',(85.537897514477,3.554589320015,54.934476912948));
#588 = CARTESIAN_POINT('',(87.690386109595,4.314372774488,56.485008042159));
#589 = CARTESIAN_POINT('',(89.800676124042,4.923177381095,58.020508653456));
#590 = CARTESIAN_POINT('',(91.873532168231,5.358358922873,59.543671280223));
#591 = CARTESIAN_POINT('',(93.918108044103,5.600313570346,61.060509476882));
#592 = CARTESIAN_POINT('',(95.950021207740,5.630239036469,62.582037551323));
#593 = CARTESIAN_POINT('',(97.992251364192,5.426376262018,64.125123168256));
#594 = CARTESIAN_POINT('',(100.073871953127,4.959626887065,65.711704307635));
#595 = CARTESIAN_POINT('',(102.226401310213,4.190363266003,67.366120093076));
#596 = CARTESIAN_POINT('',(104.478901494237,3.068157965636,69.111344120479));
#597 = CARTESIAN_POINT('',(106.853820122637,1.534724141946,70.965644183988));
#598 = CARTESIAN_POINT('',(109.365119291531,-0.471385400890,72.940924327046));
#599 = CARTESIAN_POINT('',(112.018863329370,-3.010397329377,75.042975634400));
#600 = CARTESIAN_POINT('',(114.815316091488,-6.138593535785,77.272964581962));
#601 = CARTESIAN_POINT('',(5.015638195287,-3.026678221294,-1.297147809126));
#602 = CARTESIAN_POINT('',(7.977007877343,0.847765865941,0.477252179456));
#603 = CARTESIAN_POINT('',(10.814591290371,4.042620837598,2.173153670732));
#604 = CARTESIAN_POINT('',(13.524314428138,6.609672184244,3.789032972109));
#605 = CARTESIAN_POINT('',(16.104955201353,8.605965200143,5.325055697786));
#606 = CARTESIAN_POINT('',(18.561323544512,10.093356125329,6.784942644317));
#607 = CARTESIAN_POINT('',(20.907246972045,11.135545225500,8.177716144641));
#608 = CARTESIAN_POINT('',(23.166294881267,11.792608540980,9.518115134214));
#609 = CARTESIAN_POINT('',(25.368578175388,12.115254095500,10.824708107764));
#610 = CARTESIAN_POINT('',(27.544419301052,12.142250196441,12.116176695240));
#611 = CARTESIAN_POINT('',(29.718205612668,11.902645561274,13.407715125216));
#612 = CARTESIAN_POINT('',(31.905479090581,11.420992165429,14.709332702979));
#613 = CARTESIAN_POINT('',(34.113678690725,10.722343760940,16.026298818440));
#614 = CARTESIAN_POINT('',(36.344871012146,9.835117954096,17.360752809533));
#615 = CARTESIAN_POINT('',(38.598666920702,8.791828514583,18.713423061319));
#616 = CARTESIAN_POINT('',(40.874422114575,7.628594168451,20.084928806796));
#617 = CARTESIAN_POINT('',(43.172611406510,6.384280672399,21.476602350183));
#618 = CARTESIAN_POINT('',(45.495603182405,5.099781875015,22.890966613199));
#619 = CARTESIAN_POINT('',(47.848081428648,3.817675644190,24.332014749874));
#620 = CARTESIAN_POINT('',(50.237247784885,2.582375077008,25.805369539159));
#621 = CARTESIAN_POINT('',(52.672761535445,1.440875392245,27.318292696324));
#622 = CARTESIAN_POINT('',(55.166139472929,0.444166240186,28.879362810928));
#623 = CARTESIAN_POINT('',(57.729043744690,-0.350833965324,30.497442412769));
#624 = CARTESIAN_POINT('',(60.369705482600,-0.879615609129,32.179413323432));
#625 = CARTESIAN_POINT('',(63.071521296752,-1.072404444188,33.916342576553));
#626 = CARTESIAN_POINT('',(65.728064380431,-0.917288539322,35.640684745908));
#627 = CARTESIAN_POINT('',(68.315950432071,-0.474868068887,37.337244748696));
#628 = CARTESIAN_POINT('',(70.837958562784,0.193154330138,39.007565960837));
#629 = CARTESIAN_POINT('',(73.302742660314,1.030947847244,40.657048678613));
#630 = CARTESIAN_POINT('',(75.720867594573,1.988500455782,42.292445332378));
#631 = CARTESIAN_POINT('',(78.102464152154,3.020346600375,43.920327718602));
#632 = CARTESIAN_POINT('',(80.456166619203,4.084240045994,45.546354675150));
#633 = CARTESIAN_POINT('',(82.788816599522,5.140216232469,47.175032666616));
#634 = CARTESIAN_POINT('',(85.105574003554,6.150107487379,48.809749761905));
#635 = CARTESIAN_POINT('',(87.410266654150,7.077434255477,50.452981920705));
#636 = CARTESIAN_POINT('',(89.705945377305,7.887548317598,52.106659337857));
#637 = CARTESIAN_POINT('',(91.995680685332,8.547859530440,53.772728728350));
#638 = CARTESIAN_POINT('',(94.283630296066,9.027902807448,55.453943331645));
#639 = CARTESIAN_POINT('',(96.576298670035,9.298922736236,57.154832476131));
#640 = CARTESIAN_POINT('',(98.883694085110,9.332669293056,58.882635755939));
#641 = CARTESIAN_POINT('',(101.219855149223,9.099353753697,60.647795149148));
#642 = CARTESIAN_POINT('',(103.602198115289,8.565242296870,62.463558373417));
#643 = CARTESIAN_POINT('',(106.049553923544,7.690876242217,64.344545503803));
#644 = CARTESIAN_POINT('',(108.579497043674,6.430873383469,66.304698229276));
#645 = CARTESIAN_POINT('',(111.206053246795,4.735490643916,68.355441005527));
#646 = CARTESIAN_POINT('',(113.938640952395,2.553171511704,70.504747999257));
#647 = CARTESIAN_POINT('',(116.782356623835,-0.167054197278,72.757252233215));
#648 = CARTESIAN_POINT('',(119.739096946520,-3.474059581179,75.115039445082));
#649 = ( BOUNDED_SURFACE() B_SPLINE_SURFACE(2,1,((#505,#506,#507,#508,#509,#510,#511,#512,#513,#514,#515,#516,#517,#518,#519,#520,#521,#522,#523,#524,#525,#526,#527,#528,#529,#530,#531,#532,#533,#534,#535,#536,#537,#538,#539,#540,#541,#542,#543,#544,#545,#546,#547,#548,#549,#550,#551,#552),(#553,#554,#555,#556,#557,#558,#559,#560,#561,#562,#563,#564,#565,#566,#567,#568,#569,#570,#571,#572,#573,#574,#575,#576,#577,#578,#579,#580,#581,#582,#583,#584,#585,#586,#587,#588,#589,#590,#591,#592,#593,#594,#595,#596,#597,#598,#599,#600),(#601,#602,#603,#604,#605,#606,#607,#608,#609,#610,#611,#612,#613,#614,#615,#616,#617,#618,#619,#620,#621,#622,#623,#624,#625,#626,#627,#628,#629,#630,#631,#632,#633,#634,#635,#636,#637,#638,#639,#640,#641,#642,#643,#644,#645,#646,#647,#648)),.UNSPECIFIED.,.F.,.F.,.F.) B_SPLINE_SURFACE_WITH_KNOTS((3,3),(2,1,1,1,1,1,1,1,1,1,1,1,1,1,1,1,1,1,1,1,1,1,1,1,1,1,1,1,1,1,1,1,1,1,1,1,1,1,1,1,1,1,1,1,1,1,1,2),(0.000000000000,1.000000000000),(0.000000000000,0.021276595745,0.042553191489,0.063829787234,0.085106382979,0.106382978723,0.127659574468,0.148936170213,0.170212765957,0.191489361702,0.212765957447,0.234042553191,0.255319148936,0.276595744681,0.297872340426,0.319148936170,0.340425531915,0.361702127660,0.382978723404,0.404255319149,0.425531914894,0.446808510638,0.468085106383,0.489361702128,0.510638297872,0.531914893617,0.553191489362,0.574468085106,0.595744680851,0.617021276596,0.638297872340,0.659574468085,0.680851063830,0.702127659574,0.723404255319,0.744680851064,0.765957446809,0.787234042553,0.808510638298,0.829787234043,0.851063829787,0.872340425532,0.893617021277,0.914893617021,0.936170212766,0.957446808511,0.978723404255,1.000000000000),.UNSPECIFIED.) GEOMETRIC_REPRESENTATION_ITEM() RATIONAL_B_SPLINE_SURFACE(((1.000000000000,1.000000000000,1.000000000000,1.000000000000,1.000000000000,1.000000000000,1.000000000000,1.000000000000,1.000000000000,1.000000000000,1.000000000000,1.000000000000,1.000000000000,1.000000000000,1.000000000000,1.000000000000,1.000000000000,1.000000000000,1.000000000000,1.000000000000,1.000000000000,1.000000000000,1.000000000000,1.000000000000,1.000000000000,1.000000000000,1.000000000000,1.000000000000,1.000000000000,1.000000000000,1.000000000000,1.000000000000,1.000000000000,1.000000000000,1.000000000000,1.000000000000,1.000000000000,1.000000000000,1.000000000000,1.000000000000,1.000000000000,1.000000000000,1.000000000000,1.000000000000,1.000000000000,1.000000000000,1.000000000000,1.000000000000),(0.707106781187,0.707106781187,0.707106781187,0.707106781187,0.707106781187,0.707106781187,0.707106781187,0.707106781187,0.707106781187,0.707106781187,0.707106781187,0.707106781187,0.707106781187,0.707106781187,0.707106781187,0.707106781187,0.707106781187,0.707106781187,0.707106781187,0.707106781187,0.707106781187,0.707106781187,0.707106781187,0.707106781187,0.707106781187,0.707106781187,0.707106781187,0.707106781187,0.707106781187,0.707106781187,0.707106781187,0.707106781187,0.707106781187,0.707106781187,0.707106781187,0.707106781187,0.707106781187,0.707106781187,0.707106781187,0.707106781187,0.707106781187,0.707106781187,0.707106781187,0.707106781187,0.707106781187,0.707106781187,0.707106781187,0.707106781187),(1.000000000000,1.000000000000,1.000000000000,1.000000000000,1.000000000000,1.000000000000,1.000000000000,1.000000000000,1.000000000000,1.000000000000,1.000000000000,1.000000000000,1.000000000000,1.000000000000,1.000000000000,1.000000000000,1.000000000000,1.000000000000,1.000000000000,1.000000000000,1.000000000000,1.000000000000,1.000000000000,1.000000000000,1.000000000000,1.000000000000,1.000000000000,1.000000000000,1.000000000000,1.000000000000,1.000000000000,1.000000000000,1.000000000000,1.000000000000,1.000000000000,1.000000000000,1.000000000000,1.000000000000,1.000000000000,1.000000000000,1.000000000000,1.000000000000,1.000000000000,1.000000000000,1.000000000000,1.000000000000,1.000000000000,1.000000000000))) REPRESENTATION_ITEM('') SURFACE() );
#650 = CARTESIAN_POINT('',(5.015638195287,-3.026678221294,-1.297147809126));
#651 = VERTEX_POINT('',#650);
#652 = CARTESIAN_POINT('',(-0.000000000000,-2.363515791475,5.514870180108));
#653 = CARTESIAN_POINT('',(5.015638195287,-5.390194012769,4.217722370982));
#654 = CARTESIAN_POINT('',(5.015638195287,-3.026678221294,-1.297147809126));
#655 = ( BOUNDED_CURVE() B_SPLINE_CURVE(2,(#652,#653,#654),.UNSPECIFIED.,.F.,.F.) B_SPLINE_CURVE_WITH_KNOTS((3,3),(0.000000000000,1.000000000000),.UNSPECIFIED.) GEOMETRIC_REPRESENTATION_ITEM() RATIONAL_B_SPLINE_CURVE((1.000000000000,0.707106781187,1.000000000000)) REPRESENTATION_ITEM('') );
#656 = EDGE_CURVE('',#435,#651,#655,.T.);
#657 = ORIENTED_EDGE('',*,*,#656,.T.);
#658 = CARTESIAN_POINT('',(119.739096946520,-3.474059581179,75.115039445082));
#659 = VERTEX_POINT('',#658);
#660 = CARTESIAN_POINT('',(5.015638195287,-3.026678221294,-1.297147809126));
#661 = CARTESIAN_POINT('',(7.977007877343,0.847765865941,0.477252179456));
#662 = CARTESIAN_POINT('',(10.814591290371,4.042620837598,2.173153670732));
#663 = CARTESIAN_POINT('',(13.524314428138,6.609672184244,3.789032972109));
#664 = CARTESIAN_POINT('',(16.104955201353,8.605965200143,5.325055697786));
#665 = CARTESIAN_POINT('',(18.561323544512,10.093356125329,6.784942644317));
#666 = CARTESIAN_POINT('',(20.907246972045,11.135545225500,8.177716144641));
#667 = CARTESIAN_POINT('',(23.166294881267,11.792608540980,9.518115134214));
#668 = CARTESIAN_POINT('',(25.368578175388,12.115254095500,10.824708107764));
#669 = CARTESIAN_POINT('',(27.544419301052,12.142250196441,12.116176695240));
#670 = CARTESIAN_POINT('',(29.718205612668,11.902645561274,13.407715125216));
#671 = CARTESIAN_POINT('',(31.905479090581,11.420992165429,14.709332702979));
#672 = CARTESIAN_POINT('',(34.113678690725,10.722343760940,16.026298818440));
#673 = CARTESIAN_POINT('',(36.344871012146,9.835117954096,17.360752809533));
#674 = CARTESIAN_POINT('',(38.598666920702,8.791828514583,18.713423061319));
#675 = CARTESIAN_POINT('',(40.874422114575,7.628594168451,20.084928806796));
#676 = CARTESIAN_POINT('',(43.172611406510,6.384280672399,21.476602350183));
#677 = CARTESIAN_POINT('',(45.495603182405,5.099781875015,22.890966613199));
#678 = CARTESIAN_POINT('',(47.848081428648,3.817675644190,24.332014749874));
#679 = CARTESIAN_POINT('',(50.237247784885,2.582375077008,25.805369539159));
#680 = CARTESIAN_POINT('',(52.672761535445,1.440875392245,27.318292696324));
#681 = CARTESIAN_POINT('',(55.166139472929,0.444166240186,28.879362810928));
#682 = CARTESIAN_POINT('',(57.729043744690,-0.350833965324,30.497442412769));
#683 = CARTESIAN_POINT('',(60.369705482600,-0.879615609129,32.179413323432));
#684 = CARTESIAN_POINT('',(63.071521296752,-1.072404444188,33.916342576553));
#685 = CARTESIAN_POINT('',(65.728064380431,-0.917288539322,35.640684745908));
#686 = CARTESIAN_POINT('',(68.315950432071,-0.474868068887,37.337244748696));
#687 = CARTESIAN_POINT('',(70.837958562784,0.193154330138,39.007565960837));
#688 = CARTESIAN_POINT('',(73.302742660314,1.030947847244,40.657048678613));
#689 = CARTESIAN_POINT('',(75.720867594573,1.988500455782,42.292445332378));
#690 = CARTESIAN_POINT('',(78.102464152154,3.020346600375,43.920327718602));
#691 = CARTESIAN_POINT('',(80.456166619203,4.084240045994,45.546354675150));
#692 = CARTESIAN_POINT('',(82.788816599522,5.140216232469,47.175032666616));
#693 = CARTESIAN_POINT('',(85.105574003554,6.150107487379,48.809749761905));
#694 = CARTESIAN_POINT('',(87.410266654150,7.077434255477,50.452981920705));
#695 = CARTESIAN_POINT('',(89.705945377305,7.887548317598,52.106659337857));
#696 = CARTESIAN_POINT('',(91.995680685332,8.547859530440,53.772728728350));
#697 = CARTESIAN_POINT('',(94.283630296066,9.027902807448,55.453943331645));
#698 = CARTESIAN_POINT('',(96.576298670035,9.298922736236,57.154832476131));
#699 = CARTESIAN_POINT('',(98.883694085110,9.332669293056,58.882635755939));
#700 = CARTESIAN_POINT('',(101.219855149223,9.099353753697,60.647795149148));
#701 = CARTESIAN_POINT('',(103.602198115289,8.565242296870,62.463558373417));
#702 = CARTESIAN_POINT('',(106.049553923544,7.690876242217,64.344545503803));
#703 = CARTESIAN_POINT('',(108.579497043674,6.430873383469,66.304698229276));
#704 = CARTESIAN_POINT('',(111.206053246795,4.735490643916,68.355441005527));
#705 = CARTESIAN_POINT('',(113.938640952395,2.553171511704,70.504747999257));
#706 = CARTESIAN_POINT('',(116.782356623835,-0.167054197278,72.757252233215));
#707 = CARTESIAN_POINT('',(119.739096946520,-3.474059581179,75.115039445082));
#708 = B_SPLINE_CURVE_WITH_KNOTS('',1,(#660,#661,#662,#663,#664,#665,#666,#667,#668,#669,#670,#671,#672,#673,#674,#675,#676,#677,#678,#679,#680,#681,#682,#683,#684,#685,#686,#687,#688,#689,#690,#691,#692,#693,#694,#695,#696,#697,#698,#699,#700,#701,#702,#703,#704,#705,#706,#707),.UNSPECIFIED.,.F.,.F.,(2,1,1,1,1,1,1,1,1,1,1,1,1,1,1,1,1,1,1,1,1,1,1,1,1,1,1,1,1,1,1,1,1,1,1,1,1,1,1,1,1,1,1,1,1,1,1,2),(0.000000000000,0.021276595745,0.042553191489,0.063829787234,0.085106382979,0.106382978723,0.127659574468,0.148936170213,0.170212765957,0.191489361702,0.212765957447,0.234042553191,0.255319148936,0.276595744681,0.297872340426,0.319148936170,0.340425531915,0.361702127660,0.382978723404,0.404255319149,0.425531914894,0.446808510638,0.468085106383,0.489361702128,0.510638297872,0.531914893617,0.553191489362,0.574468085106,0.595744680851,0.617021276596,0.638297872340,0.659574468085,0.680851063830,0.702127659574,0.723404255319,0.744680851064,0.765957446809,0.787234042553,0.808510638298,0.829787234043,0.851063829787,0.872340425532,0.893617021277,0.914893617021,0.936170212766,0.957446808511,0.978723404255,1.000000000000),.UNSPECIFIED.);
#709 = EDGE_CURVE('',#651,#659,#708,.T.);
#710 = ORIENTED_EDGE('',*,*,#709,.T.);
#711 = CARTESIAN_POINT('',(115.076219144969,-2.664533954606,82.157925136880));
#712 = CARTESIAN_POINT('',(114.815316091488,-6.138593535785,77.272964581962));
#713 = CARTESIAN_POINT('',(119.739096946520,-3.474059581179,75.115039445082));
#714 = ( BOUNDED_CURVE() B_SPLINE_CURVE(2,(#711,#712,#713),.UNSPECIFIED.,.F.,.F.) B_SPLINE_CURVE_WITH_KNOTS((3,3),(0.000000000000,1.000000000000),.UNSPECIFIED.) GEOMETRIC_REPRESENTATION_ITEM() RATIONAL_B_SPLINE_CURVE((1.000000000000,0.707106781187,1.000000000000)) REPRESENTATION_ITEM('') );
#715 = EDGE_CURVE('',#443,#659,#714,.T.);
#716 = ORIENTED_EDGE('',*,*,#715,.F.);
#717 = ORIENTED_EDGE('',*,*,#493,.F.);
#718 = EDGE_LOOP('',(#657,#710,#716,#717));
#719 = FACE_OUTER_BOUND('',#718,.T.);
#720 = ADVANCED_FACE('',(#719) ,#649,.T.);
#721 = CARTESIAN_POINT('',(5.015638195287,-3.026678221294,-1.297147809126));
#722 = CARTESIAN_POINT('',(7.977007877343,0.847765865941,0.477252179456));
#723 = CARTESIAN_POINT('',(10.814591290371,4.042620837598,2.173153670732));
#724 = CARTESIAN_POINT('',(13.524314428138,6.609672184244,3.789032972109));
#725 = CARTESIAN_POINT('',(16.104955201353,8.605965200143,5.325055697786));
#726 = CARTESIAN_POINT('',(18.561323544512,10.093356125329,6.784942644317));
#727 = CARTESIAN_POINT('',(20.907246972045,11.135545225500,8.177716144641));
#728 = CARTESIAN_POINT('',(23.166294881267,11.792608540980,9.518115134214));
#729 = CARTESIAN_POINT('',(25.368578175388,12.115254095500,10.824708107764));
#730 = CARTESIAN_POINT('',(27.544419301052,12.142250196441,12.116176695240));
#731 = CARTESIAN_POINT('',(29.718205612668,11.902645561274,13.407715125216));
#732 = CARTESIAN_POINT('',(31.905479090581,11.420992165429,14.709332702979));
#733 = CARTESIAN_POINT('',(34.113678690725,10.722343760940,16.026298818440));
#734 = CARTESIAN_POINT('',(36.344871012146,9.835117954096,17.360752809533));
#735 = CARTESIAN_POINT('',(38.598666920702,8.791828514583,18.713423061319));
#736 = CARTESIAN_POINT('',(40.874422114575,7.628594168451,20.084928806796));
#737 = CARTESIAN_POINT('',(43.172611406510,6.384280672399,21.476602350183));
#738 = CARTESIAN_POINT('',(45.495603182405,5.099781875015,22.890966613199));
#739 = CARTESIAN_POINT('',(47.848081428648,3.817675644190,24.332014749874));
#740 = CARTESIAN_POINT('',(50.237247784885,2.582375077008,25.805369539159));
#741 = CARTESIAN_POINT('',(52.672761535445,1.440875392245,27.318292696324));
#742 = CARTESIAN_POINT('',(55.166139472929,0.444166240186,28.879362810928));
#743 = CARTESIAN_POINT('',(57.729043744690,-0.350833965324,30.497442412769));
#744 = CARTESIAN_POINT('',(60.369705482600,-0.879615609129,32.179413323432));
#745 = CARTESIAN_POINT('',(63.071521296752,-1.072404444188,33.916342576553));
#746 = CARTESIAN_POINT('',(65.728064380431,-0.917288539322,35.640684745908));
#747 = CARTESIAN_POINT('',(68.315950432071,-0.474868068887,37.337244748696));
#748 = CARTESIAN_POINT('',(70.837958562784,0.193154330138,39.007565960837));
#749 = CARTESIAN_POINT('',(73.302742660314,1.030947847244,40.657048678613));
#750 = CARTESIAN_POINT('',(75.720867594573,1.988500455782,42.292445332378));
#751 = CARTESIAN_POINT('',(78.102464152154,3.020346600375,43.920327718602));
#752 = CARTESIAN_POINT('',(80.456166619203,4.084240045994,45.546354675150));
#753 = CARTESIAN_POINT('',(82.788816599522,5.140216232469,47.175032666616));
#754 = CARTESIAN_POINT('',(85.105574003554,6.150107487379,48.809749761905));
#755 = CARTESIAN_POINT('',(87.410266654150,7.077434255477,50.452981920705));
#756 = CARTESIAN_POINT('',(89.705945377305,7.887548317598,52.106659337857));
#757 = CARTESIAN_POINT('',(91.995680685332,8.547859530440,53.772728728350));
#758 = CARTESIAN_POINT('',(94.283630296066,9.027902807448,55.453943331645));
#759 = CARTESIAN_POINT('',(96.576298670035,9.298922736236,57.154832476131));
#760 = CARTESIAN_POINT('',(98.883694085110,9.332669293056,58.882635755939));
#761 = CARTESIAN_POINT('',(101.219855149223,9.099353753697,60.647795149148));
#762 = CARTESIAN_POINT('',(103.602198115289,8.565242296870,62.463558373417));
#763 = CARTESIAN_POINT('',(106.049553923544,7.690876242217,64.344545503803));
#764 = CARTESIAN_POINT('',(108.579497043674,6.430873383469,66.304698229276));
#765 = CARTESIAN_POINT('',(111.206053246795,4.735490643916,68.355441005527));
#766 = CARTESIAN_POINT('',(113.938640952395,2.553171511704,70.504747999257));
#767 = CARTESIAN_POINT('',(116.782356623835,-0.167054197278,72.757252233215));
#768 = CARTESIAN_POINT('',(119.739096946520,-3.474059581179,75.115039445082));
#769 = CARTESIAN_POINT('',(5.015638195287,-0.663162429819,-6.812017989234));
#770 = CARTESIAN_POINT('',(8.121760703222,3.400086863833,-4.950887846660));
#771 = CARTESIAN_POINT('',(11.139375446907,6.796945952228,-3.147392204889));
#772 = CARTESIAN_POINT('',(14.070356936498,9.572814194231,-1.399572525297));
#773 = CARTESIAN_POINT('',(16.917304221071,11.774279027964,0.294958625303));
#774 = CARTESIAN_POINT('',(19.684267850013,13.448969232371,1.939444036063));
#775 = CARTESIAN_POINT('',(22.377402019413,14.644825532857,3.538363187482));
#776 = CARTESIAN_POINT('',(25.005065546129,15.408820507421,5.097489221991));
#777 = CARTESIAN_POINT('',(27.577014349381,15.785666908917,6.623413135437));
#778 = CARTESIAN_POINT('',(30.102910169361,15.817303452524,8.122668457896));
#779 = CARTESIAN_POINT('',(32.590930268427,15.543489150207,9.600917125174));
#780 = CARTESIAN_POINT('',(35.047162421322,15.003050905280,11.062597034795));
#781 = CARTESIAN_POINT('',(37.475842797503,14.235031739555,12.511064020594));
#782 = CARTESIAN_POINT('',(39.880028758775,13.279319630277,13.948988673452));
#783 = CARTESIAN_POINT('',(42.262289572302,12.176783015524,15.378763844361));
#784 = CARTESIAN_POINT('',(44.625217186069,10.969135377303,16.802807425187));
#785 = CARTESIAN_POINT('',(46.971741737148,9.698729867670,18.223752021195));
#786 = CARTESIAN_POINT('',(49.305309539505,8.408400180572,19.644555921250));
#787 = CARTESIAN_POINT('',(51.629981317454,7.141402365403,21.068569650942));
#788 = CARTESIAN_POINT('',(53.950477230905,5.941488080747,22.499573582159));
#789 = CARTESIAN_POINT('',(56.272148769400,4.853136835497,23.941773277908));
#790 = CARTESIAN_POINT('',(58.600793795580,3.921964826882,25.399698075028));
#791 = CARTESIAN_POINT('',(60.942152115952,3.195263879159,26.877894834428));
#792 = CARTESIAN_POINT('',(63.300876381654,2.722436383916,28.380274131465));
#793 = CARTESIAN_POINT('',(65.675132367686,2.552963809698,29.906615102644));
#794 = CARTESIAN_POINT('',(68.040836075630,2.691532551918,31.442173412435));
#795 = CARTESIAN_POINT('',(70.394020769011,3.094229386096,32.984869876104));
#796 = CARTESIAN_POINT('',(72.737465215689,3.715270170479,34.536931276277));
#797 = CARTESIAN_POINT('',(75.075741202840,4.510282779359,36.101754549979));
#798 = CARTESIAN_POINT('',(77.414136086543,5.436395680880,37.683230612836));
#799 = CARTESIAN_POINT('',(79.757979813616,6.451944673460,39.285308564440));
#800 = CARTESIAN_POINT('',(82.112314851860,7.516123094504,40.911772517844));
#801 = CARTESIAN_POINT('',(84.481778185619,8.588710917899,42.566153684416));
#802 = CARTESIAN_POINT('',(86.870595686711,9.629910966823,44.251716611254));
#803 = CARTESIAN_POINT('',(89.282635793823,10.600279190939,45.971486928463));
#804 = CARTESIAN_POINT('',(91.721504645016,11.460723860708,47.728310633554));
#805 = CARTESIAN_POINT('',(94.190685246623,12.172541679784,49.524948803243));
#806 = CARTESIAN_POINT('',(96.693728423902,12.697446692023,51.364215383067));
#807 = CARTESIAN_POINT('',(99.234489295968,12.997531902126,53.249155475379));
#808 = CARTESIAN_POINT('',(101.817366962480,13.035099549643,55.183233960555));
#809 = CARTESIAN_POINT('',(104.447458934254,12.772331245375,57.170467130040));
#810 = CARTESIAN_POINT('',(107.130524277452,12.170857706675,59.215412439199));
#811 = CARTESIAN_POINT('',(109.872706536874,11.191389218431,61.322970914530));
#812 = CARTESIAN_POINT('',(112.680092593111,9.793588801302,63.498052338073));
#813 = CARTESIAN_POINT('',(115.558286370953,7.936257145886,65.745237827065));
#814 = CARTESIAN_POINT('',(118.512162613260,5.577728424299,68.068571671467));
#815 = CARTESIAN_POINT('',(121.545849918301,2.676288934821,70.471528832029));
#816 = CARTESIAN_POINT('',(124.662877801551,-0.809525626573,72.957114308202));
#817 = CARTESIAN_POINT('',(0.000000000000,2.363515791475,-5.514870180108));
#818 = CARTESIAN_POINT('',(3.296077676827,6.674528986488,-3.539926431825));
#819 = CARTESIAN_POINT('',(6.549416463443,10.335882187725,-1.595552377070));
#820 = CARTESIAN_POINT('',(9.769432316014,13.384532260702,0.324623748522));
#821 = CARTESIAN_POINT('',(12.963413812682,15.853364346492,2.225713297088));
#822 = CARTESIAN_POINT('',(16.134069008120,17.771493981222,4.110127794374));
#823 = CARTESIAN_POINT('',(19.277192023760,19.166504621815,5.976213921086));
#824 = CARTESIAN_POINT('',(22.381039718925,20.068635803163,7.817895417348));
#825 = CARTESIAN_POINT('',(25.428724549401,20.515235251605,9.626084317426));
#826 = CARTESIAN_POINT('',(28.403053248514,20.552816372155,11.391522054595));
#827 = CARTESIAN_POINT('',(31.291283163989,20.235432456525,13.107565869236));
#828 = CARTESIAN_POINT('',(34.087427530003,19.620701429814,14.771533886732));
#829 = CARTESIAN_POINT('',(36.791750999856,18.765955559016,16.384402084155));
#830 = CARTESIAN_POINT('',(39.408711776083,17.726008212305,17.949591247601));
#831 = CARTESIAN_POINT('',(41.944735699768,16.552557055288,19.471655376147));
#832 = CARTESIAN_POINT('',(44.406526460493,15.294539841139,20.955282661811));
#833 = CARTESIAN_POINT('',(46.800006822359,13.998786962432,22.404662938785));
#834 = CARTESIAN_POINT('',(49.129722153215,12.710581261742,23.823121107363));
#835 = CARTESIAN_POINT('',(51.398516630761,11.473943917789,25.212904072254));
#836 = CARTESIAN_POINT('',(53.607376215041,10.331556489287,26.575058959540));
#837 = CARTESIAN_POINT('',(55.755460551043,9.324246263571,27.909419150109));
#838 = CARTESIAN_POINT('',(57.840518148585,8.489982784802,29.214824924386));
#839 = CARTESIAN_POINT('',(59.860094106600,7.862482460609,30.489850146633));
#840 = CARTESIAN_POINT('',(61.814077384129,7.469981064638,31.734413103767));
#841 = CARTESIAN_POINT('',(63.720704585859,7.333795095723,32.960115431805));
#842 = CARTESIAN_POINT('',(65.665785959861,7.448432737985,34.222647754589));
#843 = CARTESIAN_POINT('',(67.672206511005,7.792439103750,35.538015503336));
#844 = CARTESIAN_POINT('',(69.743433335816,8.341857130807,36.909791617897));
#845 = CARTESIAN_POINT('',(71.878851773506,9.068269946515,38.338862272164));
#846 = CARTESIAN_POINT('',(74.076651750015,9.938942488229,39.825255484555));
#847 = CARTESIAN_POINT('',(76.335499865348,10.917800552304,41.369238091342));
#848 = CARTESIAN_POINT('',(78.655271740936,11.966408153737,42.971824900861));
#849 = CARTESIAN_POINT('',(81.037230197098,13.044634269145,44.634930193031));
#850 = CARTESIAN_POINT('',(83.483908634989,14.110973836686,46.361319979195));
#851 = CARTESIAN_POINT('',(85.998815110219,15.122586803834,48.154433462917));
#852 = CARTESIAN_POINT('',(88.585972374633,16.035154102774,50.018075980016));
#853 = CARTESIAN_POINT('',(91.249260362029,16.802687023023,51.955951425365));
#854 = CARTESIAN_POINT('',(93.991539619605,17.377489137553,53.971010038188));
#855 = CARTESIAN_POINT('',(96.813628245728,17.710533306013,56.064657125598));
#856 = CARTESIAN_POINT('',(99.713384501962,17.752496234261,58.236007506986));
#857 = CARTESIAN_POINT('',(102.685334730968,17.455472699870,60.481525028867));
#858 = CARTESIAN_POINT('',(105.721289185770,16.774951684041,62.795408962096));
#859 = CARTESIAN_POINT('',(108.812027910712,15.671226594584,65.170829791259));
#860 = CARTESIAN_POINT('',(111.949530756472,14.109467100986,67.601645142576));
#861 = CARTESIAN_POINT('',(115.128843316505,12.058341413117,70.083901210740));
#862 = CARTESIAN_POINT('',(118.348889353957,9.487864657507,72.616557652157));
#863 = CARTESIAN_POINT('',(121.612168443517,6.367417759108,75.201345937978));
#864 = CARTESIAN_POINT('',(124.923780855031,2.664533954606,77.842074863120));
#865 = ( BOUNDED_SURFACE() B_SPLINE_SURFACE(2,1,((#721,#722,#723,#724,#725,#726,#727,#728,#729,#730,#731,#732,#733,#734,#735,#736,#737,#738,#739,#740,#741,#742,#743,#744,#745,#746,#747,#748,#749,#750,#751,#752,#753,#754,#755,#756,#757,#758,#759,#760,#761,#762,#763,#764,#765,#766,#767,#768),(#769,#770,#771,#772,#773,#774,#775,#776,#777,#778,#779,#780,#781,#782,#783,#784,#785,#786,#787,#788,#789,#790,#791,#792,#793,#794,#795,#796,#797,#798,#799,#800,#801,#802,#803,#804,#805,#806,#807,#808,#809,#810,#811,#812,#813,#814,#815,#816),(#817,#818,#819,#820,#821,#822,#823,#824,#825,#826,#827,#828,#829,#830,#831,#832,#833,#834,#835,#836,#837,#838,#839,#840,#841,#842,#843,#844,#845,#846,#847,#848,#849,#850,#851,#852,#853,#854,#855,#856,#857,#858,#859,#860,#861,#862,#863,#864)),.UNSPECIFIED.,.F.,.F.,.F.) B_SPLINE_SURFACE_WITH_KNOTS((3,3),(2,1,1,1,1,1,1,1,1,1,1,1,1,1,1,1,1,1,1,1,1,1,1,1,1,1,1,1,1,1,1,1,1,1,1,1,1,1,1,1,1,1,1,1,1,1,1,2),(0.000000000000,1.000000000000),(0.000000000000,0.021276595745,0.042553191489,0.063829787234,0.085106382979,0.106382978723,0.127659574468,0.148936170213,0.170212765957,0.191489361702,0.212765957447,0.234042553191,0.255319148936,0.276595744681,0.297872340426,0.319148936170,0.340425531915,0.361702127660,0.382978723404,0.404255319149,0.425531914894,0.446808510638,0.468085106383,0.489361702128,0.510638297872,0.531914893617,0.553191489362,0.574468085106,0.595744680851,0.617021276596,0.638297872340,0.659574468085,0.680851063830,0.702127659574,0.723404255319,0.744680851064,0.765957446809,0.787234042553,0.808510638298,0.829787234043,0.851063829787,0.872340425532,0.893617021277,0.914893617021,0.936170212766,0.957446808511,0.978723404255,1.000000000000),.UNSPECIFIED.) GEOMETRIC_REPRESENTATION_ITEM() RATIONAL_B_SPLINE_SURFACE(((1.000000000000,1.000000000000,1.000000000000,1.000000000000,1.000000000000,1.000000000000,1.000000000000,1.000000000000,1.000000000000,1.000000000000,1.000000000000,1.000000000000,1.000000000000,1.000000000000,1.000000000000,1.000000000000,1.000000000000,1.000000000000,1.000000000000,1.000000000000,1.000000000000,1.000000000000,1.000000000000,1.000000000000,1.000000000000,1.000000000000,1.000000000000,1.000000000000,1.000000000000,1.000000000000,1.000000000000,1.000000000000,1.000000000000,1.000000000000,1.000000000000,1.000000000000,1.000000000000,1.000000000000,1.000000000000,1.000000000000,1.000000000000,1.000000000000,1.000000000000,1.000000000000,1.000000000000,1.000000000000,1.000000000000,1.000000000000),(0.707106781187,0.707106781187,0.707106781187,0.707106781187,0.707106781187,0.707106781187,0.707106781187,0.707106781187,0.707106781187,0.707106781187,0.707106781187,0.707106781187,0.707106781187,0.707106781187,0.707106781187,0.707106781187,0.707106781187,0.707106781187,0.707106781187,0.707106781187,0.707106781187,0.707106781187,0.707106781187,0.707106781187,0.707106781187,0.707106781187,0.707106781187,0.707106781187,0.707106781187,0.707106781187,0.707106781187,0.707106781187,0.707106781187,0.707106781187,0.707106781187,0.707106781187,0.707106781187,0.707106781187,0.707106781187,0.707106781187,0.707106781187,0.707106781187,0.707106781187,0.707106781187,0.707106781187,0.707106781187,0.707106781187,0.707106781187),(1.000000000000,1.000000000000,1.000000000000,1.000000000000,1.000000000000,1.000000000000,1.000000000000,1.000000000000,1.000000000000,1.000000000000,1.000000000000,1.000000000000,1.000000000000,1.000000000000,1.000000000000,1.000000000000,1.000000000000,1.000000000000,1.000000000000,1.000000000000,1.000000000000,1.000000000000,1.000000000000,1.000000000000,1.000000000000,1.000000000000,1.000000000000,1.000000000000,1.000000000000,1.000000000000,1.000000000000,1.000000000000,1.000000000000,1.000000000000,1.000000000000,1.000000000000,1.000000000000,1.000000000000,1.000000000000,1.000000000000,1.000000000000,1.000000000000,1.000000000000,1.000000000000,1.000000000000,1.000000000000,1.000000000000,1.000000000000))) REPRESENTATION_ITEM('') SURFACE() );
#866 = CARTESIAN_POINT('',(5.015638195287,-3.026678221294,-1.297147809126));
#867 = CARTESIAN_POINT('',(5.015638195287,-0.663162429819,-6.812017989234));
#868 = CARTESIAN_POINT('',(0.000000000000,2.363515791475,-5.514870180108));
#869 = ( BOUNDED_CURVE() B_SPLINE_CURVE(2,(#866,#867,#868),.UNSPECIFIED.,.F.,.F.) B_SPLINE_CURVE_WITH_KNOTS((3,3),(0.000000000000,1.000000000000),.UNSPECIFIED.) GEOMETRIC_REPRESENTATION_ITEM() RATIONAL_B_SPLINE_CURVE((1.000000000000,0.707106781187,1.000000000000)) REPRESENTATION_ITEM('') );
#870 = EDGE_CURVE('',#651,#165,#869,.T.);
#871 = ORIENTED_EDGE('',*,*,#870,.T.);
#872 = ORIENTED_EDGE('',*,*,#284,.T.);
#873 = CARTESIAN_POINT('',(119.739096946520,-3.474059581179,75.115039445082));
#874 = CARTESIAN_POINT('',(124.662877801551,-0.809525626573,72.957114308202));
#875 = CARTESIAN_POINT('',(124.923780855031,2.664533954606,77.842074863120));
#876 = ( BOUNDED_CURVE() B_SPLINE_CURVE(2,(#873,#874,#875),.UNSPECIFIED.,.F.,.F.) B_SPLINE_CURVE_WITH_KNOTS((3,3),(0.000000000000,1.000000000000),.UNSPECIFIED.) GEOMETRIC_REPRESENTATION_ITEM() RATIONAL_B_SPLINE_CURVE((1.000000000000,0.707106781187,1.000000000000)) REPRESENTATION_ITEM('') );
#877 = EDGE_CURVE('',#659,#228,#876,.T.);
#878 = ORIENTED_EDGE('',*,*,#877,.F.);
#879 = ORIENTED_EDGE('',*,*,#709,.F.);
#880 = EDGE_LOOP('',(#871,#872,#878,#879));
#881 = FACE_OUTER_BOUND('',#880,.T.);
#882 = ADVANCED_FACE('',(#881) ,#865,.T.);
#883 = CARTESIAN_POINT('',(0.000000000000,0.000000000000,0.000000000000));
#884 = DIRECTION('',(-0.548821299948,-0.768349819928,-0.329292779969));
#885 = DIRECTION('',(0.000000000000,0.393919298579,-0.919145030018));
#886 = AXIS2_PLACEMENT_3D('',#883,#884,#885);
#887 = PLANE('',#886);
#888 = ORIENTED_EDGE('',*,*,#870,.F.);
#889 = ORIENTED_EDGE('',*,*,#656,.F.);
#890 = ORIENTED_EDGE('',*,*,#440,.F.);
#891 = ORIENTED_EDGE('',*,*,#172,.F.);
#892 = EDGE_LOOP('',(#888,#889,#890,#891));
#893 = FACE_OUTER_BOUND('',#892,.T.);
#894 = ADVANCED_FACE('',(#893) ,#887,.T.);
#895 = CARTESIAN_POINT('',(120.000000000000,0.000000000000,80.000000000000));
#896 = DIRECTION('',(0.569802882298,-0.683763458758,0.455842305839));
#897 = DIRECTION('',(0.820630142505,0.444088992434,-0.359654189480));
#898 = AXIS2_PLACEMENT_3D('',#895,#896,#897);
#899 = PLANE('',#898);
#900 = ORIENTED_EDGE('',*,*,#233,.T.);
#901 = ORIENTED_EDGE('',*,*,#499,.T.);
#902 = ORIENTED_EDGE('',*,*,#715,.T.);
#903 = ORIENTED_EDGE('',*,*,#877,.T.);
#904 = EDGE_LOOP('',(#900,#901,#902,#903));
#905 = FACE_OUTER_BOUND('',#904,.T.);
#906 = ADVANCED_FACE('',(#905) ,#899,.T.);
#907 = CLOSED_SHELL('',(#288,#504,#720,#882,#894,#906));
#908 = MANIFOLD_SOLID_BREP('ZENITH_SWEEP_PIPE',#907);
#909 = ADVANCED_BREP_SHAPE_REPRESENTATION('ZENITH_SWEEP_PIPE',(#908,#18),#13);
#910 = SHAPE_DEFINITION_REPRESENTATION(#8,#909);
ENDSEC;
END-ISO-10303-21;
